<mxfile host="app.diagrams.net" agent="Mozilla/5.0 (Windows NT 10.0; Win64; x64) AppleWebKit/537.36 (KHTML, like Gecko) Chrome/131.0.0.0 Safari/537.36" version="24.8.6">
  <diagram name="Pagina-1" id="g6rnz-wqIgoeGyvu8LsH">
    <mxGraphModel dx="3572" dy="1090" grid="1" gridSize="10" guides="1" tooltips="1" connect="1" arrows="1" fold="1" page="1" pageScale="1" pageWidth="827" pageHeight="1169" math="0" shadow="0">
      <root>
        <mxCell id="0" />
        <mxCell id="1" parent="0" />
        <mxCell id="EX5GsLF4o7m4hrYXssAP-6" style="edgeStyle=orthogonalEdgeStyle;rounded=0;orthogonalLoop=1;jettySize=auto;html=1;" edge="1" parent="1" source="EX5GsLF4o7m4hrYXssAP-1" target="EX5GsLF4o7m4hrYXssAP-2">
          <mxGeometry relative="1" as="geometry" />
        </mxCell>
        <mxCell id="EX5GsLF4o7m4hrYXssAP-1" value="&lt;b&gt;Form&lt;/b&gt;&lt;div style=&quot;font-size: 20px;&quot;&gt;&lt;br style=&quot;font-size: 20px;&quot;&gt;&lt;/div&gt;&lt;div style=&quot;font-size: 20px;&quot;&gt;&amp;lt;form action=&quot;estrazione.php&quot; method=&quot;GET&quot;&amp;gt;&lt;/div&gt;&lt;div style=&quot;font-size: 20px;&quot;&gt;&lt;br&gt;&lt;/div&gt;&lt;div style=&quot;font-size: 20px;&quot;&gt;(input type = &quot;text&quot; name = &quot;X&quot; value=&quot;Nome&quot;)&amp;nbsp;&lt;/div&gt;&lt;div style=&quot;font-size: 20px;&quot;&gt;(input type = &quot;text&quot; name = &quot;Y&quot; value=&quot;Cognome&quot;)&lt;/div&gt;&lt;div style=&quot;font-size: 20px;&quot;&gt;&lt;br style=&quot;font-size: 20px;&quot;&gt;&lt;/div&gt;&lt;div style=&quot;font-size: 20px;&quot;&gt;(input type = &quot;submit&quot; value=&quot;Invia&quot;)&lt;/div&gt;" style="rounded=1;whiteSpace=wrap;html=1;fontSize=20;" vertex="1" parent="1">
          <mxGeometry x="90" y="60" width="480" height="230" as="geometry" />
        </mxCell>
        <mxCell id="EX5GsLF4o7m4hrYXssAP-10" value="" style="edgeStyle=orthogonalEdgeStyle;rounded=0;orthogonalLoop=1;jettySize=auto;html=1;" edge="1" parent="1" source="EX5GsLF4o7m4hrYXssAP-2" target="EX5GsLF4o7m4hrYXssAP-9">
          <mxGeometry relative="1" as="geometry" />
        </mxCell>
        <mxCell id="EX5GsLF4o7m4hrYXssAP-2" value="&lt;b&gt;Apertura connessione (1) - file a parte (connessione.php)&lt;/b&gt;&lt;div style=&quot;font-size: 20px;&quot;&gt;&lt;br style=&quot;font-size: 20px;&quot;&gt;&lt;/div&gt;&lt;div style=&quot;font-size: 20px;&quot;&gt;$connessione = mysqli_connect(&quot;localhost&quot;, &quot;root&quot;, &quot;password&quot;, &quot;database&quot;)&lt;/div&gt;" style="rounded=1;whiteSpace=wrap;html=1;fontSize=20;" vertex="1" parent="1">
          <mxGeometry x="660" y="60" width="480" height="230" as="geometry" />
        </mxCell>
        <mxCell id="EX5GsLF4o7m4hrYXssAP-12" value="" style="edgeStyle=orthogonalEdgeStyle;rounded=0;orthogonalLoop=1;jettySize=auto;html=1;" edge="1" parent="1" source="EX5GsLF4o7m4hrYXssAP-9" target="EX5GsLF4o7m4hrYXssAP-11">
          <mxGeometry relative="1" as="geometry" />
        </mxCell>
        <mxCell id="EX5GsLF4o7m4hrYXssAP-9" value="&lt;b&gt;Estrazione (2) - file a parte - estrazione.php&lt;/b&gt;&lt;div&gt;&lt;br&gt;&lt;/div&gt;&lt;div&gt;include &quot;connessione.php&quot;;&lt;/div&gt;&lt;div&gt;&lt;br&gt;&lt;/div&gt;&lt;div&gt;$nome = $_GET(&quot;x&quot;);&lt;/div&gt;&lt;div&gt;$cognome = $_GET(&quot;y&quot;);&lt;/div&gt;&lt;div&gt;&lt;br&gt;&lt;/div&gt;&lt;div&gt;$query = &quot;SELECT Nome FROM Tabella WHERE ...&quot;&lt;/div&gt;&lt;div&gt;&lt;br&gt;&lt;/div&gt;&lt;div&gt;$risultato = mysqli_query($connessione, $query);&lt;/div&gt;&lt;div&gt;&lt;br&gt;&lt;/div&gt;&lt;div&gt;while($vettore = mysqli_fetch_array($risultato, MYSQLI_ASSOC)&lt;/div&gt;&lt;div&gt;&lt;br&gt;&lt;/div&gt;&lt;div&gt;echo &quot;$vettore[Nome] - $vettore[Cognome] &quot;...&lt;/div&gt;" style="whiteSpace=wrap;html=1;fontSize=20;rounded=1;" vertex="1" parent="1">
          <mxGeometry x="630" y="390" width="540" height="400" as="geometry" />
        </mxCell>
        <mxCell id="EX5GsLF4o7m4hrYXssAP-11" value="&lt;b&gt;Chiusura connessione (3)&lt;/b&gt;&lt;div&gt;&lt;br&gt;&lt;/div&gt;&lt;div&gt;mysqli_close($connessione);&lt;/div&gt;" style="whiteSpace=wrap;html=1;fontSize=20;rounded=1;" vertex="1" parent="1">
          <mxGeometry x="682.5" y="860" width="435" height="240" as="geometry" />
        </mxCell>
        <mxCell id="EX5GsLF4o7m4hrYXssAP-13" value="" style="shape=image;verticalLabelPosition=bottom;labelBackgroundColor=default;verticalAlign=top;aspect=fixed;imageAspect=0;image=data:image/png,iVBORw0KGgoAAAANSUhEUgAAAt4AAAFSCAYAAADFDthhAAAAAXNSR0IArs4c6QAAAARnQU1BAACxjwv8YQUAAAAJcEhZcwAADsMAAA7DAcdvqGQAAN5MSURBVHhe7N13eFRFF8Dh37Zseg8QAgkQeg+9dxAVRBD4kCYoKgoqiCJFVEARGyIoKipIExGpUpTem/RO6IFAQnohdbPz/bHF7E2HkASY93n2Ybln7qbvnjt75oxKCCGQJEmSJEmSJOmBUisPSJIkSZIkSZJU+GTiLUmSJEmSJElFQCbekiRJkiRJklQEZOItSZIkSZIkSUVAJt6SJEmSJEmSVARk4i1JkiRJkiRJRUAm3pIkSZIkSZJUBGTiLUmSJEmSJElFQCbekiRJkiRJklQEZOItSfcoIQNiDZAh936VJEmSJCkfVHLLeCm/kjIgPgMc1OCmVUbzdiUZTifBjRRT0qoGfOygpiM0cAGdSnnGg3UzFU4kmv5NNoIR8NRCNUdo4Az6bC5LEzLgQDycvWs6B/PVawV7aO4G5fXKMyRJkiRJkkxk4v0YScyAi8kQkWZKMt21UNkBvHXKkf+JM8CxRDiXZLpv4aKBus7Q1BXs8kiYr6bA9hi4k66M/MddC719cv9cLEJS4HoqRKeDWgU+OlOy7JHPi4F4A2yNhQtJysh/nDXwrDeUy5RIn0iErTGQlstfTAtXaOOuPCpJkiRJkiQT78dCihH2xJkS6OzKIqo5QldP00y2RbIRdsWakk3zxG62PHXQ18eUOCslG2FLDJy5q4xkz0kDQ8uYkt7sBCfBnni4k6aMgAqo7wwdPUCbw4WAAI4mwM7Y3JNnCzs1DCwN7hr4OxrO5pKoZ9bRAxq7KI9KkiRJkvS4k4l3CZIuICYddGpTIptD/lgg11JgfZSpRCI3HlpTkumkMSXbO2L/K6XIi4fWlDDbZUrcLyfDhmi4m8fHVarhCD28bY8lGU2Jb3A+El9/PfQtlTX5jjWYvg83Um2P58VHZ7rwiMpltt6QmsLd6EjcfMsBpo89vGzOFxCSJEmSJD2eZOJdAlxLMdUNX08xzcqCqb64uiO0dAPXe0jgBLA7DvbH/feYealgb0r2r6YoI3lr4QZt3EwXD9tiTLPr90IFjPQzXQBg/lzWRRUsgW/mCu0ylXscT4RtsZCWzwuJ/BBCsPvHL9jzy0wS7twGoPtH39Bi6JuA6eM3c1WcJEmSJEnSY00m3sUoyQibouF8LjO5ejX09DYlxfmVaoS1UaZZ56LiqIbnS8OaSIjMZXY4P3p6Q1VH2B0L++Pzf+FgoVPBCD/T/Y3Ruddy34vDy+axfurbpCTE2Rxv2GcIvb+cD4CrFrp4mGroJUmSJEmSkIl34TAIU5J7K82U9NqrTd0tKtqbFv9l52IybIwyJd950algcBlT2UN0OpxJglvmThzOGvC3hzpOphrtWAMsj8i9NOJBUZN7PXh+tXYzlYRcu4eZd4smrnD+rqkLS2G5enAnS4b34W50hM1xBzcP3P0CGLpwIy4+ZWxibdxNCy4lSZIkSZJk4n0fjMDheDiQYGq1p+ShhSc9TYmxhcFcinG0gKUYZfXgpjHNjmf3A9OroaGzqcQjv7XZUv6t/WAk+xd8Z3PMJ7A6fWYsoHz9JjbHlZ71NpUNSZIkSZL0eJOJ9z26nQYboiAij5lltcpUOlHFwdSN4698nCOVLMaMDN4P1GH5U3F09+R/s5ZQtW1X5dBsuWpNiy2zaQsuSZIkSdJjROYCBWQUpkWLi8Lzl0AbhWlx4O44WJDPc6T7F37hNH++82KWOux7EX7hlE3S/f7xyHwn3Zj7hl8pwnp7SZIkSZJKpsc68Y41wOEE2BQDm2NM3S9y656RmAG/3YG9caaEOr9SjaZzsuuhLT0YP/RuzZHl8/nt9b7KUIHpHJys993KlkelyqFwPxdFudBVkiRJkqSS6bEsNUk1b+xy+m7WemmNyrT5SRt326uSG6mwOjL3xFwqOomRd1j0cg9iblwjIz0NtVaHVm9Pl3em4uZbnp/6tQdAa6dn6sX7WKUJxN2+yfRm5QEIbNmRYb9tUQ7JU0V7+F8p5VFJkiRJkh4nj92Md7IRFofDqWySbjDNSh+Ihz8j/puhPpIAS8Mf3qT79tkTXNm/gyPLf+XWmWMI48O9+nLtB28wvVl5Qo4eICEijKTYaBIjw4kNvc4fowfz57svWscKcf9fq0r935+Jzv7e+gNqCj5JLkmSJEnSI+ahnPG+nWYqEbmRaqqfdVCDn96022NkummLdDD9P9ABajqaEp90AcvuwM187l7Y1NXUreRUPrc8LynuRkeyffbHXDmwg4hL5zGk2X7BVVp35sXFmwC4uHszf4waSFJMNCq1Cp/A6oz461+0dnqbc/Ir7PxJDi7+kaSYSAAMaab93e0cHWnz6rv41qyvOCP/kuNi+Klfe26fPYFKpaLDm5No/8ZENDo7AJa9NYDjq39DpVJZa7JVKhVTLiSh1eevEfqcHs24efJf+s/5g9pPPgdAYmQ4nzQ0tQms2vYJnpzwBcKYgTAa0do7kBIfS6nKNbB3zbRrj4JlgyFJkiRJkh5fD1XiLYDtsXAoXhnJnbsWunmZ6qzvZVfGh4EhLZXgHRs5tmoJ5zavISP9v1WcTp4+uPv5o9ZocfTwQqVW88K8vwg5eoAfe7fGmGFArdECYMww4OZbjrF7r6HW5H/LzDuXzrHrh885tnIRxoyc3xpo/coYnpr4pc2xX4c8TfWOT9Ns0Os2xzNLiY9lzrPNibh8Hmfv0rzyxw58AqvbjNk2ayqbv/oAAL2zC+nJyRgzDAz5dQPV2j9pMzY7dy6e5etOtQBw8y3HuAM3AEhLSuTDGi6K0VlpdDpqdO7B898utX4/LV7yNfVhlyRJkiTp8fVQJd4bouDkQzb7XBRO/rWM1RNfIzkuBgAXnzL4VK5O88EjqNbh6WzLI4TRyPTm/sSHhVL7qd4M+H45aUmJfNWuGvHht6zH8hJ17RIbPx3L2U1rEEYjAY1aUr1jN5w8vTMl7iqu/bubw8vmoXd24aMzpiunpNhognf8zZYZH1DziWezJOSZzenRlBvHD+Faxo831h/B2bu0cgi/DOjMpT2m+uuGfYZy/fBeIq8G03XcdNq+9p5yeBaHfpvLqvGvAmDv6s6Hp0zfT4D3K+vJSDfN3uel3evjeOK9T63/r+ZoaikpSZIkSdLj7aGp8d4VV7KS7qSYKOYPfpIPqjvxQTVHpjfz5+aJf5XD8pSenMSuHz4nKTZaGcq3mJvXMGZk0KD3C7y0ZDPjDt7k5d+3U/up3tkm3QCX9m4lPiwUrwqVrQm2naMzb2w4hlZvz+kNfxJ66ojytCwOLvmBs/+spnqHpxm+ci/DV+yh3evjaNxvGA37DDXfhvD0pBkA6OxNO8mcWLuUaY18uXJgh+IRszq94U9uHD+EWqNl2G9bbJLu8OAz/PP5BLbM+JAr+3eg0ZmmlcsHNcXdzx+AYysXWcfnxphhsN5Xzvb3n7MMvzoNGfDDn3x6Xdjcpl3NYNTm09ZzEiLCrefp1dDRI9MDSZIkSZL02CqxiXdUVBTff/89GRkZHE+EfQVsx3x20xrm9m1L3O2bytB9S01MYPbTDQje+TeGlGQMqSnE3b7B3L5tMaTmv5ZFGI0sGzWQjZ++R+jJw8pwvrV97T0+OhNHn69+pXKrTlmSxuzs+cmUCHca/ZHNcWfvUjwzeRYAS0f8z1ornZPOY6by7p4rDP5lLQENWyjDVn9/appxLlWlBl+1q8bvb/SnUvN29Jj6LWnJSdbZ+uwc+m0umJNpn8DqGDMyOL76N37q14FvnqjLvvmzOPLnAowZBnp8PIceH39Hg16DaD9yIgARl8/n6/dAo/2vFsRBUa9ds8uzjFx32Fr3nZlKrcbOwdG6aNXJy8cae9ITXPP+cUiSJEmS9BgosYn30KFDef311zlw+SabzDmZMSODPT/PYP7gruye+5XyFAAy0tNZP3UMi1/pSWxoCGqtba1tfgghiLp2ieOrl3By3R+cWLuU81vXWeN/jB5EbGgIPoHV+ehsPNOuGan9VG/SU5L5852hNo+Vmw2fvMuZv1fR6H8vUaVNF2X4vpxY+ztn/l6pPGylsTMtSCxTvY4yROPnX8a1jB9R1y9zbMVCZdiGzt4Bj3IVlIdt7Pt1NgeX/IidozNXD+4i6vol6nb/Hy8u+geNzo67UXdynV2PDrkCQMjR/Uyu7c4H1RxZ9tYAruzfTlDPgbiW9uNu1B2enPA5jfsNo9mg19E5OFKpeTv0zi4YMzJYN2W08mGziL5x1Xq/5hPP2sRyY0hN4ad+HRBCoFKraT9yAiqgi4fcKl6SJEmSpP+UyMQ7MTGRjRs34unlxb+OAWRkGNnwyTt82sSP9VPHELzzn2zbxMXdvslP/dqz5+cZVOvwNCPXH8HFx9SNIi+G1BS2f/sJn7UIYFIVe75sW4Vlbw1k6Yj/8fsb/VnwYnem1vPi9MYVnNu8Fp2DI8NX7MHO0RmAXtPnotZouX5kv/Khs3Vg0Rz2/DyDqm2foOenPyjDNuLDQrkbbeoSkl+nN64gOuS/RFLJzrwpjMhhJ6C+Xy9EpVKxY870+2o/eObvVWz4eAyYFynq7B0Y8P1ynv/2d+sYYTSSmpiQ6Sxb9Xr0B/O4lIQ4jBkGGjw3mB4fzyF45z+kJMQybOk22rz6rvJUnvv8FzCXq+z5+Wtl2EoIwfHVv1n/X6Za1guS7KQl3eW7Z5oSc/MaAG1efZfK3m4MLA0N8l6PKUmSJEnSY6REJt6//PILBoOBoGcHcOyftXwc5MPuuV9xN+oOgS078vqaA1mSrP0LvmNGh+rcPHGIpyZ+weBf1uLo7mkzJid/Tx/HR7Xc2PTF+8SGhqB3csa3Zn1qdOpOg+cGE9RzIF4VKpMUG82yNwcghKB21144enhZH8PBzQNnn9LEhl7Pszxj77xvWPP+CDzKVaD/nD+ydMBQWjZqIOvzMWObWdS1i3hVqKw8bFW2dhAoelRnFtiiA761goi4fJ5ts6Yqw3lKiY9lx3efsmT4c2Skp6NSq6n3TD/ePxZBra69bMZqdHYkRITl+H3rPGYK7x+LYOKRcD44Gc3Hl9LoM2MBF3dtwsHNg9dW7ce/QTPlaQDUeboPpSrXAGDDx2NY8/4Im44vmN9JmT/oCWJDr1uP/TV5FAkRYTbjlEJPHWFa47KEnT8JQPMnuvHbzOkMLG1qbylJkiRJkpRZiexqUrlyZa5cuULlVp24uHszAGVrBdH9o2+o0KS1cji3zhzj+54tMBoMvLJ8Z661xkpftq1C1LVLqNRqKrfqRLcPvqZUlZrKYQDMG9jF+vmMXHcYvzoNbeLf92xOyNEDTLmQlOOixttnT/B9z+ZkpKcxdOHfVG7VSTkki+97Nse1TLl8dRnBXG7zQTVHXv1zd44J6f4F37L2gzd4fc1BytdvYj1+eNk87kZHAHDr9FFOrvsDexc3XMv44ejhhVqjYdjSbdlum27MyOD81nUcW7mI81vXWfuHu/mW5/XV+3Et46c8BYCv2lUj8mow7UdOoMu7n4D5Y3uUr4iDW84rE9OTk1Cp1Xn26E5PSWZm59rWkhWNTodLqbI4uLmTlnSXu9GRpMTHgrn0Jjz4DMJoRO/sSrcPZlC9YzfUlvpvIQg9fZRNn08g9NQR68XCu+Mn8Pk00+cuSZIkSZKUnRKXeMfFxeHl7Y1aZ0d6chJqjZbnvviFBs8NVg61+rRpOeLDQhm+Yg8BjVoqwzm6c+kcX3esidZOzxsbjuaYcFukJd3lo5ouCCGYeCQsS0u72U814NaZY0w6EZXjbPvcvm25enAX9Z7pR7/ZS5XhbH3dsSbOPmV4+fdtylC2Iq9e5Kt2VRl34AZuvuWUYTB3+vhj9GCb2eK0pESm1vfJdoGoSq2mQuNWBDRqyRNjpynDAOybP4u/PnoLjc4OvZMzSbHR1OjUncG/rFUOtXFq/XJ+e70vmPtvA6TdTWT01rNZenXfq7vRESx/+wUubN+oDFmVq9eYV5bt4N9lv7B+yts2XU5yUsqvHN/PnkWvnj2VIUmSJEmSJBvZ1xkUow8++4oMg4H05CQARvx1KNek+8TapcSHhVKhSesCJd0AhpRkANz9/PNMugHsHJ2sizX//d1UO5yZJZbdbDDmmflrh3ajtdPz7LTc67oxtyxMS0ok9lYI4RdOKcM5OvvPKjB/vjmp83QfXpj3l81st52jM+/uusTIdYcZue4wI/7619r/2r2sPy8t2ZJj0g1Qt/v/+N83i/Fv0Jyk2GiqtX+KQT+vUQ7Los7TfWjYZwiYO8ak3U2k2eDXCy3pxryJ0JBfNzB85V7avvYepavVxrdmPXwCqxHQqCWdx0xlxNpD6Bwc6fXKG/yxeg2BlSvn+LMMrFWHl4e/xvVLF2XSLUmSJElSvpSoGW8j0OCJHpzYtBaVWo1KpeKTK7nPOi5+9TnO/L2Sqm27UqNzd3xr1ONudCRuvuWIu30T1zKmjhcObh6kJMRj5+DI3ehInH1K4+juyYwONdDq7ZkabErC8/JxUCnuRkdkO5P7zRP1CDt/kqnBydmWP6x5fwQHFs3Bv0FzXlu1Txm2EkKw4eN3OLBoDr0++4kNH7/D3egIppy/m+3jKu347lP++XwC4w6E4OZbXhkusAUvduf81nX5mqXfN38W6yaPQu/syju7LuLk+V9rPYCt30zhyPJfGbvHVPaRWcKd26SnJOPiUwadQ/G0A6nlBF09QWfOt2/dusWZM2dIU2nIEOCk1+Hm6ECjRo2Up0qSJEmSJOWqRCXexxOhkafelHSr1aQnJ/HWPycoU72ucqjV0RUL+XPMkBwX5uVGpVZbO3aoNZpM26abtjzX6u1xLe3L4F/WWmdfJ9d2JyUhDmfv0kw88t/iOyEEk2u7kZ6clOPFwuQ6HqTEx/LsJ9/TdOBwZRiAiMsXWD3xNa7s347e2YVJxyNZ+NIzBO/8h2en/UDTAaadFXOzYuxLHF42jw5vvk/nMQVfGKl068wxvuveBCGM9J/zB7W69kIYjVn6hWekpzOlridpSYkM/nkNNTo/YxM/svxXVrz7Ilp7B6acL/zdkFRAPWc4kQgF/W3Qq03t/2rl/CaBJEmPnGjgAnAdiAN0QGmgFpB7m1RJkqR7UaJKTVbsO0ZGehrVOzxNubqNATj020/KYTYaPDeYUZtP0/vL+TQd8Cpdx02n9pPP0eXdT6j95HN0HPUhQT0H0ubVd2nYZwgthrxB9Q5Po7XTI4xGdPYOaHQ6VGo1Gjs7NHZ6NHZ2qLVa0pPvEnn1In+M/q/Uxdm7FADJcbY7TW77ZgqpiQn41cl5JtRS2uIZEKgMkZGexvZvp/F1p5pc2b8dZ+/SvDDvLzQ6OwJbdgRg7y8zbc7557PxNv3FLSIunQcg8kqwMgSYZnOf9YYq2a//zKJsrSC6ffg1wmhk6Yh+/NyrOT/2bqUcxrkta0lLSsTJ08cm6U64c5tFLz9r7XHe5Z2PM50FGpUpab4fejU852Oare7sUbDHq2gPQ8vIpFuSCi4DuAjsAP42/3sKyLk9aMlwA1gOzAV2AteAGOCO+fP/3RzP6Z1QYU7U4833JUmS8qfEzHhHpkP3l0ylGC2GvIHe2ZXt335C1bZdGbow5wVxBXVi7VKWv/0CGenpuPsFkJ58l/ePmbp4KK2f+jZ7fv6agIYtGL5yLwDf92xByNH91jIYlVpNWlIik2u7I4xGhq/cl6WTSPiF06z98A2uHtiJEILWr4yhYe8hGDMMCKORs5vWsOeXr629rN39AnjrnxPYu7iBOSn/oJojxowMBv20mppderB8zBCO/rmAIb+spVqn7jYfb/fcr9g2ayqvrzmIT2A1m5ibFnp5Q2k7MAjYGA1n8jH5rFPB+rf+x/ZVf4D5HQLlzP6Wrz9i68zJqDUafCrXQKVSodZoCQ8+TUZ6OhqdHR3enESHN9+3nuOigZ4+cCAegk1l/QVW2s50IeGRqSvjtRTYGgMRtp0DbZSxg7bupsRbkqSCOmtOtOOVAfP7TzWATkBhl40Jc7J/CggFkgA3oDzQEPBVnpDJZWA/kPdOtiZlgAHmmfAM4Bxwxpy4W57/7ICqQAsg+0X1kiRJFiUm8T6XBH379OH0hj95bdU+7lw8x4qxL+HuF4AwGkmMDCcjPc06XqVS0e3DmbQY+qbN4+Tk9tnj/Dq0G/FhoWh0Opr0fxVP/0ocXPw9Y3ZkPzM8vVl54m7f5OlJX9Fq2NsArJs8ir3zvgGwdjY5+dcylo7sh7N3KfrMWIjO3h6VWsO1f/dw8q9l3D57HHe/ABIjwqwt9rKjUqnoOPojOrw5KcuiPkudtUqlwrWMH/FhoeidXLgeFcu5JBX7s3vty0QN1HeBtm6m2eHMQlLheAKEpkFcplxar4Zyegi0N80G69Xw6quvMm/+fJy8yzDuQEjmhyHi8gW+7lQzy4Y7KpUKn8DqDPp5Nd4Vq1qPl9NDT29w0kCsAX4Ng5QC7tUT5AwdPUCbwxR3WBqEpkKMwXShgTnZ97eH8rLXtiTdgyRgozn5zYsb0N/8b2EIM8+s59ZjvynQzpz8W1wDdgG3Mh3Lr0aAO3Awj5l8LfC0+YJDkiQpeyUm8T6RCG2qmNoCjj8UStj5k8wf/CQAao0WT/+KOHuXxpCWSnpyEuHBZ7BzdGLyuUTlQ9kIO3+K5WOGcPvscYTRSJnqdRny63rcfMvxx+jBXNi+gUnHs+4KuXriaxxc/AOO7p68fzzSmggnRIQxrZFpRmXMjmC8K1bh+pF9/Phcq2zrzDU6HeXrN2XIrxsIDz7Dwpe6kxQTZTNWrdEQ1GswT074LMtiRIu0pLt82rSctd80wJLlK+jf27QZTVga/Jtgmum9aypRB3PyXN0RmruCe+779ACQaoRkoylRd81hfGQ6/HxbedQk4c5tgnf+Q0JEGEaDAb2TM+WDmuLfoLnNuCau0M7dttbpVhqsiLD9/HPioTWVlQTI2WrpEXHjxg3++OMPxowx7fRaMoUAa4Hcn3dtlQEG32dloxE4BOw2zzznpQnQwZxo7zB/3kVBDfSV9eGSJOWoxCTeF5KgefVKxNy4at2A5vTGFTh5+lChSWubGWDL7K9XQCDv7LpkPS6EsI47u2kN++bP4sqBHQijEe+KVej12c9UbNrGOn7Ryz25vG8bH52Jsx4DWPney/z7+89o7fSMXHeY0tVq28Tn9m1LyNEDTDoeae07HbzzH7Z/MxknYxqezo6ULVuWZLUddd/6BCdFZxFjhoHkuFiE0YiTlw9l9Coq2sPB+NyrBQ2pKayZNJLUm5f58qP36dLJVPutlGyEeAPYqU3Jdg6TwfdldSScv4fSECcNdPPKubwjyQj740zlL0nZzH776KCOk2k79pxmuSXpYXTq1Ck6d+5MWFhus7nF6TCw9R5rmp8B8m7Zmr1w8wx7Qb8vFYGryoNFwAN4RTHjLkmSZFJiEu84A5T18SIpNjrHdnzCaGTBi924sH0jao2WMTsu4OlfiV0/fM6+X7/lhXl/cWT5fC7u3sydi2cBKF+/KY3+9yKNn385a/nG0G5c2L6Bhn2H4lOpGslxMZz5ZxURly9g5+jM0AUbst0pMzvl9aaE0k0xSxyfYUqog5MgIdNEjb0aKthDfWfTv5hLPjZH51yX7KiGDh5QuwQsAkzKgMV3IDqHzzU71RzhCU/T15EfiRn/lYcAOGtksi09ulJTU3FyciI8PBwvLy9luBgZgc3AMWWgAFwB50xdQ2qaZ8JzYwD2mGe6s7kKL9H6yVlvSZKyVWISbwBHVzeSE+L58HSsdWGhRXz4Leb2aUPU9cuoNVqGr9xr3fzlg+pOpt0WhbDOeldr/xQ1Oj9Dk/6v2DxOZlHXLvFt98Y25RsAFWrX55tFv3PVuxrJeTzfO6qhnYdpFjavnDDN+N/Lh30uyWdYmukWbTCdo1NBWT1Udvivv3RJkJQBG6LhUk4L/818dKY6bMsFhiRJ2atcuTILFy6kRYsWylAxSQdWmxclFrbawBPmZFzpmrmW2/a5+eHRynyTJEmyVaIS74BKgYRcvYJPYHXqPN0bzLspXvt3Dxd3/UNGejpOnt68vuYgnv6VrOd9170xoaeOYO/qTrNBr1P/2f752okS8yz65X3biA29jkajpmu96gztaKpHTjWaeoufSYKINNs3WD20ppnnRi5ZFys+bm6nmUqFItNNiyQTM0wXCKXtoKYj1MjHRYkkSdCmTRu6dOnC++//1/mn+FwAtj/g5Ncf+B9g2RMgyVzOckYx7mHTyNzRJT/umr/uDHONuAPglI+a+BhzH/JE86LPZEX9u978OE7mdxdK0rsokvT4KlGJ9/r163m2Z08M6dnXLzQb9BpPTfzygexq6KGFHt6mFnPZMQhTQqlVmRLtkjTzLEnSo6FevXp4e3uzdetWZagIpQHrzYl3UWgNtDS3B9yWS+/sh0kbc3vB7KQBx83f3wjz/5V05raIVYA6gL253OY6cN7cUaagi2ycze8yBN1Dl5k480LVMPOFWObuXCpzkm9vTu7Lmm8l5UUy3Px9SzJ/nr5AQAn6/KTHTYlKvDGv7P/w25/Zc+AAao0Wexc3fAKr0fLFt7B3dVcOv28qoKELtHEzLUaUJEkqLi1btsTLy4u1a9cqQ0VEAMvMpR5Fxd6cDGVdCDls2Armzz+C0Sjw83MlJGQcavXDkDBVMCfK6eZWhJWA6uaLiz0FTJrtzQn4pUK6KNEAjc0XBxnm5D8yh88pCrhinpUvCFegrvnjFHXf1jTzhUIE8C+QXQsuD8B2j4us7M3vPlguJmSCIBWOEpd4Wyy7A1dTlEcLVxk7U0u6nGa5JUmSipKPjw8uLi5cuXJFGSoih4EtCCG4eDGKJUuOk5SUxo4dVxFCsHnzS3h45HPL2/s0deo2Pvhgs3VRvBCC0aNbMWPG08qhBWYwGNFqizKRSjNfWJS5h9nmB8XRnMg/yBTAFXjOvKC2sFk2NLpsLrtJMX+fs7uAuF86INDcIz63DZokKW8lNvGOMcCCe9hQJT9K20ETF6gpa48lSSpB6tevj7e3N1u2bFGGHqjIyEj27dvDnDkTSE5OYe/e62RkZH3yPXRoBI0bl1MeLnRnz96hVq2v0WjUrFv3AlFRSQwcuIxatUpz+vQo5fB8SUpK56uvdrN48TGCgyOxt9dy9+6UIphBTzLPdCebZ5vrmGfBHxeOwFDA1Hq3cIQCfz3g9Qc5qQd0Nm+YJEkFV2ITb4BbqbAiMn8bqmDuMNLczbTAL8y8C6OlHZ2TxrRTYm0nuWOhJN2r48ePM3XqVPbs2YPBYMDJyYlFixbRtm1b5VDpHjg7O1tbCj5okZGR/PXXX/zwww8cOnTIerx0aWc8PBxo3z6Q2rVLc/DgDf744yTTpj3B6NEPvlOHEIKaNb/m/PkIpk7tzPvvdyA9PQO9fhI6nZrU1I+Vp+QoLi6F3347zuef7+LWrXjS0mxfTNLTP3nAM9+pwFFFTbTevMGPZUFpVgkJqfj6TiMgwJ3du1/F0zPndU3p6Rns3HmVHTuu8PvvJ4mOTmLBgj507144O2impBjo1Wsxu3aZ3vWws9MwZkxrJk5sn6VFb86qmxPWS+Za8XjzBYkwl3B4mMtxGuXjHYGbwO/mdpPFpbJ5Jj+/X78k/adEJ95gSrq3xJg2a8npE3XRQF1n0yz2495hRJIKU0xMDCtXruTnn3/m6NGjpKVlXQimVqtJT09HrZZ/fPfLw8ODChUqcOzY/fTMzt2qVauYPXs2u3btQqvV0rp1aypU8KF/f2dq1SpFqVLO1rHPPruIihU9+OijTri5FU0/0OXLT9G3729UquTJ5cvvWo+XLz+dmzfjuHp1LBUqeFiP//XXOXbuvEpMTDKBgZ4EB0eSnm5k9+6rhIbGYzT+98qh1aoxGgVGo6BaNR/On3/bGit8wtz7PF4ZAKqa64azd/JkGPXqfQOASqVCp1Pj5GRHcnI6Hh4OxMam4OxsR1JSOikphizvTjzxRFX+/nuozbF7Yaqt/5SwsARliDZtKrJzZ87teu+NFuhirg/PjgH4yVzDXdy6AvWVByUpTyU+8bZIzIAbqaZZbDB1FXHTmnpEKzetkSSLmJgYDAYDCQkJ3Lx5E71ej1qt5vLly/j4+JCamsqFCxfw9fUlJiaGU6dOUbNmTSIjI4mNjaVGjRqcPHkSIQQ+Pj4cO3aMypUro9FouHDhAlWqVCEkJISoqCiqVavG4cOHcXR0xM/PjzNnzlChQgVSU1OJjIykevXqBAcH4+LigqurK9evX6dq1arcvHkTIQTly5cnODiYgIAAYmNjMRgM1nNatGhBWloaNWvWpHbt2vj4+FCp0n8tNfMrPj6emzdvkpCQwPnz5wkPDycyMpJLly6Rnp7OnTt3uHPnDrGxsSQlJWWbaGcnKioKT09P5WGpgOzs7GjYsCH79+9XhgrN+PHjCQsLo0ePHrz66quMHz+eUaPc72FnSFu//nqEN9/8C8wzthYqlYpatUrh5mbP3Lm9qFmzVKazsqpa9SsuXYri0KHXadTov7KWatW+Ijg4ku3bX6ZdO9Pv/ocfbmHKlNw7wLi721OzZmmGDm1IdHQy7723EYDLl9+lUqUH+Tt7LZdFqt7mDiPZ2779Ch06/ISdnYaMDJElsc5Mo1FToYIHnp4OnDoVRkqKgTfeaMGsWd2VQwtszJj1zJixB51Ow48/9qRWrVJs3BjMxx9vw2AwMmBAfRYv/p/ytELQHailPAicBDYoDxYTd2C48qAk5emhSbwlCSAlJYWbN2+ybds2VCoV+/fv58KFCzg5OXH06FF0Oh3x8fGkpKRgNOb8YvUoUKvV6HQ6tFotBoMBrVZLeno6Go0Go9GISqUiIyMDo9GIEKJQvh9OTk40bdqUl19+mZdeeomkJNNCpsjIyBK22+LD5+TJk9SrV49q1apx/vx5ZbjQ3b59m7Jly7Jp0wI6d76lDOfb6dPhtG07l+jovBe16XQaunevzp9/Dsi2TGHLlkt07vwLVat6c+HCGJtY8+bfc+BACOvXD+Gpp0wdKX777TgDBiwDwMnJjgoVPIiMvEutWqXp2DEQX19XBg8OQqNRI4TA0fEDUlIMdO9eg7VrB9s8fuFKMXfUyKlO0tlcVpG92bP38eabf9G5cxU2bXrRejwlxUBycrp1oziNRo2rq6l28rXXVvPDDwfx8XEiLGxiodSue3hMJjY2hYUL+zJoUJD1+PffH+D119egVqvYuHEoXbpUsTnv/unNSa1yIe9qczvFkuJVc5mMJOWffG9YKnFCQ0NZvHgxU6dO5YUXXsDf359KlSphZ2eHg4MDVapU4dVXX+WVV15h/vz57Nu3j82bNxMVFUVYWBhJSUmFkmSWdEajkdTUVO7evWv9Ny0tjeTkZFJTU0lJSSE9Pd2afBeUWq3G2dmZoKAgJk+eTHh4OImJiWzdupV+/fphZ/dfO6DskiipYBYtWgTA1KlTlaEH4sSJEwDUrVvw3w2LuXMP0ajRt0RHJ6HVqpkwoT0XLowhIWEyQnyKEJ8SEfE+v/3Wj8aNy5GensHKlWcYOPAP5UMB8NNP/wJk27kkPd2UxCYm/jeb3r9/fV54oQEAvr4unD49irCwiWzdOowJE9ozdGhDNBrTy9zx47dJSTG9ZTpqVEvrYzwYobkk3eT50uviYkqmW7Twtzlub6/Fw8MBT09HPDwcrEn3li2X+OGHg2g0alatGlQoSffu3deIjU3B1VVvk3QDvPZaM956qyVGo6BHj4UkJ2e/94bF77+foGrVr/jmm73KUA5SzbPbmcUCdxTHilt2ZUSSlDs54y0VubS0NE6dOsWWLVvQaDSsXLmS2NhYoqOjuXPnDvf7K6nX6xFCULZsWeLj43FyciIwMJCbN29SpkwZypQpw4ULF6hatSqenp6cO3eORo0aYW9vT1hYGEFBQYSHhxMVFUVQUBBhYWE4Ojri7+9PaGgolSpVQqPRcPnyZapXr05ysqm3rr+/PzExMej1ehwdHYmNjcXf35+MjAzi4uLw8fEhOjoaBwcH9Ho94eHh+Pr6kpBgqp90cXEhLCyMUqVKkZKSQkxMDPb29ly4cAFnZ2e2bt2KnZ0dhw8fJioqioiICFJSUrCzsyM1NRW9Xk9qaqp1xhtzQqxSqXBwMM0ceXp6olKpqFChAgAVK1akdOnSuLi44O/vj4+PD35+fgQEBOSZTHt7exMVFQVAdHQ0Hh5y5udeJSQk4OnpiVqtJi4uDnv7B19P/dlnnzFjxgzCw8ebZ2gLJjY2hTJlPiE11YC/vzt//z2UGjVyLyP54YeDjBy5lowMI7/91o/nn69nE9dqJ2JnpyExcXKW5LFZszkcPHiDP/8cwHPP/VemsWTJcQYOXEb58m6EhIyzOSezZ55ZyF9/ncPFRU98/EfKcKFITTWwZctFbt8+zt69UWzfHoW3tx29e5dh3LiKmUaWNdd5Z++ll1Ywb95h3nyzBd98k3fJSMuWP7Bv33WeeaYGa9bkPpOfmJjGxo0X2LXrKsuXnyIgwIOEhFTi41MIDPTi/PkImjYtj6OjjmXLTub4mGlpGZQtO42oqCT69avH0qX9ALhzJ5GUFNPvhMXbb6/n66/3ALB373BatAiwxrLzxBPzmDixH23aDDBvfnPV3DIw/06dCkOjURMfn0JkZBK+vi7ExaXg7u5AUJBvns9v+TM411p9ScqOTLylB8ZgMBAcHMzq1as5evQoMTEx7N27l7S0tHtKrvV6PXZ2dgQFBZGUlESdOnVo0KABWq2WNm3a4OPjg7e3dyE9oUp5KVOmjLX7hky878/EiROZNm0arVu3ZteuXcrwA1GpUiVSUpK4deve2vN1776AdevO4+Cg4+bNcbl23sisTp2ZnD4dzqJFfRk48L+Z1Pj4VNzcPqJDh0C2bh1mcw5Akybf8e+/N1m+fAC9e/+XeM+ff4QXX/yTcuXcuHEj58TbUqpSp04ZTp58SxnOkcFgRK1WZbkQiIlJ5sCBEEJCYvn116PcvBlHWFgCBsN/7yCoVCp69SrF0qX10Nlsd1w/15aCEyduYtq07axYMZBevbKrdf7P3r3XadXqB+zsNERETLLOgisZjYL584/w1lt/cfdu/tZuANSoUYrTp0dl+foBdu68Srt2c1GpVFy58i4VKnjQu/cSAgLc+eqr/961MBiM+PhMJTY2hZo1S3HmzGibx1Fyd5/Mhg1D8kzQle7cSWTBgqPMn3+Ec+dynh13drZDr9cyZEhDPvmkC3r9vSwUUwOjALkRiFQwMvGWCk1kZCTz58/n/PnzbNu2jevXrxcowVapVGi1WgIDAylVqhQ+Pj4MGDAAb29vGjZsiKNj/l7YpaJRtmxZbt827QoXExODu3vOiYSUs9OnT9OoUSPs7OysC32Lgp+fHzVrVmTz5m7KEADJyens2nWV7747wKVLUdy6FU9c3H8z4yqVCiEEvXrVYsWKgTbn5iYoaBbHj99m6dJ+9Ov334y3JYnLqVtGzZpfc+7cHX79tY+1vARg2rTtTJy4idatK7Br16s252RWuvQn3LmTSPv2ldi27WVlOFuHDt2gTZu5pKYaUKtVuLnZk56eQUqKwSbBtrC31+LubkeHDm48/7wvzZq54+2tU4zKfWElQLt2c9m58yobNw6la9ecZ8YBnnxyPn//Hczzz9fjt99Ms85KERF3adz4W65fN/W99vJy5LXXmlGlihc1apQiJcVAYmIqpUo5c/lyFDdvxjN58hbi401lPe+805ovvnhK8agmlp9n48blWL16EBUqfM6BA6/ToIHtTLDlYiKvC6To6CS8vKZy8+Z4/PxcleFsWS4qXn99tU3LSEdH0/c+NTXD2gUmI8No0+nG0VHH+PHteP/9DtZj+VMdeFZ5UJLylHuhmSTl4vz58yxYsIAGDRrg7OyMj48PY8eOZd68eVy7di3HpNvJyYkWLVrQvHlzPv74YxYtWsSePXtITk4mLS2Nc+fOsXPnTv7880969uxJ69atZdJdAqWn/1fX6eTkZBOT8sdgMNCtWzdSU1Pp3bt3kSXdycnJhIWF4ednWxoSFZXEr78eoXXrH3F2/pCuXeezY8cVdDo1gwYF8dZbLZk0qQOjR7fC8saSu7tyAVzuLMl7Robt84O7u6m8plat7Hc5tMy42tnZ9r/evt20y2e5crn3f9bpTC93mdsl5sXFRY+vrwseHg4IYZrlTkxMw2Aw4uxsh4uLnr596zJ1amfWrh1MfPxH3L7dkyVL6tKtm082SbeLOWHLXXq6KakPDMy768ru3abOKW++2UIZAuDo0Vv4+0/n+vVY7O21LFzYl8jISUyd2pnBgxvQuHE5WreuwJNPVqNhQz/69q3L22+3olUrUzkawKpVZ20eM7Nx49oBcORIKDNn7qVZs/JZkm4AFxfTzLC9fe6zy3//HYxKpaJMmfz9nKKikihbdhrDhq0gLS0DrVbNO++05vr197h7dwp3707BYPiE2NgPSUv7mOTkqRw+PJJhwxrj6elIUlI6H364heXLTykfOhc6wPR1S1JByRlvKd+Cg4P55JNPuHbtGidPniQ2Nvddw3Q6HTVq1KB+/fp4eHgwaNAgatWqVST1q9KD5+XlRXR0NJg3PZEK7r333uPzzz+nbNmynD17Fje33JPHwnL48GEaN27MwIHP8uOPDfjrr3P8+ONBduy4ilqtokmTclSq5MmYMa2pXz/7elh398nExaVQqpQzV6+Otc4u5ubUqTDq1ZuFvb2WuLgP0en+S6ItJRMtWgSwd2/WNm1Vq37FxYuRNjPeCQmpeHpOwWAwcvHiO1SunHNnHR+fj4mMvHtfPa6NRkFsbDJGo8DbO6eLzcNAouKYBvADKuRrvisw8AtCQmJJTf042xIPC4PBiE5n6mBiMHyS5ecUHZ1EtWoziIy8S6VKnhw6NAIvr/xNYgwfvpoffzwIQJkyLty+PUE5BMx/+3Z272MwGNFo1Hz++ZO8/XbWjZYmTPiHTz/dQUCAO9euvacMW/XsuYgjR0Jzrde3OHAghK5d51sv5l55pQlffvmUdXFqXpKT02nd+keOHAlFr9eSkpKfhc06oBeQuWZfkvIv72cA6bEVHh7OqlWraNmyJc7OzlSrVo2FCxeya9eubJPugIAA2rVrx5tvvsnFixdJS0vjxIkTLFiwgJkzZ9KwYUOZdD9ClC/yUsFMmzaNzz//3Lpw9kEn3VeuXKF58+bUqVOHZ555BoCVKzfh4vIhgwb9gaOjHWPHtiEsbAL79r3G4sX/IyiobI4/55deMrXDu3MnkcDAL1ix4rRyiI20tAx69FiIEIIuXarYJN0AzZv7U6mSJ//+e5PLl02LdjOzdM7I3NWkZ89FGAxGAgO9ck26MZdXANy4kfW5K7/UahWeno65JN3xil0qtYA/0NS8M2PeL7lCCK5fj0WrVeeadGNOvC2y+zm98cZfREbepXRpZ06fHpXvpJtM70yQqWQjOzExyViuu41GkWXBrIWDg+kxcv7emb72zZsvUb583mVrt28n8MQT84iLS0Gv1/LXXy/w44898510Y/6cCtbvvAIwRCbd0n3J+1ngAQkNDeW5554jPl624ylJbt++zcSJEwkKCqJMmTL06tWLffv2cffuXZtxarUad3d3unbtyrp164iPj+fatWts376db775hsqVK9uMlx492b3QS/mzcuVKJk2aBMCHH35I9ep5lx/cr1KlSjFo0CDeeOMNmjZtCsCQIUOYM2cIt29PYN26F5g+vWuuiVFmnTqZ/sbVahVhYQn07r2E8uWn8+GHW9i586rN2NRUA08+OZ+rV2MoXdqZP/8cYBPH/Djz5/cmPT2DDz/cogxnSrxNCwOnTdvO1q2XAVi27Hmbsdnp0CEQgHPnIjh16v42C8rebeA4kG6eFa0INDMn3PlfgHf5cjQZGUbr9zc3Go3pb9BoFJQvP50RI9Ywbdp23n9/EzNn7mXlStPFUI8eNbNc6OQl826VP/xgW8ucmJjGsmUnadduLqVKfWLd4MfeXouvr4vNWIuTJ03rQbTanNOO338/yd27adY+7bl54YXlxMenotGoWbt2MN263dvfUEyMqStVzjRADWAg0A/I/QJPkvJSLKUmp06d4pVXXuHAgQP07NmTypUrU7p0aezs7ChVqhTVqlWjTp06aDQFe6KQ7s3t27f55JNP+Pvvv7ly5UqOZQMVKlSgVatWtGrVigEDBuDsnL8aPOnRlLmdYE6/M1JWf/zxBwMHDiQ9PZ1BgwaxcOFC5ZAH7s0332T27NksW7aMvn0bA6ZNaAoiMvIuPj4f4+vrQosWAaxadcZm0ZqPjxNt21bE09ORdevOc+tWPOXKubF16zCqVvW2eazMnnlmIevWnefff0fQsKGf9bhlcaSjo47SpZ25di0WIQSffNKFCRPa2zxGdo4du0WTJt9hMBjR67Vs3/4yzZv/1yc7LS0jS/14/kUBp80Jd3lzi7l7e6zJk7fy0Udb8r0r5MiRa5kz50Cef4NqtYp69XxZtKhvjnX0AHfvpvHee3/bPKZer6VSJU9SUw3cvp1ASorB5uOp1aa2pdWr+3D6dNYuOabSnKnExCQzc2Y33nor+z7qzz23mJUrz/DvvyNsdi3NTsWKn3PtWgxarZqYmA9xds7/xU1mPXsuYvXqs/j6unDrVnblNPXN28NLUuEo8sT72LFjNGzYMM8nCQB7e3t8fHyoX78+zzzzDJ06dbL2H5bundFoZNWqVezYsYMlS5YQE5N9f1Q7Oztq1arFmDFjaNWqFQEBBWvtJD3aZI13wY0cOZI5c+YghGDy5Ml88MEHyiFFYuzYsXzxxRccPXqUoKAgYJ05cSyYcuU+JTQ0nvff78CkSR3YuvUSs2btY8+eayQlpdsk4gBNm5bno4865dqp4+zZO9SvP4v33mvL1KmdrccXLTrG4MG2G+8MHBjEokV9bY7lZuXKMzz33GIwv2NTvrwbgYGenDsXwZ07iZw9O5pq1XyUp+UhxbzZi+99JdwWL7ywnIULj7Js2fP07VtXGc5WYmIaU6Zs5fTpcO7cScRgMOLioufq1WhCQ7N/V9nLyxEHBx1paRl4eTliNAqSk9OtfbgtLRSz695iUbq0M82b+zN/fh98fKZSu3Zpjh17UzmMIUOWs2DBUezttVy//l62C1yNRoG9/STUalW+aq2///4AkyZtxs3Nnr/+egG1WkWVKl7WDZPyY9KkzXz88TYAvv66Ww4bKz0JZF8+I0n3osgT7zFjxjBjxgzl4XxTqVTodDqcnZ1xdXXFzc0NX19f6tatS+vWrWnTpg2urvlrQfQ4uXr1KmvXrmXWrFncunWLlJTsN8xwcHCgevXqvPnmmwwcOBCtNvcV6NLjy93dnbi4OJCJd57S09MZNWoUc+bMAWDEiBF8++23ymFFpl69epw8eTJT4v23uUyiYHbsuEL79j+BuV7W2dkOV1d74uJSiI5Owmg0bW0eGOhJ7951aNq0PA0b+lG+fO717GfOhFOhggdOTrazmDduxPHll7vQaNTUqlXaWmdeEN9/f4C3315v3cXSwsnJjoSEjwpYQqU1z3Y7me/fHyEEDg4fkJFh5O7dKfcxA/+fHTuucPFiFL/+eoTg4EiiopLy/Hv19XVhwYI+3LwZz7vvbiAtLQN7ey1eXo4EBnrRs2ctmjUrbzNzrlKNz7JwUghB//7L+P130y6pn332JGPHtrHGM7NcFAUFleXo0TeU4SwSElKZNGkz8+YdJiHBVFdvb69lzZrBeW5h/+efp5k48R+CgyPBfEF44MDrymHmEqHXAbk2SSo8RZ5437x5k9atWxMeHk5ycjJly5bF09OT1FTTH05CQgKJiYn3te23TqejcuXKdOvWjeHDh1OpUiXlkEee0Whky5YtTJs2jeDgYGu/5ezodDp69+5N165dGTBggCzxkfLFzc3NukajiJ9GHipRUVH06dOH7du3o9PpeOedd5g2bZpyWJFq3rw5Bw4c4Nq1awQE+AKzANtENL82b77I0KF/EhmZRGqq6TFUKhVOTjpq1y7D0qX9qFDhfjdXUgH38ztW17z7oalu+fr1WD76aAuHD98kOdmAs7MdP/3Ui8aNcy9v+I/GXIKQBJxTBu/Z338H8+ST82ncuByHDo1QhgtFYmIaP/54kD//NL3DYUlay5d3IyXFwNtvt6J79xqKs3JnNAq02omoVPDsszUJCPDg9u0Eduy4Yq0V/+ijTnz4YUflqVaDB//BokXH6N+/PkuW5Fxic/DgDYYPX8XZs3dsenZb+soDlC3rSt26ZShTxgVHRx1xcSm4udlz9OgtLl+OIiLCtGZJrVYxenQrvvwy+x7l0BloqDwoSfelyBNvi+3bt9OhQwfGjx+f44tQcHAwK1asYO3atVy4cIGEhAQMhoK/ODg4ONC8eXNGjRpF9+4FWcH8cAkPD+frr7/m4MGD7NmzJ8fvlUqlokqVKtSpU4ePPvqI2rVz38xBkrLj4uJCYqKpbVoxPY2UeKtXr6Zfv36kpqbi7e3N8uXLadeu+Pv/VqtWjeDgYC5cuEDVqipghXJICaE1L1CsDCwC/ku08sfTXJ/rD+wADigHFJAKqAW0NncvmacccF8sm9H89FMvhg1rrAyXaM2azeHgwRvKwzg46Pjmm+68/HLuX09g4BdcuRLN6NGtmDHjv10vAUJD4/n22/18//0Bm24rPj5ODBhQnwkT2uPgoKNTp585dOhmns9HWq2aTp0qs3BhX3x8clpM3Ez26pYeiGJLvG/duoWfnx9Dhw5l3rz8P3kZjUYuXLjA6dOnuXbtGhEREVy7do0LFy4QFhZGTEyMzcYeSlqtlqCgICZPnsyTTz6pDD9U0tPTWbBgAfv27WPNmjXExMTk+ITj7OxM48aNefvtt2nXrp1cGCndt0c58Q4NDeX69eu0aJH9piR5SUxMZOzYsfzwww8IIXBzc+PYsWNUrFgy2pC5urqSkJDAa6+9xpw5g4CdyiElQFWgPWCZLT9jrkXPz++anTlxapqp5joF+DmbHtv5VQVoA1hqwLcC/yrG3LuTJ8OoV+8bPD0diYx8v4AlLyXD8uWn+PvvYPMmQxl06lSZXr1qU7p03q83pUp9TESEqfVh69YVcHDQERmZxOHDN4mM/K88RqtV07ZtRV59tSl9+tRRPgzh4YksWXKc3buvWktk4uJSKFfOjdTUDJ58sir9+9fPpbuKjznhNnXBkaTCVmyJtxACjUZDjRo1OHPmjDJ8Xy5cuMD333/Pxo0buXLlSo4zvzqdjhYtWjBjxgwaNPhvC+KSKiEhgaVLl3LkyBHWrl1LREQEGRnZzwCpVCrKli1L7969GTRoEA0byrfLpML1KJeaDBs2jJCQEDZt2qQM5ennn39m6tSphISEoFKp6N+/PzNnzsTbO+dOHkXNctH04osv8ssvfe6pvjv/VOYEuA6wxVzykZvKQCugjDIAhACbAFNtblZqc1lJKyC7ZC/c3MElSRnIRQWgrXnxZGaLgZuKY/fGaBQ0afIdR46E8t57bZk+/fHromHpLpKTli0DaNjQj3Hj2uXYsvDeuZsvrKqbNzqSpAen2BJvgNKlS1OmTBlOnDAtvHhQNmzYwJdffsn+/ftzXFSoUqmwt7fH3d0dDw8PypYtS5kyZahVqxZPPPEE9erVQ63O6Qq5cKWmprJnzx5CQkJYv349N2/e5OTJkyQn595vVK/X06BBA5577jlefvlluchUeqAe1cQ7IyMDX19fxo8fz+jRo5XhHF24cIERI0awdetWMG8o9dNPP9G583+dOUoKvV5PWloaQ4YMYf78fsAx5ZBC4gk8rUhmooDrQCxg6sltSpg9zbOMedWDCyDUfEsw16arzP2VqwJ5Pe/FA9uBC0BO64j05guAICCnuu95wB3lwXuyZcslOnf+BW9vJ0JDx9/Hokp1Ll9TyffFF7vYuvUy6emm1o4eHg706lWbWrVKUaNGKeXw+6A1/1wrmX/nZG9uqegUa+Lt7e1NSkqK9e3qorB161YmTZrEoUOHcpwtzo5KpcLR0ZEqVarQr18//ve//91Ta0ODwcCdO3e4dOkSZ86cISQkhOPHj3Pr1i3CwsKIjY0lLc3yYpQ7tVpNlSpVaNOmDcOHD38oZu2lR8ejmnjv3LmTdu3acfny5XwtzI6KimLy5Mn88MMP1jK3Bg0asH379hJ78VupUiVu3rxJeHg4Hh7nH0CpiRpoZK6FznnXw+KVbE7eI4BocwLvBgSYa8LzSn7/AK4oD96TtLQMVq48TY8eNa07PGZPZZ55D8zUutDOfNOYZ/njgYvmry3W/HUqX1M05gQ998kc08dzBUzdix5eesDb/HMNMF8I5vZ9lqQHp1gT7yeeeIK9e/cWaeJtIYTgu+++44svvuDGjRv3lDhotVr0ej0ajcZaj6dSqVCr1TaPl56eTlpaGgaD4Z47tQA4OjpStWpVGjZsyLBhw2jYsCE6nXzykIqHpU6YRyzx7tKlCxcvXuTq1dxLIqKjo5k6dSrffPON9etv2bIlM2bMoEmTJsrhJVgY8Kvy4H3wNS9ozHmTlkfDQfPM+YOgNrcotNw8zIl2RcBBOfg+pOaSfFs+Bw2wD9idz/r6/PAAst8/4t5ZkmvLrZT5XRSHQmn1KEmFpVgT7/r163PixAlSUlLQ6/XKcJE6ceIEa9euJTIykujoaOLj44mIiCA8PJzw8HCSkvLufVoYLCUvvr6++Pv706hRI+sGQi4uhV3XJkn37lFNvP38/AgMDGTXrl3KEAAhISHMmTOHOXPmWL9+BwcHFixYQO/evR/KRXGw1Fz+cT/05lroIPNM6aMuGfjRvGjzXumA2kADwPL8ri7QFvNF57a5K8wVIOcGBlk5mZPg0uaLh3KAo7kN49/m5L+g1ObH9DXf/GS5iPTQKNbE+9VXX2Xu3LnExsbi5pb7hgrFTQjBzp07mTt3Lrt27SIsLKzApSpqtRqdToejoyNOTk74+vpStmxZAgIC6NixIxUrVqRWrVoP6Qu39LixLNBTqVT39U5OSSKEwNHRkaFDh1o3u7G4fPkyn376KfPmzbNeaPj7+/Pmm28yfPhwnJxyakv2MIgFFhZw0aGFxpxsNzcnWY+Tc8Dae5gJdjT3h25QyDPYRcFortOPyeX3RWsue/HJ43ci2bzr5zVzOYshm7IYrfmixMecZJcxJ915lQJJUslUrIl3mzZt2L17d75rKUuau3fvEhsbC+Y2h1qt1trEPyMjw/p/Jycn2b5PeuQ4ODiQkpKCRqPJsXPQwyY4OJhq1arRq1cvVqww9bb+448/+OKLLzh27Jj1Yluv1zNr1iyGDBmCnV1JnJ28F5HAKnNSlR9qc6eSlvlY0PgoOwtszOcssI854a4la4wl6TFVrIn3a6+9xg8//MDVq1fvaaGiJEnFR6fTYTAYcHZ2tpZcPOz27t1Lq1at+OSTT/Dx8WHu3LkcPnzYGq9bty6jR4+mf//+j1DCnZkROAEcyaFln6P5bf0AoKb5/5KpN/gRc6eUmEwz4Crzgs1K5mRbtqqTpMddsSbeL7/8Mj///DMnT56kTp2sjfAlSSqZkpOTcXQ0JV2VKlXi8uXLyiEl3pkzZ7Czs6NKlSrWY2+++SazZ89GrVZby2dUKhVlypTh66+/pm/fvo9RKViiYrMZ5xx6Y0u2DJmSbw85sy1Jko2iaUydA0uZhuVfSZIeDgcO/Lf19sNYJgbQuXNnOnbsyIIFCxg6dCilS5dm9uzZYC4dU6lUDBs2jLNnz3Lr1i3+97//PUZJN+Yku0ymm0y680drLikpJZNuSZKyKNbEu2bNmmDuByxJ0sMj8wx3vXr1bGIPg+joaG7fvs2NGzcYMmQIv/76K3fu/LcZyhtvvEFERAQ//fQT1atXtzlXkiRJku5VsSbeR44cASAyMrtaQkmSSqpDhw5Z7z+M6zOcnJysNdoajQYvLy8+/vhj62RAx44d8fIq3PZkcXFxD3yXXkmSJKlkK9bE2/IWtYdHXlsES5JUkly58t+OfW3btrWJPQz0ej3JyclERkZiMBiIjIxk4sSJBAQEQKZ34wrDjh07eOqppwgMDGTSpEnKsCRJkvQYKdbEuxjXdUqSdB9CQkKs9x/WGm+1Wp1lVvvgwYNg7lF+P4xGI/Pnz6dSpUq0b9+ejRs3Mnr0aFavXq0cKkmSJD1GijXxvnbtGgAxMYW9dawkSQ+SpR5aq9U+5BvH2LIk3Pfadz8lJYW5c+dSo0YNXnzxRa5evUpAQAD//PMPEydORK0u1qdcSZIkqZgV66tAgwYNAPD29laGJEkqwZKTkwGwt7dXhh5qERERYO5RXhDnzp2jd+/euLu78+qrrxIcHEy5cuUYNWoUFy5coEuXLspTJEmSpMdQsSbeJ0+eBHOHAUmSHh7p6aZd+u51ZriksrQLtPTwzs2tW7f46KOPaN68OTVr1mTFihWkpqYSGBjIokWLuHLlCl9//TV6vV55qiRJkvSYKtbEu3Tp0mDuMCBJ0sPBYDBY12c8aq1AU1NTIdOFhVJKSgorVqygV69e+Pv7M3nyZA4cOIC9vT19+vThp59+4tKlSwwcOLDAs+aSJEnSo69Yd64cMWIEc+bM4fDhwzRs2FAZliSpBLpz5471ojkoKIijR48qhzy0NBoNRqORCRMmUKVKFdzc3IiPj+fatWvs3r2bbdu22SwKd3NzY9y4cbz66quyO5MkSZKUp2JNvLt168b69evZsmULHTt2VIYlSSqBTp8+TZ06dQDo0aPHI9Wpo3Tp0jYb6WTHzc2NUaNG0b9/f6pWraoMS5IkSVKOirXUpH79+iAXV0rSQyU0NNR638HBwSb2sNu+fTsNGjTAzc0NNzc3ypUrh5eXF9WrV+fbb7/l1KlTxMbG8tFHH8mkW5IkSSqwYp3x7tq1K//88w///POPXPUvSQ+J9evX061bNwCef/55fvvtN+UQSZIkqYhkZGRw8OBBVq9eze3btzEajQghEELw+eefU758eeUpUjEq1hnvGjVqAODj46MMSZJUQmVeeOjp6WkTkyRJkorGkSNH6NChA46OjrRs2ZIvvviCxYsX89tvv7F06VJ+//13/P39adiwIRcvXlSeLhWTYk28LT1zk5KSlCFJkkooy98thbDDoyRJklQwly5dom7dujRu3Jjt27fj4OBAixYtGDRoEMOGDWPEiBEMHjyY5s2bo1KpOHr0KNWqVWPhwoXKh5KKQbEm3pZNOGSfW0l6eERGRlrvy8RbkiSpaMTGxtK3b1+qVq3K2bNnadKkCf/88w+xsbHs3buXhQsX8tNPP/Htt9+yYMEC9u3bx82bN6lbty5CCF544QVGjhypfFipiBVr4p2RkQFAxYoVlSFJkkoorVZrvS97VUuSJD14N2/exM/PjxUrVtC8eXOuXr3KgQMH8lwfV7ZsWU6cOMHQoUMBmDNnDt99951ymFSEijXxPnz4MIDsfytJD5G4uDjr/UdtAx1JkqSSJiQkhHbt2mFvb8+aNWvYu3dvgRdMzps3jwEDBiCE4O233+bu3bvKIVIRKdbEu1q1agCo1cX6aUiSVABRUVHW+7IVqCRJ0oMTEhJC+/btSUxMZNeuXdaOUvdi/vz5lC5dmrS0NF588UVlWCoixZrxXrp0SXlIkqQSLnONt+xqIkmS9GDcuXOH1q1bk5aWxq5du6hVq5ZySIHodDpGjx4NwNq1azEajcohUhEo1sTbw8NDznZL0kMmPj7eer9UqVI2MUmSJKlwJCcnU6dOHXbs2FFoG3a9/fbbODk5kZKSIvdgKCbFmvXGxsbKxLsQRUZGsn79esaOHUu7du3w8/PD2dkZOzs7dDodWq0WjUaDWq1Gq9VSo0YNecUrFVjmGm9fX1+bmCRJklQ4AgICWLduHYGBgcrQPdPpdAQEBACwdOlSZVgqAsWa9aalpSkPSQVw/fp1Fi9eTN26dfHy8sLHx4du3brxxRdfsHPnTm7dusXdu3dJT0/HYDCQkZFh3dEqIyOD8+fPs2XLFuXDSlKuLH28VSoV7u7uyrAkSZJUgvXr1w8AjUajDElFoFgTb71eL2e8CyA+Pp4vv/ySTp06Ub58eSpUqMCgQYM4deoU0dHRyuGoVCrs7OxwdHTE0dERe3v7LO3fWrVqZfN/ScpLQkICmNsKqlQqZViSJEkqwSyd5LZt26YMSUVAJYQQyoNFxcfHh5iYGAwGgzIkAUIITpw4wfz581m8eDGxsbE5loZotVrq1auHh4cH/fv3x8/Pj/bt22dJtGNiYqwL4jQajfzeSwXm4OBASkoKLi4uNvXekiRJUsm3ZcsWOnfujJOTE4mJicqw9IAVa+JdqVIlQkNDSU1NVYYeW1euXGHmzJmEhoby119/kZ6erhwC5uSnbNmydOnShZEjR1KzZk3lkGy99dZbzJo1C4DKlStz8eJF5RBJypHRaESr1SKEoFKlSly+fFk5RJIkSSrBzp07R82aNbGzs5P5VzEo1jqPuLi4x37G1WAwsH37dtq3b0/ZsmUJDAxk9uzZrFy50ibpVqlUlC9fng8//JAVK1aQkJDApUuXmDNnTr6TbsxXuhbvvfeeTUyS8nLx4kUs1+o1atRQhiVJkqQSzsnJCczr7Cylg1LRKdbE293d3Wb76cdBSkoKixcvZtKkSdSpUwd7e3s6dOjAjh07uH37ts1YLy8v6tSpw6JFi4iPjyckJISPPvqIXr163fOiiJCQEOv9559/3iYmSXk5ceKE9b5lAyxJkiTp4ZE570pKSrKJSQ9esZaaeHh4EB8fT0ZGhjJU5E6dOsWdO3fo2LGjMnRPUlJSuH79Ort27SIxMZE///yTixcv5lrTrlKpaN++PTVq1ODFF1+kQYMGyiH3TaPRYDQaUavVJeL7Lj1cRo0axTfffAPAwoULGTRokHKIJEmSVIKFh4dTpkwZMG/S4+PjoxwiPUDFmnhXqVKFkJCQYq8x+vDDD5k6dSparTbPFodhYWGcPHmS6OhoDh48SEJCAidOnMDDw4Pz58+j0+kICQnJMbnOTKVS4eDgwFNPPcWwYcNo2bIlzs7OymGFSq1WI4TAwcFBXulKBfbUU0+xceNGAK5du2btBytJkiQ9HGTiXbyKNfF2c3MjISEhx04dReH333+3KblwcHCwbjSjUqkwGAykpaVZ+2DfD5VKRf369QkICKBVq1YMGTIELy8v5bAHyjLj7ezsLGu7pAKrVasWZ8+etf5tyHagkiRJD5dLly5RpUoVAK5evUqFChWUQ6QHqFgT76pVq3Lt2rU8Z5kfpHHjxvHZZ58pD98zBwcHnJyccHFxoV27dkRFRdGtWzfat29PpUqVij1R0Wq1ZGRk4O7uTkxMjDL8ULh48SJLlizh2rVr7N69m7S0NBITE0lJScHV1ZXt27cXaMGplH/e3t5ERUWh1+tJSUlRhiVJkqQSLjQ0lHLlygFw69YtuQNxESvWxNvV1ZXExMRinfFOS0ujVatWHD582NqtQUmtVmNnZ4eTkxOlS5fG1dWVBg0aoNfr6dq1K05OTlSrVg1nZ2fs7e2Vp5coOp0Og8GAl5cXkZGRynCJlJiYyMaNG/nwww+5evVqngmfm5sbsbGxysNSIdDr9aSlpeHn58fNmzeVYUmSpIdeVFQUvXv3Zvz48XTp0kUZfujJxLt4FWviXbduXU6fPk1GRsYD3wHvt99+Y+HChaxYscLaSkcpLCyMtLQ0a8cQy5bYjo6OyqEPLUviXapUKcLDw5XhEuP69eusXbuW3377jYMHD2Z7UaTX63FycsLe3p7k5GRiY2MRQsiFow9IRkYGOp0OIQR169a16XAiSZL0qPjzzz/p06cP06ZNY/z48dbjZ86coVatWjZjH0Yy8S5exVr3EBYWhhCiSBb5LVmyhH/++Ydx48YpQ1ZlypTB398fPz8//Pz8KFu2bIlNunfu3MmGDRuUh/Mtu0S2uN28eZNXX32V5s2bU7FiRd58800OHDhg/Vz9/f1p164dK1as4MKFC6SkpBAVFUVoaCjR0dFUrlwZzHXsUuELDg62/izkokpJkh5VJ0+eBPPkoMWGDRuoXbs2Fy5cyDTy4ZR5x2G51qvoFWvibanDLYptp+vVqwfmq7uH3fvvv0/79u157rnnlKE8WbaQLwmJd1JSEr/88gtt27bF2dmZ8uXLM3fuXJtku2nTprz00kscOXKE69evs337dnr16kXVqlWVD2ftg25ZrS0VrqioKOt9WUMvSdKjat++faBIvL/55huqVKliXZT4MMvcPS2nCgDpwSnWxNvyQl4UV5CWP6CHvS71ww8/5JNPPkEIQZ8+fZThPFkWdxZ3C8cbN27g4uLCsGHD2LVrF3fv3gXz51epUiXmzJnD5cuXOXDgAD///HOePc2XL19OYmIiADNmzFCGpUJw9uxZ630HBwebmCRJ0qMgIyODHTt2oFareeGFF1i+fDkXL15ky5YtvPXWW8XeIEF6+BXrb1DLli3BvHjuQatevTqUwLdVEhIS2LVrF0ePHs2zLnn16tVMmTIFzP2UFy5cqBySJ8uMd+bt6ItDfHy8dVGtWq2mdevWfP311yQkJHD58mVee+01KlWqpDwtR6tWrUKtVvPqq6/Su3dvZVgqBKdOnbLeb926tU1MkiTJIj4+nhUrVrBlyxZlqMSbNWsWGRkZGI1G9u7dS4UKFRg2bBh6vZ7Bgwcrh0tSgRVr4p2cnAzA7t27laFC5+3tDVCiWuht3LgRV1dX2rZtS8OGDdFqtahUKutNrVbbPHGNHTsWzF070tPT6dSpEx07duT5559n9OjRrFmzJtOjZ8/SdSU/G/w8SLVq1aJ27doAGI1GXn31VUaNGnXPNfWffPIJV65c4YcfflCGpEJy584d631Z4y1JUnauXbtG7dq16d27N507d8bNzY0FCxbYjImPj+fq1as2x0qKzJ/rmDFjKFeuHLt376ZixYq4uLjYjH1YZZ7sLIo1dpKtYk28mzVrBubuIQ+am5sbZEr2S4I5c+YA4O7uTtmyZXF3d8fNzQ0nJye0Wi1CCLZv324db6kti4uLY/PmzWzdupVt27bx+++/M3PmTJ599ll8fX1zbbdneeIwGAzFnnwfP34cd3d3AIYMGcL58+eVQ/KtYsWKMhl8wEJCQqz3LSviJUmSML+L+s033zB+/Hi2b9/O7Nmz0el0xMfHM2TIEHQ6HR4eHnh5eeHl5UW1atVKZNvXfv364eTkxJIlS5g2bRrjxo1DCEHbtm2VQx8Jer1eeUh6wIo18baUO1y5ckUZKnSWBQR5lXPcr6tXr9KyZUt8fHxQq9Wo1Wrr7LWzszNPPvmk9QrTUvYSHBxMaGgoMTExxMbGkpiYyLvvvgvmHaYsAgIC6NixIwcPHuTUqVMcOXKEI0eOsGnTJqZNm4aLiwthYWG5vr2XuXzj3LlzNrGiptFoOHnyJFqtFoPBwFNPPVWsmylJubPU4Ws0GvlkLUkSACkpKXTv3p0uXbpQo0YNli5dSmBgICNHjiQyMtK6vspgMBAbG0t0dDQGg4FWrVpZJ8RKknHjxpGYmEj//v2ZNm0aixYtAmDQoEHKoQ+tzHlQ5oWWUtEo1sS7dOnSUET1xpYE+EHq06cPlSpVYt++fdbNaYQQaLVaMCcuf//9NwMHDgRz4q3VavHx8bF5HMw7TKJojTdo0CC2b99OaGgotWvXpkGDBjRo0IDOnTszfvx4/P39wVy6kZOKFSta7x8/ftwmVhzKly/PsmXLUKlUXL16NUsNXffu3WnXrh1LlizJdSZfevAsZVqyXaMkSRYGg4HNmzdz8OBBOnToYBNzdXXlxIkTHDp0iL59+9KhQweee+45li1bxtatWx/4a/L9UqvV6PV66tSpQ/PmzZXhh1bm19KSvunfo6hYE++ivtISQjywJH/SpEn8+eefAHTs2JEtW7aQnp5u/ZhGo5FOnTpBpu4QBoOB8uXL2zyOhWXmN/OVqZOTE6+88gojRozI8hadEILr169DphKe7LRp08Z6f926dTax4tKrVy+ef/55AJYtW8aECROssVq1anHw4EEGDhyIn58fo0ePtumuIRUdS13gvdbhS5L06HF2dua5554jOTmZnj17Eh4ezqRJk2zGNG7c2Jps//nnn/Tt27fEJ92YZ7+Tk5Otfb0fFZlbOMt3L4tesSbelg4bRdnir7BbAaWkpLBgwQJmz54N5lrlLVu20LFjxywzg5Y/3lq1aiGE4ObNmzz77LM2YyyUT0rfffcdLVu25LPPPiM5OZmgoCCbnSeffvppEhMTqVy5MqVKlbI5N7MnnnjCev/o0aM2seK0ZMkS61uSn3/+Ob///jsA06dPJzQ0lJkzZ1KmTBlmzpxJrVq1cHd3p0ePHnzwwQePRG/2h4HlnRTZ91WSpMwWLlyIg4MD69ato1GjRkyfPr1E7BUhZS84ONh6X5mnSA9e4WahBeTh4QFFuOGJpdY6v2rWrIlKpaJ79+7KkFWtWrUYMmQIcXFxANba7MzS0tJo3bo1d+7cQavVMmfOHK5du0Z0dDRBQUHK4ZCp60h6ejqRkZGMHTuWUqVK4erqytSpU7l27Rq+vr7Y2dmh0WjYuHEj9vb27NmzR/lQNjw9Pa0zlkV5wZMfhw4domrVqmRkZDB06FBrFw1PT0/eeustzpw5w549e6hatSpJSUmsXbuWqVOn4ufnh4ODA+3ateOdd97hgw8+4MyZMw+8nv9xI0t9JEnKjkajsdZC37x5k0qVKmWZPCrp4uLiin1/i6JieaddznYXj/xnoQ+ApWa0qBJAIUSBOnmEhoaCuSTjzTffVIbBvBFMZvXq1aNOnTo888wzPPvsszz77LN4eHiwZ88ea4JcunRpTpw4AZBj4m2pfz9w4AANGjQgKSmJ1157DYCRI0eyYcMGqlatipubG66urlSvXp3g4GDrebmpUKECmBOpkjRbrNfr2bRpE66urqSkpNCwYcMs9eotW7bkwoULxMTE8NFHH9GhQwccHBxISUlh586dfPXVV0ydOpXatWvj7OyMm5sbHTt25L333mPKlCnMmTOHixcvFuj3QDKxPElbLpglSZIsnnvuOY4dO8Y777zDwYMHleESSwjBu+++i7e3NyNHjlSGH0mWCwy5EVoxEcXo8OHDAhDPPPOMMvRAAMLOzk55OEdBQUECEIBQqVRi7ty5yiHCzs5OAKJx48bWsdnd1Gq1WL16tfW8kJAQ8cEHHwij0WjzeBYhISE255cpU0Y55J6NHTvW+rgffvihMlzsNm/eLFQqlQBEv379lOEsUlJSxMKFC8WUKVNE7dq1hUajyfL9V950Op1wcnISVapUEaNGjRI//PCDWLBggbhy5Yry4SUzy+96uXLllCFJkqSHzsGDB4Wfn5/A/Bq/du1a5ZBH0m+//SYAUapUKWVIKgLFmnhv3LhRAKJu3brK0AMBCL1erzyco7feeksAIjAw0PqH+dlnn9mM0ev1AhDh4eEiOjpaDBgwQFSpUkXUqFFD1KxZU7Rp00aMGTPG5pz8WrJkiWjUqJEICgoSd+7cUYbv2cGDB60JaLNmzZThEmHBggXWzzHzBUt+GI1GceHCBfHVV1+J5s2bi9atW4vy5ctnSb5zuvn6+oquXbuKp556Snz99dciNDRU+SEeS66uroIi/HuVJEl6EE6dOiWaNGlifc53cXERK1euVA57ZE2YMEEAwt7eXhmSioBKFOMKiCNHjtCoUSN69erFihUrlOFCp1KpsLOzy3cd144dO2jfvj01atSgefPmzJs3D4DatWuzdOlSateujZ2dHenp6YSHh+e6qLGk0Wq1ZGRk4OLiYrPCuSTp2bMnq1evRq/XExoaipeXl3JIgcTGxnLq1CmuXLnC0aNHWbVqFcnJyURHR2cpaVEKCAjA19eXwMBARo8eTf369R+7RSn29vakpqZSrly5LCVWkiRJJVl6ejrr169nzpw5bN68Gcy16a+99pp1H4zHxbhx4/jss89wcnKy2cVSKhrFmnj//fffPPnkk9SrV69IekqrVCp0Ol2+N2lJS0vD3t4eNzc3YmJimD59OhMnTrQmaZaNXzAvhnyYErFSpUoRERGBSqXKM+ksLgaDgcDAQEJCQqhRo8YDayOYnJzMqVOnWLx4MfHx8Zw/f56jR4/m2nrS3d2dZs2a4e7uzpAhQ+jYsaO19/qjytXVlYSEBOrUqfPItdeSpAclNDSU7777jtq1a9O/f39lWHrAIiMj+fzzz1m4cKG1E5i9vT3du3fn559/xtXVVXnKI+/rr7/m7bffpnr16sW+kd7jqFgT71OnTlG3bl26du3Kxo0bleFCp1Kp0Gg0BVpY5+npSVJSkrWjw5UrV3j++ec5fPiwNWF95plnWLNmjeLMwrdt2zZ++eUX/v33X+vuX0IIm82BMif/RqMRg8FAUlKSzddsme22/OiL8VcgTyEhIVSuXJn09HT++usvunXrphzyQBgMBv766y8uX77M4cOH2blzJ2FhYcphVq6urrRp04a2bdtSuXJlunXr9sgl4pYZ7/Lly9tsHy9JUlZCCHr16sWaNWusG6mlpqYWqLOWdP8mTJjAp59+ikajoUGDBlSuXJkFCxZY2xk/jqZPn8748eOLbNJTslWsiffx48cJCgqiYsWKRbJtvKWdYEHazL300kssXryYlJSULO2Rzpw5g8FgoF69ejbHC0t0dDSzZ89mw4YNHDt2LNcZ2HtV0AuR4jBz5kxGjx5N9+7dWbt2rTJcZI4cOcKePXs4evQoO3bsyDX5tLOzo127drRq1Yo2bdrQpEmTh34FuWXGu3bt2pw6dUoZlqRHwpw5c5g6dSrx8fHodDqGDx/O9OnTlcPyVKtWLeu7dFqtlp9++okhQ4Yohz0Wbt++zcWLFzl79iz79u3D39+fixcv4uLiQmBgIG+99Rbjxo1j2bJlYN5vYubMmXh6eiofqsBu377NqlWr6NGjBx999BExMTHWze4eV+PHj2f69OnUrVvX2mFNKjrFmniHhoZSrlw5GjVqxL///qsMF6qDBw/SrFmzAieae/fuZc2aNXz++efKUIGFh4ezadMmLl++jE6nQ6vVotfrUalUxMXFkZCQwMWLFzl37hzh4eHW3uDZ0Wq1NjPdllkU5cWBZVZep9Oh0+nIyMiwzoCrVCoGDhzIggULbM4piZo1a8ahQ4cICQmhXLlyynCxOH36NHPmzCE8PJw9e/ZY+47nJCAggO7du9O8eXNatGhhbev4sLDMePv7+1t3SZWkR8krr7zCTz/9pDzMW2+9xcyZM5WHc9S7d2/ruqXy5ctz+PDhh2oN0P1KT09nzZo1fPnllyQkJORZJqjX60lLS7N591Wj0dC+fXveeecdm43f8pKWlsaGDRuy3Zyubdu2tGjRgk8//VQZeqx07NiRbdu24enpSVRUlDIsPWi2ay2LVnh4uACEj4+PMlToOnToIABRoUIFZeiBSEtLE7t37xZDhgwRlStXzleLu5xuGo1GlC9fXgwePFhs3749xxaEj7IzZ86I6dOnC4PBoAyVCEajUZw6dUq8/vrromLFitYOILnddDqdqFKlipg0aZJYu3atuHXrlvJhSxQnJycBiBo1aihDkvTQ+/HHH61/m4GBgWLkyJGiRo0a1mNHjhxRnpKtJUuWWM/x9/cvsc9ZD8KpU6dEhw4drK1HLTcvLy9Rt25d8corr4i+ffuKiRMnir59+4pBgwYJZ2dnm7GvvPKK8Pb2tjnm5uYm3n77bXHu3Dnlh7Rx8+ZN4ebmJhwcHLJ9nfT19RW//PKL8vBj55VXXhGAqFWrljIkFYFiTbyTkpIEICpVqqQMFTqdTicAMXHiRGXoviUnJ4t9+/aJDz74QPTo0UN4e3vfc6KtVquFu7u7aNiwoRg6dKg4ePCg8sNJD4GMjAxx8uRJ8e2334q6detaf//yunl5eYly5cqJgQMHil9//VX8+++/IjExUfnwxcLSOrN8+fLKkCQVidTUVDF69GixYMECZei+VapUSQCiZcuW1mMGg0F4eXkJQLRu3dpmfHbS09Otf+v29vYiKipKOeSRk5GRIdauXWvTslWj0Yh+/fqJ6dOni9u3bytPsfHOO+9Yz8v8vd+4caNo0KCB0Gq1Ns+RVatWFS+99FKWNq8nTpywJuzDhw+3iQkhxIULFwQgvv/+e2XosTN+/Ph8/05Lha9YS00sCwOdnZ1JSEhQhguVWq1GCEFiYiJOTk7KcBbXrl3j+PHjhISEcPPmTcLCwjAajcTExBAVFUVsbCwxMTHExsaSnp6e4wJFlUqFk5MTZcuWpXbt2jRv3pxmzZphZ2cHmRZD+vr64u3tbT0uPXouX77M/v372b9/P2vXrs33jq0qlQpfX19UKpV1V9Tq1atTs2bNfO1UWlhcXFxITEykZs2anDlzRhmWpPuSkpLC6tWrCQ0NZfHixbi4uHDp0iU8PDyYNWsWHTt2tK4LAnjnnXf47LPPCmWxYnh4OGXKlEGlUnHnzh28vb2tMctCNJ1OR0pKSpaPl5aWZn3e/uSTT3j//fcBWLlyJT179rQZ+ygxGAzMnTuX999/n5iYGDQaDZUrV2b69OlMmDCBzp0788033yhPs7Fw4UKGDBlizQXS0tKydAeLi4vjyy+/ZOHChVnW1ZQpU4aRI0fSpk0bnnvuOSIiInJs1rB161Y6derErFmzeOONN5Thx4plwWnr1q3ZtWuXMiw9aMpMvKi5uroKnU6nPFzoLDshZrcRTXh4uPj2229Fhw4dhJeXl3VsQW8qlUo4OzuLunXripEjR4qFCxeKpKQk5YeTJCGEEDExMWLz5s3i008/Fb169RL+/v5Zfqfyurm7u4uyZcuKmjVrigkTJohFixaJ/fv3Z/t7fr/kzpVSYbp8+bL49NNPxYABA4S7u3uO7xKq1WrxySefWM/LvPNu7969RXJyss3j3ouRI0cKQDRq1EgZEklJSdbXhBUrVtjENm/eLBwdHa1lYk8//bTAPONbVP755x8xYcIE5eEH6vfffxeenp4C8+6HAwYMsM5sz549W6hUKvHvv/8qT7NhmXW13BwdHZVDsrh586YYOHCgqFixYpbfE0C0b99epKenK08TItNujePGjVOGHjt9+vQRmEuhpKJXrDPeAD4+PkRGRpKcnIy9vb0yXGicnJxISkpi/PjxTJs2jRMnTjB9+nT++ecfYmJilMOtLJ1Q1Go1Go0GjUaDs7Mz3t7eeHt7U7lyZVq0aEGVKlVo1qzZY92iSLp/165dY/ny5aSlpXH+/HnOnj3LuXPnSE5OVg7Nk4ODA2q1mlq1atGhQweqVq1qvfn4+CiH50nOeD/arl69yuLFi4mOjubAgQOkpqaSkJDA008/XaCFhTnZtGkTP/zwA/v27SMyMjJLdymtVourqyudO3embNmytG/fHl9fX2rVqpWlI9D333/PG2+8QUZGBlWrVuX333+3zoQrXbp0icDAwCwLzzMbNmwYv/zyC6NHj2bGjBnKsHVh8dKlS+nXr5/1+GuvvcaiRYuIiopCr9fz5JNP8vfffwPwwQcf0KxZM5ycnPD19cVoNOLm5oarqyuOjo6ZHv3+BAYGcuXKFVxcXChTpgyurq4kJyej1WpJS0vDaDRiZ2fH119/TadOnZSn35MGDRoQERHB+PHjGT58uPVdgOjoaKpXr84TTzzBokWLlKdZvfDCCyxcuBCAKlWqcPHiRezt7Xn++eepWLEi+/fvp3Llyly7do2yZcvi6+vLM888Y/MzPnLkCF988YW1Ewrm1+u6deuyYsUKAgMDrccBPvvsM8aNG8fAgQNz/dweB5bf01KlSll7m0tFSJmJF7UKFSoIQJw/f14ZKlRt2rQRmGdPlDVjmBe6BQQEiAEDBoiff/5ZXLly5bFaFCOVXBkZGeLcuXNiypQpYvz48eL5558XQUFBwtHRMcvvcX5vGo1G+Pj4iIEDB4qPP/5YLF++XJw6dUqkpqYqP7yVZcbbz89PGZIeQufPnxfDhg0Tffv2FeXKlbP5/dDpdKJNmzZi+/bt4u7du8pT70m9evUE5ncG7ezshJ+fn6hcubLw9PQUn376aa6/e9lZt26ddd0BIHx9fcX48ePF33//LQ4dOiT+/fdfUb9+fQGI7du3K0+30blzZwGIESNGKENCCGF9zfj5559tjleqVEl069bN+v8VK1Zk+VvL6Va6dGnh7+8vunfvLubMmSOio6NtHju/Fi9eLFxcXLI8vvLWoUMH5an37MKFC2LAgAFZFjt2795dqFQqcf36dZvjmY0aNcr6ORXk3WWVSiWqV69uXTR56NAh4ebmJjDXffv6+tqMVf4sLdukd+rUSaxevdom9rgZN26cAESLFi2UIakIFHvi3apVKwGIY8eOKUOFas+ePVn+kL28vMTAgQPF4cOHlcMlqcTLyMgQV65cEZ9//rkYOXKkePXVV0XHjh1FhQoVcnzbPj83d3d38cQTT4i33npLfP/992LNmjXi9OnT1k4ttWvXVn4q0kPg7t27Yvr06WLYsGGicuXKNj9zrVYrmjRpIp5//nmxbNmyAifB+XH9+nWh0WjEmDFjrMc++OADAYjjx4/bjM2vlStX5pl0qtVqkZKSojzVxpAhQwQgPv74Y5vjRqPRWoYCiHnz5lljmzdvFoD44osvbM6ZOXOmKF26tNDr9UKv1+c7udRqtaJXr142j1UQCQkJ4vDhw2Ljxo3izz//FJs3bxbffPONmDx5cq4doQ4cOCCCg4OVh/Nl2bJlYtmyZdb/BwQECHd3d5sxSpZJMEA4ODgId3d3gblzydixY8V3330nBg8eLCZPnixeeOEFMXDgQJsyvGvXromVK1dav699+vSxlpfMnj3bZiH7559/bv24L7/8ssCclDdu3DjTZ/T4sSTerVq1UoakIlDsiXfTpk0FIH766SdlqNCFhISIb775RkyfPl1EREQow5L0yEhNTRXHjh0TH3/8sfj444/FsGHDRNu2bUWZMmWyvOAX9Obo6CjeeecdMXXqVHHp0qVs23Y9zPbv3y+mTJmiPPzApaaminXr1only5eL3377TURGRiqH5GrAgAGiQoUKIiEhwXrsxo0bYujQoaJTp042s8MqlUrUrVtXdOnSRfzxxx825zxIgwYNEo6OjsJgMIiMjAzh7+8vGjZsqBxWYPPmzRO1a9fO8m6mSqXKMkudnW7dugkUNa+bN2+2mUWtXbu2yMjIsMZfffVVQTaz4Dm5e/euiI6OFpcuXRJ///23+O2330TXrl1FzZo1bZLz/fv3K08tsPXr14tnn302259rRESEmDJlinj66aetvxP301bu4sWLYtCgQSI2NlZ4enqKatWqKYdkcfnyZWu3JkvNfm5tStPS0qzfn5EjRwq1Wi3UarXo37+/cqhISEiwdlhp06aN9fiGDRusj7Fo0SKbcx43sp1g8Sr2xHv48OECeCDtoSRJyio2NlYsW7ZM/Pzzz2L8+PGiV69eombNmkKtVltfmApyc3FxEc2aNRMdOnQQ/fv3F//880+eLcRKsrFjx4rAwEDl4Qfm3Llzok2bNtnOjC5dulQ5PEeWmb7GjRuL6dOni7p169r8TD08PES9evXElClTiq1nfEREhFCpVOLjjz8W8+bNE4CYM2eOcth9SUpKEm+99ZYAxPLly5XhbAUFBQnMM4AzZ860lkBiTt5btmyZZRFn165dBSA++OADm+P34quvvrJ+vN9//10ZLpBTp04JlUolgoKCRMuWLUWHDh1E3bp1Re3atbMtT/P09MyyaLSgrl27Zv19q1ixojKcK8tFT9OmTZUhq969e1t/Fpj3/ti8ebNymFVKSoqYMWOGOHHihM3xgwcPiiVLltgcexxZ3nXw8PBQhqQiUOyJ94ABAwQg3nzzTWVIkqQilJ6eLnbv3i1WrVolpk+fLl588UURFBR0z2Urbm5uonTp0qJ9+/bixx9/FPv37y8xPclz88ILL2Rb+7hmzRrRu3fve67Fzc7ChQttZqJ1Op3Q6XTWBMPX11d5So4CAgKy/AwqVKggnnjiCbFhw4YcSw2KWoUKFUS1atVE1apVBVDo7z5OmjRJAOKFF15QhnKk3MTFcqtatapYtWqVcrgQQoguXboI4L46ioSEhIimTZtaf95arfa+OxLt3LkzywY2ylupUqVEhw4dxLp163LsAlJQBw4cEICoWbOmMpSrnj17CkC0bdtWGRIiU8cZy61Fixbi5s2bymFSAbz55psCEEFBQcqQVASKPfGeNm2aAMTkyZOVIUmSSojQ0FDrbJmHh4coVapUlrf183vT6/Wia9euYurUqWLevHni9OnTyg9XrDp16iR69OihPGy9ALG3t89XDXR6erqYPn262LJlizIkhBBi06ZN1oSrcuXKNjsjWt4JtLe3tx574oknxA8//GD9v1KnTp2s3+PGjRuLZcuWibNnz9rUuZYETz75pFCpVEKv1xd6O7OkpCRRpkwZodfrRVhYmDKco8wlWCqVSjRr1kx89913ymE2nnjiCYF5Q6mCJq/Xr18Xffv2tbno8vT0FAcOHFAOvSdpaWni119/FdOnTxdTpkwRo0aNEjNnzhRr167NdeHj/cJ88ZiWlqYM5ah169YCc5vSzBfmly5dEoGBgTY/lzfeeCNff3tS7t577z2BYsMiqegUe+L99ttvC0AMHjxYGZIkqQTJro/39evXxfr168WUKVNEtWrVhKenZ7536cx88/X1Fc8884wYPHiw2LFjR4ETmcLk7Ows6tSpY3MsPj5eYF6oB4i+ffvaxLOzdetW6znKXfaMRqP1QqZnz55Z6uRbtGghMJfxWAQEBIh3333XZpxF5h0WAWu3iUWLFglnZ2fl8GI1ZswY6+dZv359Zfi+PP/884J7KP/Ytm2bwNwHOnMdd25CQ0Nt3pn49ddfc004Y2Njxbfffit69epl8y6Sg4ODePnll0vMOxL3w/L9OHXqlDKUo9dff936vcA8668suxo1alShddeR/tsttEmTJsqQVASKPfG21Lbdz9t1kiQ9eJauJvXq1VOGbKSlpYlTp06Jb7/9VrRv3140a9ZMlC1b1uaFNK+bVqu1dh364osvRGxsrPLDPDA6nS7Lgr+EhASBuQWcSqUSWq02z0Vw0dHR1gSia9euNrGFCxcKzG/5Z06609PTRcuWLa3fh8yLx3JLvIW5w4flvCtXrghh3lwFKFFJy65du6yfZ25fT0GlpKQIR0dHoVKpClzDbjQaha+vr/D29s534i3MrfEyJ9EajUZUrFhRVKpUSVSoUEG0b99e+Pn5CR8fnyzJpFarFUOHDs12AeTDyGg0Wr+2gtZRv/HGG9m+g1alShWxbds25XDpPrVv315g7uwmFb3732v3Pt26dQsg39tnS5JUPFJSUgCIjIxUhmzodDpq167NiBEj2LZtG/v37yc0NJSIiAhmz57NG2+8wfPPP0/58uWVp1oZDAaioqJYvHgx7777Lu7u7tjb2zNixAjl0EKXkZFh3QLcwrIxlpubG++99x4Gg4Hu3buTlJRkMy4zDw8P/P39Afj3339tYlFRUQAEBQVZN3aZPn06er2evXv3AtC0aVN+/fVX6zl37tzh+PHj1v8rrVmzBgC1Wk3FihUBKFWqFJjPLSnq1KljvV+mTBmb2P346quvSEpKonfv3vj6+irDuVKpVHTq1InIyEiuXr2qDOfo66+/5p9//qFSpUpoNBoyMjK4evUqV65c4dq1a2zfvt36uy+EQKVS4e/vz9KlS0lMTGTevHk4OzsrH/ahlJaWZr1veV3Pr1mzZpGens6JEyc4e/Ysx48fJzQ0lODgYNq3b68cLt0ny9+dq6urMiQVgWJPvP38/ACsL1CSJJVMlt0D72XXywsXLrBhwwaOHj3KqlWrWLp0KTdu3FAOy1Vqaipz5szJNfm8XxkZGRiNxiy72er1euzs7HB3d2fq1KnUrFmTyMhImjdvjtFotBmbmSUBTE1NtTlepUoVMH9PU1JS8Pb2Zvz48dbHevnllzlw4IDNTrgGg4FTp05Z/59ZUlISv//+OwA1atSwHo+Pjwfgjz/+sB4rbu7u7tadDi0Xc4Vh7ty5ALRt21YZypfJkyczZ84c60VLfnXs2JHLly8THh7ORx99xDfffMOgQYPo0aMHY8eOpUuXLrz77rscPHiQu3fvcv36dfr164der1c+1ENNp9Oh1WoBaNiwoTKcL3Xr1qVGjRrUq1ePsmXLKsNSISlXrhwU8oWvVADKKfCiZtnFauDAgcqQVAySkpLEpk2bxKxZs8Qzzzwj6tevL8qUKSOcnJyEnZ2dsLOzE1qtVmg0GqFWq4VKpRJqtVq4uLjkuPpfejQod65MTEwUS5cuFZMnTxZdu3YVVapUERUqVBCOjo7Czs7O2mvXclOpVFnebr+X271u9pEfycnJAnM3EKUqVapYN96IiooS9vb2AhAvv/yycqiVZeGYm5ubzfH4+HihUqlE165dbWqedTqdWLdunc1YCx8fHwFk6TGekZEh6tatKzAvQMvcZu3GjRsCEI0aNbI5p7hZ2vXl1hKuIJKTk621wUVZliTZ2rFjh3jvvfeUh6US5t133xWAaN68uTIkFYFiT7w///xzAcg/1mIQEhIivvvuO9G+fXvRpEkTYWdnd1+Jkbe3t/JDSI8QS423u7u7cHR0vOe+3/dy0+l0okaNGuL7779XflqFKi4uTqDYSMWidevWonz58tb/Hz9+3NqGrmvXriI+Pt5mvBDCukNkdm0By5YtKypWrCiOHj0qPD09RYMGDXLdYfGPP/6wfj98fX1F8+bNRcOGDa0/F7KZwDAajda/6aNHj9rEilNERESO3V7uhaWVnV6vV4YkSVKw7NRatWpVZUgqAsVeamKpPSxoTZiUf3Fxcezfv58vv/ySFi1a0LBhQ3Q6Hf7+/owYMYLt27dz6NAh0tLSMHWEujd3795VHpIeUhkZGRw+fJjPPvuMwMBA3N3drWULsbGxJCUl5VhioVKp0Ol02NnZYWdnh1arRa1Wo1arrfXMln9zo9Fo8PT0ZMSIESQlJXH27FmGDx+uHFaoMjIywFzWoVS3bl2cnJys/69Xrx7z5s3D0dGRv//+m9KlS9O/f39+//13Nm/ezMSJE7l8+TJAtnWqNWrUICQkhLp16xIVFcWRI0dyLT/o06cPU6ZMQaVScfv2bfbv38+RI0esP5f//e9/LFq0yOYclUqFm5sbAB06dLCJFSdvb286duyoPHzPDhw4YL3/4osv0qZNm/t6LpOkR9nFixcBCA8PV4akIqASxfzs9O233/LGG28wbNgwfvrpJ2X4kRMVFcXFixfRaDQcPnwYgOTkZGJiYlCpVISFheHu7s7du3fRaDRotVoSExPx8PAgISEBDw8P4uPjcXZ2Jj09neTkZAwGA3fv3iU5OZm7d+8SFhaGVqvlypUrGI1G4uLilJ9GjnQ6Hb6+vnh5edG5c2fKli1Lhw4d8PLywtXVNctCoEOHDtG0aVMwL9QoyMeSSo5bt26xe/duli1bRmxsLLt37842+bRQqVT4+PhQt25d/P396dOnD97e3tSoUcMmOc1LUlISly9fJiIigjt37qDVanF0dKR9+/bWmvKiFBERQalSpfDw8CA6OtomZjQaMRgMWRZeRkRE0KRJE65du2Zz3MLR0ZGwsDBcXFxsju/evZsTJ04wcuRIm+N5iYiIYMKECYSFhREXF4dOp2P27NnUrFlTORSAmTNnMnr0aJydnUlISFCGHwkzZsxgzJgx1v+PGzeOTz/91GaMJEkmI0aMYM6cOdSpU4eTJ08qw9IDVuyJ96xZs3jrrbfo2rUrGzduVIYfKmlpaZw5c4abN2+yefNm9u/fj6urK8HBwYSFhWE0GnOcJSxqKpUKvV5P27ZtKVWqFL169aJ169Z4eXkph+bq8OHDNG7cGAAvL688O15IxSc8PJzIyEguX77M6tWrSU1N5ezZs5w8eTLP30uNRoMQAqPRiI+PD9evXy+WxPhBsyTeer2ehIQEm8WNeTl48CATJkzg/PnzJCUlkZ6eTkBAAFu3bi32RUzfffcd9erVo1WrVsrQI8FgMPDSSy8RFxdHu3btGDVqlHKIJElmY8aMYcaMGTRp0oSDBw8qw9IDVuyJ9/79+63lD5YZ4MJy+fJl1q1bB+aZXGdnZ3Q6HZ6enrRt2xZ7e3vlKfl2+/Ztzp49y4oVK9i+fTtCCIKDg0vk25sODg44ODjw5JNP4uLiQvfu3WnTpk2W2et7kTnxLlWq1EP31tXdu3dxdHTMV+lDUUhISCAuLo4LFy7g6upKWloacXFxnD59mnLlyqFWq7l48SLXr1+nWrVqGI1GTp06RUpKCuXLlyc4OJizZ88SEBBAQkICly9fxs7Ojri4OJt2X3nx8PDAw8ODF198kSeffJJ69erh7e1NbGws9evX59ixY8pTHgnp6ek4OTmRkZHBjRs3ZGcFSZIeOTLxLl7FnnhfuHCB6tWr4+/vz/Xr15Xhe/bcc8+xcuVK5WEber2eypUr069fP2rWrGmd1dPpdOj1etRqNTdu3CAxMZEDBw4QGRnJiRMnuHv3rrWusqC0Wi0qlQpfX1/S09NxdnbG3t6e9PR0fHx8iI+Px97enrS0NGtrJqPRiFarJT09HQcHB1JTU9HpdNjb26PX6609ju3s7AgMDCQ1NZV27dqRnp5Os2bNcHR0VH4ahebgwYM0a9YMgNKlSxMWFqYcUiIlJCRY35GwfP4PQlpaGjdu3GDXrl3WcqIbN26wadMmNBoNTk5O3Lx5k9DQ0DxnnR8EtVqNXq+nYsWK9OjRA3t7e/r27Uv16tWVQ3FzcyM+Pp66dety4sQJZfiRIYQgKSmpQCUzkiRJD4sePXqwdu1afH195fq6YlDsiXd6ejp6vR5XV1diY2OV4XuSmpp6X7PZ90Or1VK1alVq1apFamoqTz31FLVq1cLd3Z1KlSo90CS4OISEhBAQEACAp6endWOQkioiIoJdu3ZRtmxZmjdvrgzfk7S0NE6cOMGePXtIS0sjODiY9evXExcXR2pqarG9C2K5SPP29qZChQpER0dTpUoV2rVrR1JSEs2bN6dVq1b5TjAtPacDAgJyrGeWJEmSSrb27duzY8cO3NzcCi3vkvKv2BNvzDPPGRkZpKenF8pb/kIInJycSE5OVoZQq9WY2ygqQwWiUqlwcXGhY8eO2Nvb06dPH1q1anVPm4s8zFJSUqy1vjqdrkDlDEXpzz//ZNu2bdSpU4dhw4YVqHbXIjExkQsXLnDmzBk2bdrEzp07rR0mcluImB1LjX2lSpVwcXEhPDycihUrUqdOHezt7bl8+TJBQUH4+PigUqm4fPkytWvXpkyZMiQlJREfH2/dKCU6Ohq9Xk/58uVxd3e3llQVNl9fX8LCwujQoQNbt25VhiVJkqSHwAcffMDUqVMLvdJAyp8SkXhXqlSJq1evcu3aNevs6f26ffs2s2fP5tatW9b61KeffhpPT08wt59avHgxa9as4c6dO2RkZNi0OlOZW6JpNBq8vLxwdHSkVatWuLu789xzz1G/fv0Hktw8jJycnKxbZ4eHh1u3qS5uBw8eZNasWezdu5cOHTrw5ZdfWn/+eUlJSWHNmjXs3LmThIQE9u7dm++tpO3t7XFzc8Pe3p6nn36aSpUqoVarKV++vDV5dnd3V55W4tnb25OamiqfrCVJkh5iX3zxBWPHjpUNEYpJiUi8a9WqxdmzZ9m8eTOdOnVShqUSrk6dOpw+fRqATz75hAkTJiiHFJn9+/czadIka1/yjh07MmPGDKpVq6YcaiM8PJxNmzbx448/kpCQwPnz53OdvVer1djZ2VGnTh1at26Nn5+fNdH29/cvlHduShoPDw9iY2Np0KABR44cUYYlSZKkh8APP/zAa6+9hp2dHampqcqw9IAV+wY6AA0bNgTg6NGjypD0EOjcubP1/pYtW2xiRSEpKYkxY8bg5eVFixYt2LdvH8OHDycsLIz169dnm3RfvXqVBQsWEBQUhJubG2XKlGHw4MHs3buXkydP2iTdpUqV4qmnnqJbt2589tlnHDt2jKSkJJKTkzl06BBfffUVb7/9Nq+//joBAQGPZNKNef0C5pIiSZIk6eFkeYc6LS1NJt7FoEQk3pad1a5cuaIM3bN169Zx/Phx5WHpAejRo4f1fmG3hMxNamoqb7/9Np6ensyYMYOUlBTGjBlDTEwMn3/+ubWcQwjBmTNn+Pnnn3n66aettdVDhgzh+PHjNh1q1Go1VapUYeLEiaxatYrg4GDCw8NZv349f/31F2PHjqV+/fq57jD4qLJsvnL79m1lSJIkSXpIpKenW+/HxMTYxKQHr0SUmqxYsYLevXvTqVMnNm/erAwX2O3bt/Hz86NmzZrWEgjpwbKzs7P+MUdHR+Ph4aEcUqgWLlzI6NGjrQsL33zzTT799FM0Gg2Y21SuW7eOEydO8Oeff2a70BbAx8eH0qVL8/rrr9O6dWtq1qyJWl0irkdLnHLlyhEaGkrnzp3ZtGmTMixJkiQ9BNauXWudMAsNDZX7FRSxEpFhlC5dGswb3hSG2bNnI4SgfPnyytBjIS0t7Z77jGNeWFhQVatWtd6fNWuWTawwpaSk0LVrV4YMGUJcXBxDhw4lISGBzz//nG3bttG7d28aNWpE9erVeeedd1i0aJE16dZoNAQFBdGyZUu++uorQkNDuXPnDqdOneK1116jdu3aMunOhaXtVEhIiDIkSZIkPSTs7Oys93NbyyQ9GCUiy2jWrBlqtbrQ3sJetmwZAP3791eGHguBgYG4ublRrVo1du3aVaDWic2bN8fLy4ubN28qQ7nq1q2b9f62bdtsYoVl7dq1eHh48M8//1C+fHkOHz7MoEGDaNGiBd7e3nTp0oUVK1bYLPxr2rQpY8eOZe7cucTGxnL06FH27NnD22+/La/yC8jye1QcG/1IkiRJhUMm3sWrRJSaALi6upKQkEBCQsJ9bWWekJCAq6srWq2W5ORk64Kwx4mXlxfR0dHKw2BeIBcaGppty7+XX36Zn3/+GbVaTVhYWIF6kh89etS6SLYwN9IxGAxERkby3HPPsW/fPtRqNW3btsXb25tVq1bZ9M9WqVQ4OjrSp08f+vfvT/Pmze/rd0myZenj3bZtW3bs2KEMS5IkSQ+BnTt30q5dOwCOHz9OvXr1lEOkB6hEzHhj7uUNcOrUKWWoQA4cOADm0ofHMenGvFhVp9PRs2dPPD09rf3IMSeyq1evVp7C+fPn+eWXXwAYMmRIgZJugKCgIOvHiI2NLbRZ0cGDB+Pr68u+ffvAPNu6fft2li9fjsFgQKfTERQUxHvvvceNGzdITExk/vz5dO7cWSbdhcyyCKcwF0FLkiRJRSvzNvHBwcE2MenBKzGJt2WL9/xuUpKTuXPnAtxXfXdycjLffPMNN27cUIYeCpY65ZUrVxIVFUVaWhpRUVHW45m7kABkZGTQrFkzhBD4+flZE/CCUKlU1u40RqORsLAw5ZB7MmDAAOumNyqVCmdnZypVqkTPnj35448/rOUj06dPx8/PT3m6VIgsP9/C2uRKkiRJKnr+/v7W++XKlbOJSQ9eiUm869atC3DfO+JZFoD16tVLGcqTEIIlS5ZQrVo1fv/990Lpx5yens6vv/5K06ZNWbNmjTJcIAsWLKB169Y0adKEli1bMnz48Gw3MnFzc8vS7u6LL77AaDRSsWJF62JWiylTphAXF4dGo7HOLN+LzLPku3btsondq6effpqTJ0/i6emJEILExERCQ0NJTU0lMDAQR0dH5Sn5kpyczMmTJ5kxYwZTpkzhf//7H7Nnz5Y9TXORmJgIsp2gJEnSQy1zblMYeY5UMCUm8bb88O838d6zZw8AtWvXVoZydejQITw8PHjvvff47LPP2Ldv331dCd69e5exY8dStWpVhg4dyokTJ2zqkTOLioqiSZMmrF+/Xhmy+vrrrxkyZAh79uzh33//Zd++ffz44480atSIVq1a2YxNSEjIsmBi4cKFALz++us2xwHi4uIAcHZ2JiQk5J5/BpkT78xvZd0vPz8/oqKi+Oqrr3ByciI1NZUNGzbQsGFDnJycaNy4MZMmTeLixYvKU61SU1P57rvv+N///kfp0qVxcnKiXr16jBkzhg8//JA//viDN998k40bNypPlcwspVsODg7KkCRJkiRJ+SFKiO+++04AYvjw4cpQvqWmpgq1Wi1UKpVITk5WhnM0b948AYi6deuKmJgYZbjA0tPTRf369QUg7O3txahRo0RoaKhymNXbb78tAKHT6cSNGzeUYSGEEA4ODgIQXl5eokuXLuLpp58WFStWFIAAxKhRo6xja9SoIezt7W3O12q1AhDR0dFCmD9HIYSYOHGiCAwMtD6O5aZSqYSTk5OoXr26eOONN0RqaqrN42WnR48e1vPfe+89Zfj/7d13fBRV9z/wz+wmm930hE0lHZJAAoTeEeki5QEBlSYqKk1FEUERu4iKBUFAigIqDzxUFZQqvYmUUEIPEAikkl422+7vj29mfjs3GxJCEnbjeb9e+3Iz586mLebMnXPPrRZms5mtXLnS6tcsft0qlYq5uLhID3d3d6ZQKMqMFR/Ozs4sJCSEffPNN/ynIxbq1avHALA2bdrwIUIIIXbi0KFD0t+/I0eO8GFSjeLj41lBQYHsmM3MeIuzrg+y4c2hQ4dgNpvh5OQk1YxX5Oeff8bzzz+P2NhYHDlyRNrtsDzp6enYsmULNm7ciM2bN+P27dv8ELRq1Qrx8fEICwvD5cuX8c0339yzdd2ZM2eA0rKU119/nQ8jKSlJ6kV9/vx5bN++HVu2bMG1a9ekTiJHjhyRxoeFhcFkMkkf5+fnw2g0SqUkfn5+0gYot2/fRnFxMV599VV4enrCw8NDKt8oLCzExYsXMX/+fLi7u2PTpk3Sa1pjOROalpYmi1UXQRDwzDPP4OrVq0hNTcVbb72F6OhoaWEnYwx6vR6FhYXSIy8vT1rs6ejoiLCwMEyePBnr16/H3bt3UVhYiKSkJLz22mvcZyOWCgsLAQAZGRl8iBBCiJ2wzFuq8+40kcvLy0ObNm3KrJuzmcS7Xbt2AAB/f38+VGniltZ8DXN5zp07h7Fjx8Lb2xt79uy5Z72w2WxG//79Ub9+fQwYMABDhgzBwIEDERQUBD8/P/z+++8AgLFjx+LMmTPQaDQ4dOhQpRZ5JiUlSaU2v//+u/R9iMSaWkEQyrQBFGuSLS8Y2rZtC4PBIHWhKCoqAkq/h4EDB6K4uBi9evWSxgPAt99+i+zsbOTk5KCwsBBGoxHnzp3De++9By8vL5SUlGD06NGyc3iWP/fa6FLp5+eH2bNn4+LFizAYDDh48CBmz56NUaNGYeDAgejfvz8ee+wx9O3bF0OGDMHff/8NvV6P69evY+7cuRgyZIi0cJNUTHyPhYWF8SFCCCF2wnINGL8e7GF46aWXsGHDBv5wpRiNRsTHx+OPP/7A/v378c8//5S7UzWvW7duCAgIwJYtW/hQhZYuXQoHBwdoNBppbSHv8OHDMBgMiI2NlQdk898P0aZNmxgAFhYWxocq7Z133mEAWHR0NB+yqk2bNgwAW7JkCR+S0ev1UmmDQqFgsbGxrFmzZqxJkybMxcWFAWAqlYpdu3aNCYLABEFgx48f51+mXKGhoczNzY21bt2aAWCjRo2SxePj4xlKyyhu3brFnn/+edasWTPm7+8v3S5au3atNP77779nAFhCQgJjjLGioiImCAIDwBwcHNjJkyelscOHD2e+vr7Sx9YkJiZK3/u9vPbaa9LX069fPz5M7JxarWYAWGhoKB8ihBBiJ/bu3Sv9rd6/fz8frnWBgYEV5mHWPPPMM9L3wT/UajXr2rUrGzNmDDt58iQzmUyycwsLC2Xjn3jiCWY2m2VjrMnOzmZdu3aVnbt582Z+GGOMsZkzZzIHBweWn58vO24zifeZM2cYANa1a1c+VGkTJ05kAFjLli35UBnLli1jAFjz5s35UBkdOnRgAJiXlxe7ePGiLGY2m5lSqWQorREHwJ566inZmIr4+PgwT09Pdvz4calG/e+//5aNEZMea4+GDRvKxt64cYO99NJLsrqinJwcdufOnTK175GRkUyhUJR5Y1havnw5A8CcnJz4kMyHH34ofU2PPvooHyZ2TqvVMgCsffv2fIgQQoidsKXEW6fTMYVCwXbs2MGH2HPPPXfP9WJ9+/ZlSqWSBQcHM19fXxYaGsp8fX2ZSqUqkyc5OjqyIUOGSElyfn5+mTFeXl5szpw57M6dO/ynYpmZmeyFF16Q1tuJD4VCUSavEvn6+jJ/f3/+sO3UeIslE5cuXeJDlZaXlwcAaN68OR+SYYzhrbfegiAI+PHHH/mwzJo1a3DkyBE4OTnhwoULiI6OlsUzMjJgMpng6Ogo1ad/8MEHsjEVadGiBVxdXdGqVSv0798fjDE88sgjiI+Pl8YsXrxY6sMNAF5eXujZsydmz55dpptHaGgoFi9eDBcXF+mYh4cHAgICytS+d+zYEWazGY8//rjV8pATJ05g3LhxAFCmewrPy8tLeq7T6WQxYv/E36m4HoMQQgh5EElJSTCbzVZLGNPT05Gens4flnz88ccwm83YunUr0tLScOPGDaSlpaGkpATJycmYM2cOBg8eDB8fHxiNRmzYsAEDBgzA119/LdtgUaVSAaWbxL355psIDAyEo6Mj3N3d4eTkBFdXV/j4+GDZsmVlylg+//zzMnkVSkufMzIyrJZP20ziLS4+FDfpqIpTp04B3MIBa3bu3InMzExERkaiRYsWfFhm1qxZAIAZM2ZYrR0fPHgwUPr1i2+eRo0ayca88sorcHJyglKpRL169dC/f3+pJzJKv2exRmjTpk0IDg5GSUkJWrZsCY1GAxcXFzz33HMwm81QqVQ4ceIEsrKysHPnTrz11lsWn+n+zZ49GxqNBgcOHICHhwcee+wxDB06FM888wxatmyJtm3bQq/Xw9vbGxs3buRPl7HcrZKSs7pHvDArry0mIYQQ22cwGKw+fxjWrFkDcOvUKqtVq1bw8PDAvHnz+BDq16+PqVOnYuPGjUhPT0dmZia++eYbPP3004iMjJRNZE6bNg3PPvusbLLSaDRKrZkLCwulv39ubm5SM4eAgABMnTpVOsfSgQMHwBhDy5Yt+ZDtJN7ibGlycjIfqrSoqCjAYjOe8owfPx4AsGDBAj5UhpjEjxkzhg9h2rRpOHz4MNRqtVQ8b+1z//TTT9Dr9TCbzcjKysIff/whK7b39PSUFjQqFApcvHgRcXFxYIxBp9OhqKhISuqTkpKs/iKrKiAgAH/++Se8vb2Rn5+P7du3Y8OGDfj5559x6tQpmM1mdOzYEdevX4e7uzt/uoxlH29HR0dZjNg/Nzc3oPQ9QwghxD5dvXpVep6YmCiL1TaxmURVF3l269YNy5Ytq3DC1dvbG6+99hpWr16NAQMGlNlEaPny5SgoKMCvv/6Kjz76CF27dsWwYcPQtWtXPPHEExgwYADOnTuHvn37Sl3jVq5cafEZ5H799VfA4vuT4WtPHialUslcXV35w5XWqFEjBoD17t2bD0kKCwuZUqlkKpWqTLG9NZ6engwA69atG3v99ddZWloaY6W1R2J9z7p161jDhg0ZADZixAj+JdjOnTtZ586dWUxMDAsODpZqg0TvvfceU6lUZeqESkpK2MmTJ9mxY8dYUlKSLFYTDhw4wF566SU2YcIE9sYbb7DJkyffs/84b9GiRdL3FhERwYeJnXNycmIAWEhICB8ihBBiJ7Zv3y79rd65cycfrlUxMTFMEASrCxvDwsIqXLMXHx/PFAoFe+KJJ2THS0pK2KJFi1hRUZHsuOjq1avSz2DdunV82CqDwSA11AgICODDMsOHD2cA2E8//cSHbKfGG6WzpGLru6oQS0H4Ug9Lhw4dgslkgq+vr+xWgyg3Nxfvv/8+unfvDjc3N6lkYs+ePVI/bo1Gg+XLl8PBwQELFy7E0KFDpddydXXlXhHo2bMnDhw4gOPHj0v1QWJNEQC8/fbbuHDhQpk6IZVKhRYtWqBNmzYICQmRxWpC586dsXjxYixcuBBffvkl5s6de8/+4zzL1nxU4133UDtBQgixf/xs78Pk5OQEBwcHq1+HVqu1WuJrKS4uDiEhIdi4caNsXdyuXbswYcIEqQSZd+HCBel506ZNZbHybN26VdrP4oUXXuDDMmKLaWttqstmng+RRqOB2Wy2PjVfCdeuXQMs+l5bI240YzKZsHPnTqxfvx5r1qzB22+/jcDAQHh7e+Ojjz7Cnj17UFBQAEEQpId4nk6ng4eHB3bt2iUtPBRdvnxZ9rHo0qVLqF+/PjIzM4HSLeBFarUaERERFqPtk2WpCb8Agdg/cfFyRbf0CCGEkMqwLHvhiRvgVWTp0qUAgCeffFJaa3bs2DEoFAo0adKEG/1/srKygNILD75pRnnEvE2hUEi13daaUuj1emkS2dpElU0l3uKM6b1+Efci1qDym8xYEmurU1JS0Lt3bwwbNgzDhw/HZ599hpSUFKhUKnTo0AFfffUVrl+/DpPJBLPZDLPZjNL2i2CMIScnB127dpVeNzIyEgCwd+9eBAcHY8CAAejbty9Gjx6Npk2bonHjxsjOzoYgCPjiiy8wceJE6dy6wnLGmxLvukdcBS7+OyOEEEIeVHlrwlJSUnDz5k3ZsRMnTmD79u2yRf49e/ZESEgIrly5gu+++w4AcPz4cURHR5e7Nq19+/ZAaeIszmJX5Pjx40Bpjnnq1Ck0a9YMX3zxBT8Mp0+flhJyMTe0ZFOJt/gDulf7mHsRd2q814z3kCFD8OyzzyI2NhaxsbFo3LgxHn30UQwYMAD//PMPioqKcPjwYUyZMsXqlUp51q9fj8aNGwOlC0S3bNmCbdu24ZdffsG5c+fAGINWq8WuXbvw5ptv8qfXCZaz9nq9XhYj9k+cSXiQzkOEEEIeLnG2FxZ508Oi0+mslpmgdCG/p6cn5syZg5EjR0KlUqF169aYM2eOtMBR9N///heCIGDq1KlISEjAzp07ZS2OeQ0aNMCoUaPw0ksvybqZlEen00nVGGq1Gt27d8eFCxcwYcIEfih2794tPbf22jaVeAcFBQEWbQHvl1hLc68fNgAsX74c586dw7lz53D+/Hns2bMHv//+O1q3bl3uG6AiarUa58+fx65du9CzZ0906tQJkZGRaNq0Kbp06YKff/4Zt2/fRvfu3flT6wzLn5212y/Evol1+w/7f9SEEEKqLiMjQ3r+MP9/rtPpYDAYpNnrnJwcbNu2DbNmzcITTzyBS5cu4ezZs5g2bZqUWL/yyiv4888/y3RB6dSpE2JjY2EwGPDMM89Ar9ffc/JUqVTi559/xuLFi/mQVZY/sxs3bsBsNuPLL7+0OqMufj8ajUZqPWjJphJvcQFhamoqH6oUcSHkw6xB7dGjB3bu3ImDBw/i8uXLOHPmDPbv349Ro0bJFlTao1u3bmHDhg2YMWMGnnzySXTu3BlNmzZFaGgo3NzcaCb0X0K8RUcIIcT+WJbjinfqa9vdu3fx3nvvAaV3U93d3eHl5YW+ffti5syZ2LRpE8xmMxQKBdq3b49NmzahoKAA8+bNKzeX+vXXX6FQKHDy5EkAQExMDD+kyvg+4/PmzcPkyZNlx0Tbtm0DStcEWmNTibf4BtizZw8fqhSNRgNwtcbk3oqKipCcnIz4+Hj8+uuv+OSTT/D888+jS5cuCA8Ph6enJxwdHaFQKBASEoKhQ4di9uzZWLduHQ4dOoRz587h5s2bKCgokG2gw3doIfatqKhI+p8IX3NHCCHEflh2HXtYf6vXrVuHOXPmAKWb+Gg0Gvj7+2PAgAEYNWoUtm7divr166NevXo4cuQIBg0aVG4tuKhBgwayfU4q2iDxfri5ueGPP/7AxIkTsW7dOrzyyiv8EIlYXmJtthsABGZDNQGnT59G8+bN0aBBgyotsPT29kZ2djZ69uyJnTt38uE6q7CwEH/++SeuX7+OXbt2ITk5GampqSguLobRaJQSptr6VatUKmzatAmPP/44HyJ2Kj09XWrrNGXKFHz11Vf8EEIIIXZg8eLF0kaC586dk23oV1sMBgO++OILzJw5Ew0bNsSVK1f4IVCr1TAajfe1W/Lq1asxYsQIAMCOHTvQq1cvfkiNa9KkCRISEqBUKq1+7TY14y3eFqjqjJqYWNZWgvkw6HQ67N27F2PGjEHXrl2hVqvh6uqKJ598EtOnT8fOnTtx4cIFZGdnQ6fTwWg0Sp1YHoQgCFAqlXB2doaPjw/Cw8MRFxeHdu3aoV+/fpg8eTJWrVqF/Px8lJSUUNJdx1iWf1lbLEIIIcQ+WHYde1gz3o6OjtJ29QUFBXwYKP1bw9dyV+Spp56Snp8+fVoWqy0lJSWARUMCUWpqKj744APbSrwdHR2h0WhgMBjK/UX82xQXF+P777/HuHHjEBAQAI1Gg27duuGnn37C/v37pV9weRQKBZRKJZRKJRwcHKTnSqUSCoVC+pm7u7vDz88PUVFR6NKlC1544QV8/fXX2LJlC3Jzc2E2m2E0GlFYWIj09HRcu3YN8fHxOHr0KLZs2YK5c+dixIgRVjcQIvZP7D8Pi7aChBBC7I+4n8nDlpSUBABo2LAhHwJKa6T55LUiCoUC0dHRUCqVGDhwIB+uFeLXzBiDg4MDnJyc4OTkhICAAHz44Ye2lXjDYhOWqpSaiFP6D7L75cNmNBpx6NAhjB49Gn5+fnB3d8eECROwZMkSq4tOBUGAVqtFXFwcXnjhBcyaNQvHjx9HRkYGGGMwmUzSrRpx9bD4MJlMUqP33NxcpKam4tKlS9i/fz+WLl2K119/Hf369bO6apf8u1i2n+rcubMsRgghxD49zH0ZxDyvvFn3oqKiKrUmvnjxIoxGI6KiovhQrZg0aZL0XMyzLL8Pm0u8xdW2v/32Gx+qkHiVUd5KUltkNBqxZcsWTJ48GV26dIFKpULnzp3xyy+/ID09XVYfJAgCXFxc0K9fP4wfPx7bt29HSUkJMjIyEB8fj6VLl2LGjBlo1aoVtFqt7PMQ8iAsZ0iq8j9CQgghtsEyP6io/XJNEhPv8nbudnZ2tss7rFOmTMHMmTPh5uYGJycnaDQaODs7Izg4GMOGDbO9xLtdu3ZAFTfREeuYbTUxyMrKwvr16/HJJ5/g6aefhlarhaurKwYMGIB58+bh4MGDZWqx/f398fjjj+O9995DWloaCgoKsGXLFixatAi9e/eucJUvIdVB7LGPh9h+ihBCyIMTt2F3dnZ+aDmEXq+X8ry+ffvyYaC0cYRYB25vPv74Y+Tl5UGn06GoqAiFhYW4efMm1q5da1tdTQBg9uzZmDFjBnr06IFdu3bx4XvSaDTQ6XSIi4tDfHw8H65Wer0e2dnZyM7OxsmTJ+Hp6Ym0tDQcOHAA/v7+Ug9vHx8fJCYmIjMzs1Iz8W5uboiOjsabb76Jjh07yhIeQh6WYcOGYf369QCAtLQ0WR9YQggh9mPQoEH47bff4OfnZ7WEtaaVlJRg3LhxWLlyJQRBQEFBgbQBoiUHBweYzeb7rvO2dTaXeB89ehQdOnSAv7//Pbd+t8bJyQl6vR4xMTFISEjgw/flzp07uHHjBnbv3o19+/bBxcUFBw4ckOrHLftgVpUgCPDz88Ojjz4KPz8/TJkyRdpEiBBbMnz4cKxZswaCIMBgMJTbn5QQQohta926NU6cOIGQkBBpgWNtGj16NH755RegtPXe2bNn+SGIjY3F+fPnIQgCJd41LSMjA76+vlVKvMUZ7/u9iktKSsLZs2fx008/4dSpU8jNzZVtD/ogXFxc4OzsDL1ej86dO8PX1xcBAQEYPnw4oqOjH9ptHkLuR9u2bfHPP/9ArVbLWlERQgixL25ubigoKICbm5tUdlKbXnrpJSxduhQODg5ISkpCYGAgPwQdO3bEpUuXMHz4cHz33Xd82K7ZXOJtMpng4OAAR0fH+67V9vf3R1paGhQKRbllHWlpafj1119x+fJl/Pbbb8jNzZW1SiuPl5cXXF1doVKp0LZtW9y6dQuhoaGIiYlBUlIS2rVrB39/f2RnZyMuLg6+vr7QarVQKGyujJ6Q+9agQQNcu3YNLi4u1OqTEELsmK+vLzIyMsrduKammc1mfPfdd3jqqaekjdn+TWwu8UbpzLXY/u5+PPbYY9i+fTtQ+hoeHh5QqVRQKBRSIb+1XYRECoUCGo0GPXv2hIuLCx555BE88sgjiIiIuO8m7oTUJUFBQbh9+zYaN26M8+fP82FCCCF2IjAwECkpKXjsscewdetWPkxqmM0m3jqdDjqd7r4S3vPnz1d661NBEODs7IwOHTogKioKffr0Qa9evaDRaPihhPzrqdVqlJSUICIiAomJiXyYEEKInXB3d0d+fj6GDBkiLZontccm6yDEhu73W0saExODt99+GxqNBiqVCm5ubvDy8oJWq0V4eDg6deqE9957D2vXrkV+fj4KCgqwc+dOLFiwAAMHDqSkm5ByCIIAlC6EIYQQYr/EJhEuLi58iNQCm5zx9vLyQk5ODm7fvm216J4QUnvMZrPUxaRTp044ePAgP4QQQogdKC4ullr3DR06FOvWreOHkBpmkzPe4lWYPe5YREhdY7ldfJcuXWQxQggh9uPu3bvS89u3b8tipHbYZOJdWFgo+y8h5OGx7LFaUlIiixFCCLFPrVu35g+RWmCTiXdERARAiTchNqd9+/b8IUIIIXbCsk2zl5eXLEZqh00m3mJfbWpbZntoxvPf5+jRo9JzrVYrixFCCLEflok3beD3cNhk4t25c2cAgEql4kPkIbl9+zbat28PtVoNtVqNq1ev8kNIHWV55+nfuNkBIYTUFZaJN62jezhsMvEWZ7x37tzJh0gtu3LlCrp164awsDD8/fffQOms9/Dhw/mhpI5KTU2VnoeHh8tihBBC7EdSUpL0nKoKHg6bTLzbtGkDlG6kQ2pfRkYGZsyYAX9/f0RHR2Pv3r1ldvy83x7rxH5duHABsNh0ihBCiH2y7N1dr149WYzUDptMvMXFlceOHeNDpIZcunQJkyZNQnh4OAICAjB79mykpaVBbPPu5eWFTZs2SRupUOP9fw9xQyv6nzQhhNg3y7/dISEhshipHTaZeIt1pGlpaXyIVAOTyYSEhAR8+umnaNeuHUJCQtCoUSMsXLgQN27cgMlkAkpr7AcNGoTz588jKysLgwYNgkLxf28ZqvX994iPjwe42kBCCCGE3D+bTLw7deoEcI3eyf0zGo1ITEzEtm3b8NVXX6F169aIjo6Gh4cHmjRpgnfeeQfHjh3DrVu3pHMcHBwwbNgw7Nu3D8XFxdi0aRMaN24sxc1mMwAgPT1dOkbqNnGRc2hoKB8ihBBCyH2wyS3jUZoAms1mFBUVQa1W82G7UFRUJGu/p1Qq4e7uLhsDANnZ2bKPGWPQ6/VwcHBAXl6edDwrKwtKpRJmsxnZ2dnQ6/VISUnB6dOnUa9ePdy9exepqam4ceMGzp49C4PBIM1e30uzZs0wcuRI9OnTB82aNZPKSazx9vZGdnY2evXqhR07dvBhUgep1WqUlJSgdevW+Oeff/gwIYQQO7F9+3Y89thjAICJEydiwYIF/BBSw2w28W7dujVOnDiBo0ePol27dnz4odm1axdmzpwplcHk5uZCEAS4uLggJSUFCoUCZrO5zGJEW6BQKODl5YWhQ4eiVatWaNWqFZo2bXpfvTy9vLyQk5MDX19fKgX6lxAv9rp164bdu3fzYUIIIXbi119/xeDBgwEAY8aMwYoVK/ghpIbZZKkJLPpLrl27lg89NCUlJejduzf+/vtv3LhxAzdu3EB2djaysrJw69YtGI1G6PX6h5Z0Ozs7o0GDBmjfvj2ioqLQt29fLFq0CLt27UJiYiLGjBmD9u3b4/3338eLL76Ili1b3lfSDYt2cpWZSSf2Lzs7WyovatGiBR8mhBBiRyzXZzVp0kQWI7XDZme8586di9dffx0TJkzAwoUL+fBDcfz4canVoSAI8PDwgFqthouLC+Li4pCYmAitVou4uDjo9XpcvXoVcXFx8PLygtlsxokTJ1CvXj2pa4vJZMKJEyfg6+uLsLAw6fMkJydDp9OhdevWUtlHYWEhEhMTERsbi8DAQLi4uMDV1RVKpRKMMcTExMDV1VV6DV7Dhg2RmJgIAAgICMCdO3f4IZUyfvx4LF68GChNyjw9PfkhpA45d+4cmjZtCgAYN24cvv/+e34IIYQQO3HkyBF07NgRAPDll1/ijTfe4IeQGmazibd4O+RBksTqVlRUBFdXVzDGEBwcjGvXrtXKzk+BgYFISUlBTEwMEhIS+HCFXnzxRSxbtgzOzs7Q6/UwmUxISkpCcHAwP7RCU6ZMwTfffAMA2LZtG/r06cMPIXWI5cXmTz/9hNGjR/NDCCGE2AlKvB8+my01Eeu6lUolH6qyAQMGYMmSJfzhSnN2dsabb74JQRBw69YtDB06lB9S7aZOnYqUlBQAwMWLF/kwUFoCU57r16/j559/hoODA44ePYr27duDMYZt27bxQyvl+eefl56fO3dOFiN1z+nTp6Xn4o6yhBBC7FNOTo70/OrVq7IYqR02m3j7+/tDoVDg9u3b0iYuD2rXrl14++23H6gG+/PPP8fnn38OR0dHbN68GZcvX+aHYNu2bVAqlWjfvj0fui85OTn47rvvgNKFkWazucyOkTqdDvXr18dnn30mOy6aNGkSSkpKMGHCBDRt2hQvvPACAGDNmjX80EqJiYmRZvmXLl3Kh0kd4+TkJD3v0qWLLEYIIcS+WOYQhYWFshipHTabeAuCAK1WC8ZYtc20GQwGODo6SovFquLOnTu4du0a3njjDcyfP9/qjPyaNWtgNpsfeOfNJUuWoKSkBA0bNpRqvfmvvaSkBHfv3rV65Xrjxg3s3LkT9erVw5dffglYLJCz7N19PxQKBby9vQGaAf1X2LVrl/Tcw8NDFiOEEGJf/P39pefi+h1Su2w28UZpaQcA/P3333yoSlQqFXr06CFtCHK/zGYzIiMj8f333+Ozzz7Dli1b0KBBA34YevXqBZT247Z2RZmbm4v9+/fzh2W2bduGTz75BAAwa9YsMMagUCjK9DQXZyR1Op3sOAAsXLgQRqMRQ4cOlb7npk2bQq1WS+UrVfH0008DpX3Fc3Nz+TCpQ7y8vKTngYGBshghhBD7da89O0jNsenEW9wpj99gpqr0ej2Sk5P5wwCAS5cu8YfK+Oyzz1BUVARHR0cIgoCtW7di8+bN/DD06dNHekP//PPP0nGTyYTvvvsOS5cuxaOPPmq1TAUA4uLi0LdvX+Tn58PDwwNdunRB+/btsX79+jIz7E5OThAEoUydd1FREebPnw8vLy/MnTtXOi4IAlQqFQoKCqTdJ4uLi1FQUGBx9r1ptVqg9MLClto9kuon1ngLgiBdCBNCCLF/D1J2S6rOphPvhg0bAgCOHj3Kh6pEpVLJ2vaJ9u7di0aNGlX4eTZs2AAAeP/99/HWW28BAIYNG1Zm1ler1UotA+fMmSMd1+v1+PTTTxEfHw8AVhvXf/XVVzhz5oz0cZcuXRAQEIBDhw5JTe8tCYIApVKJ1NRU2fENGzZAp9OhV69eZWbJu3fvDgAYPHgwtFotXFxcpM4VlREXFyc9r676e2KbxBaVSqWSZkcIIcTO3bhxQ3p+8uRJWYzUDptOvMXb3OLM7IPS6XRW2/F9+OGHgEUJRXnOnz8PAJg8eTJmzZqFBg0aoKSkREpkLYmvee3aNalURqPRYPXq1VizZg2ioqLw448/yjaiMRgMePfdd4HSWmqFQlHhAkaTyQSj0YgrV67Ijr/11ltwdHSUeqDn5OTgv//9L4YPH44///wTAHD48GFkZWWhXr16mDhxouz8exEvKkB13nVeVlYWUPp+JIQQYt/EO9ag8sGHxqb/mooLAe/evcuHqkShUMhma0V5eXkAgNu3b/MhGQcHBzg4OMDV1RWCIODAgQNQKpU4efIkFixYIBs7YsQI6db8e++9Jx3v2rUrpk2bhhs3biAtLQ3z58+XYtOnT0dxcTEcHBxgNpsRGBgoWwhhTUZGBmCxoyQAXLhwAXfu3EGbNm1Qr149oLQbyciRI7FmzRrp2GOPPYbc3FxkZGTglVdekc6viGXv8iNHjshipG4pKioCKPEmhJA6wbJkkBLvh8Om/5qK25lfv36dD903xhjMZjPOnj3LhzBy5EigtN4pPz+fD0t0Op2stCIgIADLly+HIAh45ZVX8NNPP0kxQRDw5JNPAqWdISzr1D/66CNp29bDhw9Lx8WZaPGKdNiwYVKsPGKduOUizilTpgClXVFE77//PhYtWoRbt25Jx/V6Pdzc3KQxlWV5TuPGjWUxUreIi3Zph1JCCCHkwdl04i3urmQwGPhQlWk0Gv4Q2rZtKz2fOnWqLGZJo9HI+hoDwOjRozFo0CAwxjB+/HjZxjTffPMNBEGA2WzGBx98IB13cHDADz/8AADYuHGjdFxMosUFD2PGjJFi5Tl48CAAyGq079y5g6ioKMTGxkrHxo0bh/HjxyMoKEgq4RG3kL9flr8PW9lVlNQMsZSoOv8NEkIIeTjE8kEAZUpUSe2w6cRbLLN4kNZ3IrErA98VBNwmIT/++GO5CwaLi4vLdA9B6ULGYcOGobi4GAMGDMCsWbOA0llCcaaQX7jZs2dPeHl5wWQyYd26dbKYTqeDg4OD1bIYnribpZhM5+fn48KFC9JGOda0adMGgiAgLS2ND1WKZS9xvV4vi5G6RSwxsbYomRBCiH2xXFdWXR3jyP2x6cRbqVTC19cXZrNZdpVWVSUlJTh16hR/GK1atZL6XBuNRmmzGZ6rq6vVlmqCIOCXX35Bx44dYTQaMXPmTPj5+aFPnz5SCQi/4yQAqRRlwoQJsuM+Pj5SmU1FTpw4AQAICQkBSju0GAwGqZe4NSqVCgqFAjqdrko/V8sab9pUpW4T/8csroMghBBivywn9AICAmQxUjtsOvGGxexqdSziCwwMLFMqgtJZveDgYOnj8rqoFBYWWk2gUZrMHjp0CG+++SY0Gg3S09OxY8cOaUY4KCiIP0XqYHL37l1ZiYqDg0Olb+2LX6tYa52ZmYmGDRuiWbNm3Eg5cSZz69atfKhClklYdS18JbZJvCCNjIzkQ4QQQuyM2FwB9Pf7obH5xFusXRa7KzwIHx8f3L1712opyYABA6Tn5TWVd3Z2tlojbumLL75Aeno63nnnHbRo0QL169dH79698b///Y8fivr160t9kgcMGCB9XVqtFu7u7txo68QLAXFh53PPPYfLly9X2IXis88+Q2RkJHr06MGHKmTZB9SytSCpe8R/d3yfeEIIIfbHw8NDyg/4ElhSO+6dndkAsXa5OnZIzMzMhNFotDqj3a9fP+n58uXLZTFRSUmJ1a3Zea6urvjkk09w8uRJJCcnY/v27eV2D2nfvj3AJfvvvvuubBOdexkxYgTAJcCV2ehkypQpuHz5coXtCq2x3O5e3F2U1D2WF6jNmzeXxQghhNgnMUegGu+Hw+YTb7FkojLJZEVat24NlFNv3aNHD6hUKgiCgNzcXFm3EZFarbY6W/4glixZUqae22QyoX79+rJj5VmyZAkKCwulDXsqq6CgANnZ2cjKykJ2djbu3r0rPc/OzkZGRgZu3bqFmzdvIiUlBTdv3sS1a9ewbt06zJs3T3qd/v37y16X1B25ublSqRf9D5oQQuoGsbbb29ubD5FaYDeJt9i940GIddPWFhQKgoA+ffpIifXixYv5IQgKCip35rqqwsPDkZeXJy20hMVCSUsmkwnHjx/HX3/9hdmzZ+Oxxx7Dc889hyZNmiAsLAwxMTHQaDTw8PCAm5sblEol1Go1BEGw+nBzc4O3tzfq1asHb29vaLVa6bm3tzd8fX0REhKC0NBQBAYGIjQ0FA0aNMCTTz4pdXZxcnKSbdxD6paCggLpeWU67BBCCLF9YlOEe+1bQmqOzSfeYju+5ORkPnTfxBKTa9eu8SHAYuMZALh165YsBgDDhw+vcFv5qlCr1fjf//6H6OhoaLVamM1mrF69GiNHjoS/vz+CgoLg5OSENm3aoGfPnpgxYwa2b9+OFStWICEhARkZGbhw4QJ0Oh3y8vJQUFAAs9lstfVhdapoO3ti365evSo9r+47PYQQQh4OccdrcZ8GUrsEZuN/UfV6PTQaDRwcHKDT6R6o5OTVV1/F/PnzsWvXrnIXFWq1Wty9exexsbE4d+4cH65WBoMBp06dwuLFi5Gfn4+bN2/i+PHjsj6b96JWq6Xyl4iICKSlpcHNzQ0hISG4cuUKwsPDYTKZkJOTg6ZNmyIhIQEoXSSakZEBPz8/pKSkwN3dHVlZWVAoFDAajSgpKUFRURGMRiMUCgWUSiX0ej0YY3B3d0eTJk3w3XffyTboIXXPtm3b0LdvXwDAzz//jFGjRvFDCCGE2JmIiAhpR3CTyVRhMwZSvWw+8UZpSYNer0dSUpLVMozK6tWrF3bt2oV58+bhlVde4cMAgB07duDxxx/HqFGjsGLFCj5cZQaDAQkJCYiPj8eyZctw+/ZtpKam3nOxpoeHB5ycnNC+fXu0bNkSBQUFePTRR9GoUSNpFpyQmvLhhx9KO64eOHAAnTt35ocQQgixM4MGDcJvv/0GlLZJtrY/Cak5dpF4t2zZEqdOncKxY8dkW6Pfr2HDhmH9+vVYtmwZxo4dy4erjdlsxqVLl/DPP//g6NGjWLNmjWyhGk8QBHh7e6NXr14ICwuDp6cnRowYIestTkhtmzZtGubMmQMAuH79Ou1eSQghdUDnzp1x6NAhAEBaWhp8fX35IaQG2cX9BXFW+M8//+RD90Us4SivT3dVZWdnY8+ePZg1axb69OkDlUqFmJgYjBkzBosWLUJ2draUdDs6OkKr1aJp06b49ttvcfjwYRQVFSEzMxOrV6/G7NmzMX36dEq6yUN39uxZ6bm1DaAIIYTYH8sGE7SJTu2zi8S7Q4cOgMUullWVkpICVMNmIPHx8Vi8eDFefvllNGnSBN7e3ujevTtmzpyJHTt2SAm+i4sLOnfujCeeeALTpk3DyZMnUVBQgIyMDJw5cwavvvoqOnToALVazX8KQh46sauJo6MjHBwc+DAhhBA71KRJE+m5i4uLLEZqnl0k3uItbrEmqarEVoD3W8+k0+nwww8/4M0330RsbCxatGiB8ePHY8GCBdKCRUEQ0Lx5c0ycOBGff/459u7di9zcXBw4cAAbNmzA559/jhYtWkhbcBNi65KSkoDSDaEIIYTUDZabCFa2mQOpPnaReLds2RKwKDmpqrS0NMCilc69JCQkYOrUqRg0aBA8PDzwwgsv4Msvv8T58+eB0gWfgwcPxhdffIEtW7YgKysLp06dwoIFCzBt2jR07doVSqWSf1lC7Ia40ZS7uzsfIoQQYqcs7/pTL+/aZxeJd8eOHQEAiYmJfOi+iH2t8/Ly+BAYY/jjjz/QpUsXREVFoUmTJvjqq6/w22+/Qa/XQxAEtGvXDt999x2uXLkCnU6HjRs34s0330S/fv2kfuOE1BU5OTkAQAtvCCGkDomJiZGe08RK7bOLxNvLywvOzs4wGo1WN7aprMLCQtl/UbqAbODAgfD29kb//v1x8OBBXLlyBSgtSRk7dix27doFnU6Ho0ePYtKkSWjYsKF0fk368MMPoVKp4OHhYXULe0JqisFgkBYh08JKQgipXWazWbpLX93EHAfcDsWkdthF4g2LP/4rV67kQ5UmzuBt3rwZPXr0gJubG5o1a4bNmzcjJycHDg4OCA8Px6xZs3Dz5k0UFhZi2bJl6NGjR63XZvfr1w8ffPABjEYj8vLyMGnSJH4IITXm4sWL0nMfHx9ZjBBCSPXT6XSYOXMmIiIioNFoUL9+fWmjm+pkWQb7IJsSkqqxm8S7a9euAIDLly/zoUoTV+/m5uZi9+7d0pVeXFwcXnzxRaSmpuLatWuYMWPGQ2vnZzabMXToUPz5559o1KgR7t69C3d3d6SmpiI5OZkfTkiNsNxKuG3btrIYIYSQ6pOWlobevXvDy8sLs2bNwvXr16HX6zFgwIAaueMoNppAadcqUrvsJvEWN87Zvn07H6q0v//+G+Hh4fD29kZISAimTp2Ky5cvIz4+HkuWLEG9evX4U2rdc889hw0bNmDQoEFISEiAl5cXRo8eDQDSZiaE1LR9+/ZJz2n9AiGE1Iz169cjICAAO3fulBpIKBQKfPTRR9i4cWONJMaWJbtFRUWyGKl5drFzJUoXRHp6ekKhUKCoqKjWSz9qw+uvv465c+di+PDhWLVqlXQLaOvWrXj88cfRvHlznDp1ij+NkGr31ltv4fPPPwcAJCcno379+vwQQgghDyg4OFh2N3vo0KFYuHBhjZb4ubu7Iz8/H0qlEiUlJdSBrZbZzYy3u7s7nJ2dYTKZcPz4cT5s92bPno25c+eiW7du+OWXX2R1V4899hg8PDxw5swZ2Y5ThNSUEydOSM/9/PxkMUIIIdXDcufIkSNHYt26dTWadN+8eVNqIejk5ERJ90NgN4k3LGpNV61axYfs2oYNG/Duu++idevW2LJlCxQK+a9FEAQ0btwYZrMZu3fvlsUIqUkuLi60ayUhhNQQy4mN//73v3jppZeQnZ0tG1OdXn31Vel59+7dZTFSO+wq8Ra3ObVshWPvli1bhqeeegrNmjVDfHx8uaUkM2bMAAB88803fIiQamfZ1YQQQkjNWLdunXSHmzGGpUuXQqvVYuDAgViwYEG11mCnpaVh8+bN0sfjxo2TxUntsJsabwDYuHEjhgwZAk9Pzxq9Iqwtly9fRps2bWA2m7Fz50506NABmzdvRv/+/fmhyM3NhZeXF9RqNfLy8mgWktSoyMhIXL16FVFRUbh06RIfJoQQUk2OHj2KHj16WE2ylUoltFotoqOjMXr0aAQFBSEiIgIODg5IT0+Hj48PDAYDCgsL4eXlJR3LyMiAl5cX8vLyYDKZsGvXLnz66afSjsR+fn6yHSxJ7bGrxDsjIwO+vr51YkHA3bt30bFjR9y9exdHjhyBIAiIjIwsN/EGgP79++OPP/7A8uXL8eyzz/JhQqqNq6srCgsLERQU9ECbVhFCCKkYYwyLFy/GtGnTamUb9+3bt6N37978YVIL7KrUxMfHByqVCiaTCceOHePDdqOkpASxsbFITEzEb7/9hsjISGmXwHv9g2vVqhUA4Mcff+RDhFQr8aI2KiqKDxFCCKlmgiBg/PjxyMvLw6VLl9CvXz8EBQVVeztBQRAwffp0SrofIrtKvFHaegeA3XY2YYxh7NixSE9Px1tvvYVOnToBpe0Swa1w5s2cORMeHh44ePAgzp49y4cJqTbi5lL3uhAkhBBS/aKiorBlyxbcunUL+fn5WLlyJT7//HM8+eST0Gq1qF+/PiIjI+Hl5YUmTZogLCwMvr6+aNKkCbRaLcLCwqDVauHv7w8vLy94eHggMDAQgwcPRmJiIj777DP+U5JaZFelJgDQunVrnDhxAuPHj8eiRYv4sM176qmnsHbtWnz88ceYOXOmdPz8+fOIjY3Fhg0b8MQTT8jOsTRkyBBs3LgRDRo0wIULF6r9apgQAFCpVDAYDPjPf/6DX3/9lQ8TQgghpArsbsY7PDwcAHDmzBk+ZPNWrVqFtWvXonXr1rKkGxZbdF+9elV2nLdmzRp4e3sjMTERkZGR95whJ6SqTCYTAODOnTt8iBBCCCFVZHeJd0REBGBxK9xebNq0Cc8//zy6deuGw4cP82Go1WqgEttzOzo64vjx4wgLC8PNmzexZ88efgghD0xsb+Xq6sqHCCGEEFJFdpd4iwlqWloaH7JZhYWFGDFiBJydnbFhwwar5SFie8DKJDrh4eG4fv060tPTMXToUD5MyAMTK9AKCwv5ELFDOp2OP0QIIeQhsLvEu2nTpgBgtd+lrfroo49gMBjw22+/wcvLiw8DFosrb9++zYfKpdVq+UOEVCux5ITYr7t37yIgIACrV6/mQ4QQQmqZ3SXe3t7eAAC9Xs+HbNL58+fxzTff4OWXX8YjjzzChyXizCLNMBJbIM5428u/M1K+H374ATk5OdKkBSGEkIfH7rqaHD58GJ06dYJCobCL2bgePXrgwoULuHjxItzd3fmw5MCBA3jkkUewZMkSvPjii3z4Xyk7OxvFxcVITU2Fp6endJfD2dkZmZmZ0Gq1yM/Ph6OjIxwdHZGbmwtvb29kZGSgXr16KC4uBmMMLi4u0uZLWVlZcHFxgSAISElJgZubG9LT0+Hn54f09HRotVrk5ubCyckJCoUCRUVF8Pb2RlpaGqKiouDq6goHBwe4u7tDpVLxX3KdoVAowBhDZGQkLl++zIeJnTCbzYiMjERoaCh2794tHT9x4gT8/PwQFBQkG08IIaRm2V3ife3aNTRo0ACwmJWzZU888QSee+45DBgwgA/JVDXxNhgMyM7ORlJSEhQKBa5cuQIHBwc4Ojri5MmTCA8Px/Hjx6FQKODq6orExEQ0adIE586dQ3h4OLKyssAYQ0BAABISEhAXFye9VlhYGE6ePImoqCgYDAYkJSWhZcuWuHLlCgRBQGhoKE6ePInY2FgUFBTgzp07aNWqFc6dOweNRoPw8HD8888/iIiIgKurK06cOIGwsDCkpaXh0qVLCAsLw4ULF5CVlYV69erh1q1bMJvNEAQBJSUl/LdqswRBgJOTE4xGo5TUu7i4wGw2S3doGjRoAAcHBzRr1gx6vR69evWCn58fGjRoYJMJvLi4MjQ0FDdu3ODDxE4sWLAAL7/8MtatWydbD+Ln54e+fftixYoVsvGEEEJqlt0l3vn5+dLMcV5eHtzc3JCVlYUFCxZg27ZtuHHjhlQvjdIuIIwxmM1muLi4oKioCGq1GkajEYwxqFQq6PV6qNVq6HQ6aDQaFBcXQ61Ww2AwQKFQQKlUQqfTwc3NDTk5OQgICMCdO3fg5+eHwsJCGAwGtG7dGrdu3UJISAiaNGmCq1evon379vDw8EBSUhJiY2OhVqtx+/ZtNGrUCHl5ecjOzkZYWBgyMzPx119/YdmyZejevTvGjh0LR0dHJCQkSLO1+/btQ3BwMK5du4bk5GS4uLjg5s2bMJvNFj8dYo8UCgX8/PwAAC1btoTJZEKfPn3g5+eHFi1aIDQ0FBqNhj+txuzevRs9evQASrsIJSYm8kOIHSgoKEBwcDDy8/NRXFwsW9Tt6OiI5557DkuWLJGdQwghpGbZXeJdUlIidTbZuXMnxo4di5s3b/LD/nUEQYCrqyuMRiMcHR3h7e2Nu3fvomHDhsjKyoJGo4GzszNSUlIQFhaGGzduwN/fH7m5uWCMwcfHB0lJSYiIiEBKSgoEQUD9+vVx5coVBAYGwmg0IiMjA9HR0bhx4wYEQUBAQACuXr2KkJAQFBUVITs7G9HR0bh69SqcnJxQv359XLp0Cb6+vnBxccG1a9cQFhYGZ2dnpKWloVOnTjAajdDpdOjSpQuSk5Ph4+ODhg0b4vbt24iJiYGrqytMJhO0Wi0KCgogCAKcnZ2l0pHc3FyoVCqoVCpkZWXBx8cHt27dgrOzM4qKimA2m+Hq6or09HT4+/sjMzMTrq6uEAQBeXl50Gq1uHPnDurXry9dTGVnZ8PZ2RkoTV58fX1x69YteHl5ITExEXl5eXB1dcXZs2fRsGFDnDhxAgEBAbh06RLc3Nxw4cIFuLi44Pbt23ByckJKSgrMZjNyc3OrfKGkUCjg5eWFkpISREZGoqCgAKGhoSguLoYgCHBwcEBxcbF0IWk0GqFWq1FQUAClUglBEGAwGIDS94p44WkymaDT6ZCbm4vi4mLo9XrZnaTevXtj+/btFl8JsRdPP/00/ve//2Hq1KmYM2eOdFycYHj99dfx9ddfy84hhBBSs+wu8YbFbXBLSqUSwcHBaNWqFZo3bw7GGBQKhTRTWFhYCH9/f6Snp8Pb21tqr6XRaFBYWAg3NzcUFBRIs+IajQZ6vR4KhQIODg4oKiqCp6cn0tLSpF0jGzZsiPz8fBQVFcHNzQ27d++Gs7MzGGM4dOgQQkNDkZubi8TERPj6+sJgMCA1NRWhoaHIyclBQUEBIiIicOfOHRQVFSE/Px8ajQYeHh7w9/eXZtCjo6ORnJyMLl26wNXVFUVFRejRowecnJwQFBQEHx+fWp0RJQ8mLS0NSUlJ2LdvH1C6boExhpMnTwKlm9bYwvoFFxcXXLhwAcHBwXyI2LgrV64gOjoarq6uyMjIgJOTkxRLTU1FQEAAXn75ZcyfP192HiGEkJpll4l3QEAAUlNTgdK+12+//Tbefvttqwm5vfjjjz/Qv39/fPnll3jjjTf4MPmXyc/Px4EDB2A0GnHo0CFkZ2dDr9fj1KlTqFevHs6ePStdNKJ0RtxoNEqLjs1mMxwcHGAwGKR/F5az7YwxaWZboVDA2dkZLi4u8PX1Rdu2bTF27Fg0b95cGk/sS1RUFK5cuYK4uDjEx8fLYl988QWmT5+OYcOGYe3atbIYIYSQmmWXiTcAHDlyBGazGZ06deJDdunrr7/GG2+8geHDh+O///0vHyaEkEpZtGgRJk6cCAC4fPkyIiMjZXG1Wo2SkhLs3bsXXbt2lcUIIYTULLvr4y3q0KFDnUm6AUgLRkNCQvgQIYRU2oEDBwAAjz76aJmkG6XrZARBoKSbEEIeArtNvOsaheL/fhWBgYF8iBBCKu2XX37B7t27sWfPHj4EAJgxYwYWLlzIHyaEEFILKPG2EeJiT8tFUIQQcr8UCgW6devGH5bMmjUL48eP5w8TQgipBZR42wixo0VycjIfIoQQQgghdQAl3jbGy8uLP0QIIYQQQuoASrxthJubG1C6tTghhBBCCKl7KPG2Ebm5uUBpX3JCCCGEEFL3UOJtIw4ePAiUbpxCiL344YcfMHDgQBQUFPAhQgghhHAo8bYR4kx3UFAQHyLkoRs/fjweeeQR5OXlyY6fPHkSmzdvxtSpU2XHCSGEEFIWJd42QqlUAgC0Wi0fIuSh69KlCw4dOoR+/frJZrdnzZqFoKAgLFmyBOvXr5dtS08IIYQQOUq8bURiYiIAwMPDgw8R8tCNHDkSS5cuxeHDh9G3b18p+b5+/TpGjBgBxhiGDRsGpVIJT09PJCUl8S9BCCGE/OsJjDHGHyS1T61Wo6SkBIWFhXB2dubDhNiE7777Dq+++irq1auHyZMnY9WqVbhx4wY6duyIY8eOwdHREe3atcOqVavg7e3Nn04IIYT8q1HibSO8vb2RnZ0Nk8kkbR9PiC0aNWoUVq1aJX2sUChgNBohCIJsHCGEEELkKMOzEWI7QUq6ia375Zdf8PvvvyM6OhpeXl4YPXo0Jd21iDGGo0ePYuXKlejYsSNiYmLg6OgIR0dHjBo1ih9OCCHEhtCMt41QKBTSzCEhhKA0yd63bx+OHTuGbdu2ISEhAbm5uSgpKeGHAgC6d++Ov/76iz9MCCHERlDibQMMBgNUKhUcHR2h1+v5MCHkXyQnJwefffYZ/vrrL5w+fRoGg4EfApTuduvn54e2bduiefPmePTRR9G8eXM4OjryQwkhhNgISrxtQHFxMZydnSEIArVjI+RfLjY2FufPn5c+dnZ2hpubG7p06QJnZ2eMHj0a0dHRCA4Olp1HCCHE9lHibQOys7OlDhD06yDk323dunUYPnw4WrRoga1bt1Jvf0IIqUNoJZ8NcHJyAur4wsqioqI6U0aTn5+PyZMno2PHjujZsyeWLVvGDyHVbNu2bThx4gR/WCYnJwe7du3CH3/8gT179iA5OZkfUu10Oh1/yKrXXnsNBw8e5A9bNWzYMHz77bc4fvw4vvjiCz5MCCHEnjFiE7799lv2008/8YftTlFREdu1axebPn06GzduHPPx8WFeXl4MAAPAQkND2blz5/jTHtidO3fY8ePHmdls5kPV6vbt28zNzU36fsTHuHHj+KH/OhcuXGC9e/dmvr6+7O7du3y4Qvn5+aygoIA/zEJDQxkAFhERwYckXbp0KfM7AcD8/PzYyy+/zIqKivhT7mnZsmWsQYMG7KWXXmI6nY4Ps7///ptptVoGgD3zzDN8WKakpIQBYO+88w4fuqfXXnuNhYeHs5ycHD5ECCHETlGpCamSq1evAgBWrFiBCxcu4NKlS0hOTkZeXp7Vchl3d3e4u7tj5syZeOGFF6BUKvkh5dLpdFCr1QCAgoIC7NixAxcvXsTevXuRkpKCmzdvorCwECaTCeHh4Rg+fDhGjBiB2NhY/qUeWIsWLRAfHw9nZ2f07NkTKSkp+OeffwAAf/75J/r27cufUilZWVlYu3YtLl++jDFjxiAuLo4fYrOKiorwySef4KuvvoJer0dcXBwOHz58XxtB6fV6NG/eHBEREdiyZYssplAowBjDs88+i+XLl8tiooraGTo6OmLs2LGYN29ehYsPr169isjISOljhUKBsLAwqNVqqNVq3Lx5E5mZmVK8fv3695xdLyoqgouLC95//3188MEHfPiePv/8c6xYsQJnzpyp8OsmhBBiB/hMnNQ9x48fZ/7+/kwQBAaAKZVKNmrUKH5YpV28eJE5OjpKr2f5UCgUrFmzZqxVq1Zs4cKFbNu2bSw7O5t/iXtatWoVGzZsGBs2bBhr3bo1UygULDIykqnVaqufEwBTqVSsbdu2TK1WS8fq1avHBg0axGbPns1u3rzJf5oqEQSBKZVKlpKSIh0bNGgQA8Dc3Nzue8Z9//79bPTo0dL31ahRI5aWlsYPs1kJCQnM0dFR+v6//PJLptfr+WEVmjNnDgPA5s+fz4eYQqFgANhLL73EhyTiz+/3339njDFmNpvZ0aNHWZ8+fWTvCY1Gw9atW8efLtO1a9cy7697Pd5//33+JWTy8vIYAPbxxx/zoQpt376dqdXqKv1MCSGE2B5KvOu49PR0KTHiH+PHj2eMMWYwGFhGRgZ/arlGjBjBADBPT0/WoEED1rt3bzZ06FDm5ubGOnbsyA+/b4MHDy7ztYoPlUrFoqOjWffu3dns2bPZ6tWr2a1bt6Rzs7Oz2Q8//GC19MDJyYk1a9aMDRs2jD333HNsypQpbMqUKWz06NHszp07sq/BGr1ezwAwd3d32fG8vDymUqkYADZnzhxZrDwnTpxgHTt2lL42QRBY3759WW5uLj/UZplMJqmMKCoqiiUnJ/NDKiU1NZV5eHiw2NhYZjAY+DALDAxkAFhgYCAfkiiVSgaArVq1ig+xzMxMNnLkSGkMANa1a1d+GGOMsaysLCnRHz58ONu/fz/r3bs3i4mJYbGxsaxVq1asXbt2zMnJiaG0lKUiWVlZDAD75JNP+FCFXnvtNfaf//yHP0wIIcROUeJdx4kJqEajYStWrGDHjh1jTZs2ZQCYo6MjMxgMbOHChaxJkyb8qeVq1qwZA8CaN28uOx4cHMz69OkjO1YVOp2OJSYmssTERPbII4+wRo0asYSEBJaXl8cPvacTJ06wTz75hEVERMhmPa09/vzzT/70MsTEOygoiA+xnj17MgCsQ4cOfEgmIyODDRkyRPa527dvzy5fvswPtXmzZ89mKL2DkpWVxYcrbcyYMQwA2717Nx9ijDH2yiuvMJRenFy5coUPM8YYa9++PQPAnnvuOT4kiY+PZ9HR0dLP/dlnn+WHsF69ejGU/nuxVm/OGGOLFi2SXuPHH3/kw2WcO3eOAWD9+vXjQxWKjo5m33//PX+YEEKInaLEuw4rLi6WZrstb6+npqZKicOff/7J5syZc8+Fa7yGDRsylM5yWqquxNuSl5dXhclsZZ0+fZpNnz6djRo1ijVr1owJgsA8PT3ZoEGDKlUiYjAYGADm7e3Nh9j48eMZABYeHs6HJL/88ots1jUoKIj9/fff/DC7ERISwgCw7t2786FKE5PYe71GQUGB9HMbPHgwH2aMMXbq1CkGgDk7O1e4sNPb25sBYCEhIbLjFy9elGa7p02bJotZ6tSpEwPA1Gq11Rl6nph4v/zyy3zonrZv384AsJMnT/IhQgghdqru9q8juH79OgwGAzQaDYYOHSod9/Pzg0qlAgAcOXIEZrP5vjbuMZlMAFBme/v09HQkJCTIjj2o3Nzc+1qIeS/NmjXDZ599hp9//hnjx4+HUqlEQkICNm3aVOHiPABwcHAAAKnnuqikpAS///47ACAoKEgWEz311FMYNWoUTCYTBEFAbGwsfH198cEHH6B58+YYO3YsXn75Zdy8eZM/tUYYjUZcvXoVS5YswYQJE+Dj4wMnJyf88ssv/NByiQsKLd9b9+vMmTMAgEGDBvEhiYuLCzp37gwA2LlzJx8GADRv3hwdO3ZEUVGR7HvQ6XS4dOkSjh8/jnPnzuHVV19FTk4OAECj0Vi8AjBu3DiYzWZ4eXlh9uzZspilU6dOAQCio6Ol9wQA3Llzx2LU/5eVlQUAuHbtGh+6p/Pnz0OhUCAqKooPEUIIsVOUeNux48ePY+XKlVa7iKC03zQs+oRbEs9xcHDA7t27cevWLX5IucTEm0+ITSZTtfbqLikpgdlsliU31WXp0qUYNGgQAgMD+dA9CYIg67d+/fp1REdHS0mXtb7LycnJWLt2rfQxYwwJCQk4efIktm7ditOnT+PHH3/EggULEBYWhvDwcOTm5speoyq2bduGhQsXYtasWXjqqafQokUL+Pv7w9PTE46OjoiMjMS4cePw/fffIzMzE3q9HklJSfzLlEt8D3l5efGhSouPjwdKO4Pcy0svvQSUdrUp77369ttvw8HBAUePHkXDhg3h7OwMjUaDRo0aoU2bNmjatCnmz58vXWQOHz5cOnffvn3Yt28fAGDu3Lnl9tTPyspCUVERAGDAgAEAgMLCQvTp0wctW7bkRv8f/gK1slatWgU3Nze4uLjwIUIIIXbK+l8XYhe6du2KZ599FuvWreNDAAA3NzcAgMFgwCuvvCId/+KLL2AwGAAAjRo1gpOTk5RMV8bdu3cBAA0aNJAdN5vN1ZIwisQLh+o2f/58nDp16p6zrLy5c+eid+/eEARB+rrmzp2LuLg4JCUlQaFQYMmSJWjfvj1/KgIDA9GiRQt4e3vj0UcfxfDhwzFx4kQ8+eSTeP311zFo0CAMGDAAWq0WjDHcuHEDwcHBD3QRk5CQgL59+2LSpEmYOXMm1q5di/j4eKSlpUm/I41GAw8PD7Ro0QJDhgzB5s2b8c477/AvVS4xOT127BgfqrS8vDygEu0AW7duLT0XW1ny+vfvD61Wi9WrVyMxMRHFxcX8EJkPPvgADRs2RElJCd5++20AQEhICJ555hl+qCQjI0N6HhQUhOzsbERERGDHjh3lnide+N7vBUpycrLURpMQQkgdwdeekIcrJyenUh02mEWbtbFjx/IhxhhjO3bskOqJd+zYwRhj7JNPPpGOhYWFMaPRyFq2bMkAsPz8fP4lyhBraQGwJUuWyGJiPfnt27dlx6sqMzOTAWADBw7kQw9k5MiRDEClf85t2rRhAFhcXBxTq9WsSZMm0mI+AMzV1ZUtWrSIP03m7bffZgMGDOAPl7FmzRrpdZOSkvhwpen1evbOO++w1157jX344YfsvffeY2+88QZbsWIFO3r0aLkLB++Hn58fQ+mix4kTJzKTycQPqVCLFi0YALZp0yY+JJOSkiL9XPbt28eHGSut4RfHWHvUq1ePPfvss2zevHksIiJCOu7v7y89j4+P519W5uzZs9LYGTNmMF9fXwaABQcHl/v9//jjjwwAi42N5UOMMcZ+//139scff8iOHT9+nAmCwFq0aCE7TgghxL5R4m1Dli9fLv1Rb9OmDR8uw9nZmQFgLVu25EMsNzdX2lnP2dmZJScnsw4dOkiv7+npyVJTUxmzSH4se1OXR+ySolQqyyws8/HxYQBYp06dZMer6vLlywxWFnE+CLPZzDw8PO7Zms7SDz/8wFCaXD7zzDNl+oiHhoZW2HfbZDKxoKAg9umnn/KhMgoKCqTXvnHjBh+uNUePHmUfffTRPRP0O3fuSL9zlC463bZtGz/snho0aMAAsOnTp/MhmaSkJOnzlNeBxmQySRej4kOpVLKOHTuyOXPmyBbQms1m9vTTT8vGNmvWTPZ61pw/f14aL34utVp9z/eAeAE8dOhQPsQuXrzINBoNmzBhguz4W2+9xQCwpk2byo4TQgixb5R42xAPDw9ZIsDPKPOioqIYyuklLLZ6Q2nbQMuExNfXV7YN9cCBAxkA9u2338peg7d//37pNV599VU+LHV70Gg0fKhKLl26xACwJ598kg9VmZjMN27cmA9ZNXr0aNnvRHy4urqWmwDy9uzZwwRBYNeuXeNDZVjO2vIXNjWtpKSEffDBB9JsviAIFc4AZ2RksP/85z+yn423tzebN29epfp6ixebvr6+zGg08mHJsWPHpNc/e/YsH5akpaWxlStXsk2bNlXq5x0WFia97vr16/lwGeJ7Unw4OjpWeLGxZMkSBqBMy878/HwWFxfH/P39WWZmpiz22GOPMVDiTQghdQ4l3jZi48aNDABzcHCQSj98fX3vuWNdXFwcQzmJd79+/WQJgvgYPnx4mYRObFvm5eVVbvJz5coVqZTE19eXFRcX80PYqVOnmCAIrFGjRnyoSvbu3ctQ2ue6uqxYsYIBYB988AEfsioxMVFqZSfu1lmvXr1KtR8U9e/fv9LfwxtvvMFQugtkbUlISGAzZ86UZq+VSiUbPXp0hUm3pddee03WKlF8BAcHsxdffFG6u8KzbG1pra+26OWXX5a+tpKSEj5cZX369GEovcio7Ov279+feXh4sIiICLZ582Y+XMb69esZuDs3RqORtW7dmgFgX3/9tWw8Y4wNHz6coZx/24QQQuwXJd42IiYmhgFgEydOZHfv3mUODg4MAJsyZQo/VNKuXTuGcjZ0+fvvv2VlEU2aNGGXLl3ih0mCg4MZSvsp88n++vXrmUajkRKU+0nIHsTmzZsZgGqtc+3WrRsDwD766CM+VC6TySTtKOnn58caNGjADymXWKfev39/PlRGamqq9Huvyi6HvF27drFJkyaxZcuWsTNnzsguqhITE9m8efOknwdKy4+eeOKJe84oW7N69WrpvfbNN9+wQYMGlUnCBUFgK1eu5E9ljDH25ZdfSuM6derEzp07J4tfunRJ2hk0JiZGFnsQJpNJ2kzKycmJD1ebQ4cOMZTuulpSUsKMRqO04VKzZs3KXAgziwtntVrNhwghhNgxSrxtgLjluEKhkBb8TZ48WUoILly4wJ/CGGNS0nCvWbF27dqxzp0784fL+Pnnn6XkSaVSsZCQEObr68sCAgKkpMjJyYnt37+fP7XGrF69mqG0rCM7O5sPV8kTTzzBcI9dEivi7+/PfHx8+MPl2rp1KwNQ4e6DRqNR+n26ubk90E6Qoo8//lj63Yk/Rx8fH6n2H6UJcVhYGHvjjTdYYWEh/xIVMplMzNPTkwFg7dq1k47n5+ezd999l7m4uEifKy4uTnauJXHmWXy4uLgwrVbLPDw8pCReoVCUu3NleQ4fPmx10WNWVpZsgWV1bdJkTX5+vnThEBQUJH1eR0fHcu8EiGVdlak7J4QQYj8o8a4Bs2bNYhs3buQPl2vq1KkM3O59RqNR2mGvvKRArMW1NuMtevzxxytdz7xy5UqpnIR/NG3alB06dIg/pUaJFx8A2Nq1a/lwlYidOA4ePMiHKqVjx45MqVSyjIwMPmTVCy+8wFCJ+vnBgwczlCaX1XlH4fbt22zTpk1s+vTprEOHDkwQBObr68s6dOjARo4c+cALOPfs2SP9jvr3789efPFF1r17d+bm5iZ7/wiCUOH26r/99htzcnIq895DaQlWRT9DSzk5OSwmJoY5OTmxvLw8WWzp0qXSxQJKd8O0lpxXJ8v3MkqT7lWrVvHDZDIzM++rpIkQQojto8S7BowePfq+SgXE284//PCD7Pivv/4qzULPnTtXFmOMsebNmzOUtgUsz6RJk+7r9rzRaGRz585lM2fOZBMnTmTTpk2rsFVeTfnss8+kRKWihaaVJXbROH36NB+qlL/++osBYAsWLOBDVk2aNIkBYIsXL+ZDjJV21+jfv7/0fb7xxhv8EJu2a9cuWULJP5RKJevVq1e5d22sOXXqFBs/fjx788032YQJE9jYsWPLlJ9UROy+Y1mmdPXqVdlCUKVSycaNGyc7ryb98MMPLC4ujrVo0aJM+0BCCCH/DpR414AXX3yRvfvuu/xhq4qLi5kgCMzJyclqrecjjzzCUNoSkO/SUL9+fYZy2gmKdDpdtZVp1LYxY8ZISVJ5vZvvlzjT+ddff/GhShFbA1a2ZeKIESMYAPb555/zIZaTkyOVvgBgc+bM4YfYPJPJJM1uC4LAlEol8/LyYu3bt2erVq2y+p6uaZa9to8dO8auXLnCxowZI6s7d3Fxua+7UoQQQkh1oJ0ra4CTkxN0Oh1/2KqjR4+CMYZWrVpZ3Rp9w4YNCAgIQFFREeLi4pCSkgLg/7brTk9PBwCruyWKnJyc4OnpyR+2C7dv35aex8TEyGJVpVKpAADOzs58qFIUCgWmTp0Kf39/PmSVuEvk+vXrpd1BGWNYu3Yt/P39sXHjRqhUKrz66quYOnUqd7btUygUyMvLA2MMZrMZRqMRWVlZOHLkCEaMGGH1PV3TTp8+LT1/9NFHERUVhZUrV0o//9GjRyMjIwODBw+2OIsQQgipeZR414Ds7GwkJibyh62aM2cOAGDMmDF8CACg1WqxadMmKBQK5OfnIyQkBIMHD0bnzp2lbd+HDh3Kn1YneHh4AKXbeGu1Wj5cJeLPbP/+/Xyo0iZPnoz169fzh6364osvIAgC/vnnHzg5OUGhUEChUOCpp56CTqeDSqXCnj178O233/Knkiqy3Jq9qKgIjDEAQLdu3XDmzBn89NNP0Gg0FmcQQgghtYMS7xrg4uKCkydP8oetSktLAwD07duXD0natWuH8+fPQ6VSwWg04tdff8Xhw4cBAEFBQejWrRt/Sp2wYsUKTJkyBXv37uVDVdayZUsAwPTp09G2bVs+XO1iYmIwf/58uLq6wmQySUmgQqHAxx9/jLy8PHTs2JE/jTyAxx9/HAMGDIC3tzeioqIwadIkJCUlYffu3WjatCk/nBBCCKk1AhMzAVJtLl68iMaNG2PLli3o168fH5aYzWZ4e3sjMDAQ58+f58NlZGZm4tlnn8XBgweh0+kQHh6Offv2wdfXlx9KypGfn4/evXvj9OnTePHFFx/aTLPZbIZCQde9hBBCyL8JJd41gDEGT09PvPjii/jyyy/5sCQhIQFNmjTBs88+i+XLl/NhQgghhBBSh9CUWw0QBAGenp5Ys2YNH5JJSEgAAHTo0IEPEUIIIYSQOoYS7xoydOhQ3LlzBzdv3uRDkscffxwLFy7EqFGj+BAhhBBCCKljKPGuIR06dABjDBs3buRDEldXV0yYMKHKre0IIYQQQoj9oBrvGpKZmQkfHx+0bt0a//zzDx8mhBBCCCH/MjTjXUO0Wi2USiVOnz6NSZMmVXpDHUIIIYQQUjfRjHcNaty4MS5evAgHBwfodDoolUp+CCGEEEII+ZegGe8atG3bNnTt2hULFiygpJsQQggh5F+OZrwJIYQQQgipBTTjTQghhBBCSC2gxJsQQgghhJBaQIk3IYQQQgghtYASb0IIIYQQQmoBJd6EEEIIIYTUAkq8CSGEEEIIqQWUeBNCCCGEEFILKPEmhBBCCCGkFlDiTQghhBBCSC2gxJsQQgghhJBaQIk3IYQQQgghtYASb0IIIYQQQmoBJd6EEEIIIYTUAkq8CSGEEEIIqQWUeBNCCCGEEFILKPEmhBBCCCGkFlDiTQghhBBCSC2gxJsQQgghhJBaQIk3IYQQQgghtYASb0IIIYQQQmoBJd6EEEIIIYTUAkq8CSGEEEIIqQWUeBNCCCGEEFILKPEmhBBCCCGkFlDiTQghhBBCSC2gxJsQQgghhJBaQIk3IYQQQgghteD/AQqgrV7e+t8SAAAAAElFTkSuQmCC;" vertex="1" parent="1">
          <mxGeometry x="-160" y="421" width="734" height="338" as="geometry" />
        </mxCell>
        <mxCell id="EX5GsLF4o7m4hrYXssAP-14" value="" style="shape=image;verticalLabelPosition=bottom;labelBackgroundColor=default;verticalAlign=top;aspect=fixed;imageAspect=0;image=data:image/png,iVBORw0KGgoAAAANSUhEUgAAAn4AAAIMCAYAAABrOqGqAAAAAXNSR0IArs4c6QAAAARnQU1BAACxjwv8YQUAAAAJcEhZcwAADsMAAA7DAcdvqGQAAPD4SURBVHhe7N13eJPV+z/wd0aTpnvvli7KhrL3VECWgCIIgoIIHwRFQQVEQJyIgyWKOBBBQREQWbL3ki2jBdrSvfdImjbj/P74Neeb53SlbbrP67pykeQ+z5OQtsmdM+4jIoQQcBzHcRzHcU2emL2D4ziO4ziOa5pEvMeP48qXnZ0NtVoNmUwGsfj/f0/SarXQ6XSQy+UAAI1GA0IIZDIZAECtVsPCwgISiQQAoFQqYW1tTc9pfFun00Gj0cDS0hIAUFRUBJFIRM9VWFgIuVxOH7ugoAA2NjZAyeNmZWXRtsXFxXBwcIBcLoe1tTW9n+M4juMMeOLHNXj5+fnQarXQarXIz8+HRqNBYmIiFAoFlEolsrKycP78eVhbW8PR0RHZ2dl4/PgxwsLC4OHhAScnJ2g0Gvz3339QKpVwd3dHYWEhcnJykJWVBbFYDBsbG4hEIqhUKhQXF6Op/FnIZDIEBQXB0tISeXl5aN++PQYOHAgvLy/odDr07NkTfn5+sLCwYA/lOI7jmiCe+HG1TqlU4s6dO5BKpcjOzkZ2djaioqJw+fJleHt7Q6vVIjs7G48ePUJ0dDSsrKwgEolQWFiI/Px89nScmYlEIri5uUGj0cDBwQGjR49GSEgIPD094erqih49etDeTY7jOK5x44kfVy35+fmIj4/HpUuXEBsbC2dnZ2RmZuLevXu4ceMG7O3tUVhYiOTkZKhUKvbwRsHOzg4AoFKpIBaLYW1tDUIIlEolCCE0QVUqlQAAa2tr6PV62t7GxgbFxcV06FehUKCwsJAO7cpkMhQUFECv18PKygpisbjMc0kkElhbW9Nj5XI5ZDIZlEol9Ho9HTZWKpUQiUQghECn0xn9T2pGJBLB29sbrq6uKCwsRK9evdC9e3f4+PhAoVAgKCgIPj4+fGiZ4ziuEeCJXxNXUFAApVIJmUwGtVpN55IVFhZCoVDQ61KpFAUFBcjPz0dcXBwIIYiPj8ehQ4eg0+lga2uLhIQE3L17F8XFxdBqtcwj1Q65XA6tVgtHR0fY2dlBJpMhNzcXSqUSrVu3hre3N+RyOaKiouDh4YHu3bvD2toaEokEiYmJaN++PRwdHaFQKJCbmwu9Xo/WrVvTYWErK6sm25ulUqmQmZmJlJQUxMTE4OzZs/R1uHnzJsLDw6HX66FWq9lDq8XOzg5arRa2trbo2bMnPDw8kJycDE9PTwwcOBCurq6wsbGBra0tvL294eDgAJFIxJ6G4ziOq0U88WvE0tPT8euvvyIiIgLZ2dk4evQoNBoNJBIJ8vPzodfr2UPqnEQigY2NDbRaLQICAhASEgJHR0dIpVIkJCSgT58+CAoKgqOjIxwdHWk7hUIBe3t79nRcLVCpVIiLi8P58+eRkZEBpVKJx48f48SJE8jOzq7VJF8qlQIA3NzcYGlpCa1Wi6ysLLi5uSEwMBBFRUWIi4uDvb09OnToAJlMhnv37sHV1RV9+vSBra0t4uLiEBQUhNatW8POzg56vR6tWrWiPbYcx3Hc/+GJXyOh0Whw8+ZNHDp0CNu3b0d+fj4yMzPZZnXG3d0d/v7+KCoqgoWFBYYNGwYPDw/Y2dkhMzMT/fr1g6+vL9zc3OiKVK5xMiSC169fx7Fjx2BnZ4f8/HyEh4cjPDwcOp2uVpPD6lIoFFAoFCCEoEuXLujZsyc0Gg1at26NQYMGwdfXly9q4Tiu2eGJXwP24MEDHDhwAGvWrEFaWlqVevDEYjEUCgVEIhF0Oh3s7e2Rm5sLmUwGuVyOvLw82NrawsLCAtnZ2bC3t4e3tzdyc3NRUFCAvn37IiQkBBkZGfDx8UHfvn3h5uYGV1dXuLi40J4ajkPJdIGMjAxcv34darUaxcXFSE5OxuHDh6HT6eDo6Ijk5GSEhYXRFdr1TSwWQyKRICgoCD169IBIJIJCocCgQYPg6OiIwsJCeHh4wMfHB3Z2drC1tWVPwXEc1+jwxK8ByczMxJkzZ7B27VrcunWr0kURLVu2hKurK/z8/PDCCy8gODgYvr6+gppxHNdQ5efnIysrC+np6ZBKpdDpdFCpVLh//z78/PygVquh0Whw48YNWFlZwcvLC+np6bhx4wYkEglcXFyQmJiIW7duwcLCAra2tkhOTkZmZmaVviRVhWHqgmGupCFxlEgkSEtLg0ajQbt27eDo6IhHjx7BwsICoaGhkEqlCA8PR05ODjp16gR7e3vk5eUhMTERXbt2hbOzM4qKivD48WN06dIFvr6+sLW1hUQigaWlJYKCguDs7ExrQ3Icx1UXT/zqkUajwaVLl/DVV1/hwoULdPFBWcRiMbp164aRI0eiZcuWGDJkCDw8PNhmHMeVFMJOS0vDw4cP8e+//0IulyMsLAxHjx6FWq1GYWEhCgsL2cMaPMN8WWdnZ4SGhtLV9HK5HMOGDYObmxucnZ2h1WrRuXNnODo6sqfgOK6Za9aJX3h4OA4dOoSkpCTBTguGb/X5+fmwsbGBi4sLxo4dC1dXV/YUVZKUlIR79+5hz549OHfuHBITEyusU+fj44MXXngBI0eORJ8+ffjwKseZUUJCAs6fPw+RSITo6Gjs27cP2dnZ8PT0REZGBqKiomgh7+LiYvbwRsHKyooWLPfy8sKwYcPg5eUFKysrODs7o0+fPnBzc2MP4ziuCWu2iZ+npydSUlLYuyskFoshl8uh0+ng4uKCnJwc6PV6uLu7IysrC8XFxXB1daUrEw0lQ3JycpCbm1tpbTV7e3uMGzcOQ4YMQe/evdGyZUu2Ccdx9UCtViM9PR0qlQpSqRQ5OTlISUlBUVERLWMTFhaGvLw8+Pj4QK/X4/r16ygsLES7du0gEokQGxuLzMxMtG/fHkqlEnFxcYiIiEBwcDAsLS0RExODqKgoODs7w8LCArm5uYiLi0NxcXG5IwHmoFAo4OXlBbVaDX9/f4wcORItWrRAixYt4OzsjJCQED7EzHFNSLNM/LZv344XX3yRvbvOWVhY4Mknn8Tw4cPRvXt39OnTh23CcRyHoqIiZGZmIj09HRcuXIC9vT0KCgqQlpaGkydPIjc3F+7u7sjJycGjR4+Qm5trtm0HxWIxTQQ1Gg0UCgWGDh0KNzc3ODk5obi4mC6Csbe3h52dHU8UOa4Ba5aJn5OTE7KzswEADg4OaNeuHaysrCCVSukblrW1NS14nJOTg9u3b0OtVkOn09Hix2q1GoQQ2NjYoLCwEFqtlu64UFhYCJlMRndrKC4uRkBAAIYMGYLg4GDY2NhgxowZtIgyx3GcOeXl5SEhIQGxsbE4ePAgpFIp9Ho9oqKicOXKFSiVylobwhaJRLCysoJMJoNUKkVubi5sbGzQpk0byGQyJCUlwd3dHa1bt4aFhQXCw8MRFBSEzp070x7VIUOGwNvbG+7u7rzQN8eZUbNL/FavXo0lS5YAJXP5cnJyYGNjwzbjOI5r8tRqNWJjYxEREYF9+/ZBIpGgsLAQMTExuHXrFgoKCthD6pxIJIJMJoO/vz8KCgpACMHIkSPRpk0bSKVSjBgxAgEBAXwONMeZqFklfoWFhbCxsaHzZT744AOsWLGCbcZxHMcB0Gq1SExMRGxsLKKjo/HXX38hPT2d1vxMTExEZGQk9Ho9RCJRrfUgVkYikcDCwgJubm4YNWoUpFIpvLy88MwzzyAwMJAnhRxnpFklfsYLOuzt7ZGTk8M24TiO46qpuLgY+fn5SE5OhpWVFfLy8qDT6fDo0SO6JV9qairOnDkDNzc3Wlj++vXrsLOzg42NDe7cuYPU1FRIpVLk5eWxD1FlUqkUMpkMrVu3xqhRo+Dl5QUfHx/069cPDg4ObHOOa/KaTeI3depU/Pbbb/T2mTNnMHDgQEEbjuM4ruEoKirC/fv3odFoUFBQgNu3byMiIgISiQT//PMPkpOTodFoKq2YUB4bGxuIxWL4+vpiyJAhdIFMr1694OnpSXc3cnZ2pnuMc1xj1ywSv8jISISEhNBVbhMnTsQff/zBNuM4jqvQjh07MGXKFPZurh5ptVrExsbi0KFDKC4uRkJCAv7++2/k5ORAqVRCo9Gwh1SbXC6HRCKhRbQNK5mVSiXS0tLQoUMHuLm5QSqVIi0tDWlpaejZsyecnZ1BCMHjx49ha2uLVq1awcHBARkZGcjMzESrVq0gEomQn5+PtLQ0dOrUCTKZDDY2NoiLi0NAQAAdSk9KSkKHDh0glUrpXtSenp58AQxnsmaR+Pn5+SE+Pp5ej42NZZtwHMdVaPv27QgNDUWHDh3YENdAaTQa3L9/H/v374dWq8WDBw9w7NgxFBQUVLuXsKEy1JMUiUTo1q0bOnTogLy8PLRr1w6DBw+Gn58f3N3d2cO4ZqjJJ36PHj1Cq1at6O3s7OxGP68jLy8PI0eORGBgILZt28aGOY4zI41Ggx07dqBbt25o164dG+YaqczMTDx69AgHDhyApaUlsrKycOXKFTx48AAKhQJisRjZ2dmNcmu/8ohEIjg6OmLw4MHw8vICIQTjxo2j2/9xzUOTT/x69+6NK1euAADatWuHe/fusU0anfnz5+Prr78GANy6dQuhoaFsE47jzODhw4cYMGAA1q5dy4d4mzHDsLFKpUJmZibu3r0LV1dXaDQa5OTkIDY2Fv/99x9atWpF5wH+999/SEtLQ9u2baHVaqFSqXD37l0QQhAYGAilUonHjx9DrVbDx8cHVlZWSElJQW5uLmxtbaFQKJCamorCwkJYWlpCLpdDpVJBo9HAwsICRUVF7NOsEUtLS8hkMnTu3BnBwcEoKCiARCLB8OHD4eHhARcXF+h0OrRo0QIWFhYQi8Wwt7dnT8M1Ak068bt9+zY6d+4MlHzTyc7ObhK/qE888QROnToFAPjmm28wd+5ctgnHcTX04MEDPPHEE3j66afx7bff8jlUXIOj1+uRk5ODvLw85OXlISoqCpGRkRCLxbh79y5OnTqFoqIiFBUVITc3lz3cLMRiMRwcHOgKbZ1OB19fX8jlcmRnZyM7OxseHh607mJMTAz8/PzQqlUrSCQShIWFoX379vD09IRYLEZkZCS6d+8Ob29v2NnZQSwW0yFqBwcH/ndoBk068XNzc0N6ejoAYOjQoTh27BjbpFEaP3489u3bBwD4+OOP8d5777FNOI6rgTNnzmDixIl46aWX8MUXX7Bhjmt0cnNzceXKFeTk5CAqKgqHDh1CeHg4tFot8vPz2eYNmoWFBWxsbKDRaFBUVARra2sEBQXBwcEBqampUKlU6NKlC5ycnAAAiYmJUCqV6Nq1K1xdXaHT6RAeHg5vb28EBgbSRTKGqWGWlpZQq9WIj49Hp06d4O3tDRsbG9jY2MDBwQGWlpbsU2pUmmziN3v2bPzwww9ASRe2UqmEWCxmmzVKw4cPp0ns2rVr8eabb7JNOI6rARsbG8hkMmRlZbEhjmtyMjIycPbsWdy9e5cmT8ePH0dOTg6cnZ2RnZ2N6OhoaLVa9tBmSyKRQKFQoLi4GNbW1nSbVisrKxBCYG9vD4VCAUdHR+h0OigUCri6usLe3h4+Pj5wdnaGVqtFcHAwfHx84OTkBEIIdDodiouLERgYyD6k2TTJxO/777/H//73P6CkG/rChQvo3bs326zRGjFiBI4cOQIAmDNnDjZt2sQ24TiuBgyjBXfu3OGreDnOiFqtpgtekpKSIBKJoFKpkJOTg/v37yM7O5sugiosLMS9e/fg6ekJnU6HhIQEXLlyBQ4ODvDy8kJcXBwiIiJgZ2cHDw8PxMTEICUlBZaWliCEICsri5Zha27kcjkSEhLg4uLChmqsySV+SUlJCAgIQHFxMUQiEX744QfMnDmTbdaojRw5Ev/88w8AICQkBA8fPmSbcBxXA3PnzsWmTZswb948bNy4kQ1zHFdHlEoliouLodVqkZubi/T0dCgUCuh0OhQVFeHGjRtwdXUFIQT5+fm4ceMGkpKSEBISAgsLCxQWFuLmzZsoKChAUFAQxGIxlEolbt++DUtLS/j6+qKgoADp6enIzMyEi4sLXFxckJmZibS0NMhkMhQVFdXL6u7169dj/vz57N011uQSv27duuHGjRsAgMWLF+Ozzz5jmzR6bdu2RXh4OACgc+fOuHnzJtuE47ga+Oijj7BixQr07dsXFy5cYMMcxzUzht1j8vLykJmZifz8fGg0Gty9exchISFISEgAAKSlpSE+Ph65ubnIzs5GRkYG1Go1dDodCgoKUFBQgKKiIuh0Ouh0unJ7NGUyGeLj4+Hm5saGaqxJJX5bt27FjBkzAADt27fH3bt32SZNglQqpcVHW7duTZNAjuPMY+/evXj22WfRp08fXLx4kQ1zHMdVyT///IOjR4/i1KlTFeYmUqkUw4YNw549e2ptEUmTSvxat26Nhw8fQiaTITk5ma7oaUqSk5Ph5eVFb9vZ2dXaMn2Oa65+/PFHzJo1C66urkhLS2PDHMdxFcrKysLJkydx6tQpHDx4kPYIlsXBwQFz587FM888gy5dutR6yZomk/gZ1+xbuHAhvvrqK7ZJk3D8+HEMGzZMcF9+fj5sbGwE9zV04eHheOmll6DT6RAUFASUdKWHhYXB09MTXbt2hY2NDWJiYvD8889jxIgR7Ck4rtYcPnwYo0aNQqdOnXD79m02zHEcV0pubi7OnTuHvXv3Ytu2bdDr9WwTAICrqyueeuopjBo1CsOGDYOjoyPbpHaRJuLdd98lAIhIJCIZGRlsuMlYu3YtASC4nD17lm3WYIWFhZFp06YRiURS6v9R3kUkEpGVK1eS4uJi9nQcVys+/vhjAoDY2tqyIY7jOEIIIdHR0eTXX38lr732GnF0dCQikajU5xcA4unpSVxcXAgAsmzZMqLT6dhT1ammUdgOwK5duwAAffv2bdJ7Dt6/fx8AYGVlRe/Lzs42atEwnT17Fs899xzat2+P7du30zmK1tbWCAwMRGBgIK32LpfLBccSQrBy5Uq4uLjgwYMHghjH1QZXV1eg5PeT4zjOIC8vD8ePH8cLL7yAgIAATJ06FRs3bkR2djYIIXB2dsaECRMwc+ZMfPrppwgPD0dSUhLdaMHR0bHeawrX76ObiV6vR0xMDFCyyrUpMww7tW3blt4XGRlp1KJhUalUGDFiBAYNGoTdu3dDr9dDJBJhzJgxuHLlCgoKChAVFYWoqCjExcVBrVZDrVaDEILc3Fz89ddf8Pf3B0r+4NatW8c+BMeZneGLla2tLRviOK4Z0ev1uH//Pn766ScMGTIEDg4OGDZsGE6cOAGJRIKAgABMmzYNH330EQ4dOoS0tDT8+eef+PHHH/Huu++idevWAEDr8WVkZDCPUPeaROIXGRlJe5DmzJnDhpsMrVZLS7cYqoIDwKNHj5iWDcPVq1fRpUsXWmwaACZOnIhbt25h//796Nmzp6A9y87ODuPGjaPb04FJeLnak5KSgoiICPbuZsNQGzMpKYkNcRzXjLz//vt45ZVXcO/ePUyePBlbt25FQkICUlNTodVq8fjxY2zbtg3Lli3DyJEjy+3NM4wiGLaRrU9lP8NG5rfffgNKtlBp1aoVG24y7t69SyeLent7Izg4GGiAiZ9Wq8XKlSvRt29f+gEaHByMI0eO4I8//kCnTp3YQ0xW0R9Nbm4uhg4dik6dOmHMmDH477//2CZciQcPHuC7777DDz/8gA8++ABPP/00vLy80K1bN7i5ucHT0xOtW7dGamoqe2izUFRUBJT8LnMc13x99NFHuHz5MtauXYtZs2bhxRdfhLe3N9usUobEryG8pzaJxM/Q2+fo6AiJRMKGm4xLly7R63PnzoWfnx8A4NatW0at6tft27fh4eGBDz74AFqtFhYWFvjggw8QHh6O4cOHs81NYjyHMScnRxAzNmrUKJw4cQJ37tzBwYMHERoaCicnp2Y/L1Cr1eLatWtYu3YtnnnmGbi7u6NNmzZ49dVXMXv2bKxcuRIHDhxAcnIy7t27h5CQEMyZMwdbt26Fu7s7e7pmwdfXFyjpdeY4jqspQwGVM2fOsKE61yQSP8ML2tT31Lx8+TIAwNLSEp07d6a9EoZtbOpbamoqhg8fjszMTKCkruKlS5ewYsUKSKVStrnJjHtdBg8eLIgZ6PV6+voYy87ORteuXbFixQo21GQlJCTg119/xahRo+Di4gI7Ozv06NEDCxcuxF9//SWoSyeRSNCvXz/MmTMHGzZsQGZmJi5cuIBNmzZh2rRpgvM2R02k2hXHcfXMUFc4Pz+/3qeQNInE7/jx40Alw4BNgaHHr1u3bpDJZBg7diyN1XetsaysLAwbNowmFV26dMHNmzfRrVs3tmmVGXeNl7diOzw8nA6Df/3117h79y6dQ6hSqfDRRx8hNDQUKSkpzJGN340bN7BgwQK8+OKLdHX0tGnTcPjwYWRmZpbaY7Jly5aYMWMGvvvuO6Snp+P8+fPYtGkTXn/9db6KtcSdO3eASnqYOY7jTBUQEEBHEup7G8gmkfgZeHh4sHc1GampqYiOjgYA9OnTBwAERY2vX79Or9e2EydOQCaTwcvLC4QQ5OXlYcSIEfTDcsKECbh69SpdfFJTxos7yiuIuX37dnp97NixaN++Pa5cuYK///6bDv//999/aN++PbZs2WJ0ZOOj0+lw/vx5LF68GG3btkW3bt2wbt06bN++nf6OGHN3d8f8+fPx559/Ijk5GY8ePcKWLVvwv//9r+4LhzYShl5mwzQSjuO4murbty8A1Ps2kE0i8TPMw+nVqxcbajKOHTtGr/fu3RsAEBgYSLuPb9y4QeO1bfr06dBoNEhOTsY333yD1q1b4+rVqwCA8ePHY+fOnWaba6nT6egQrkwmK3clsEqlAkqGwQ3fqgDg6aefxr1792iynJmZiZkzZ6Jdu3YNugwOKzU1FX/88QeGDx8OmUyGAQMG4PPPPy9zn2Y/Pz9MmzYN33//PR49eoSUlBSsX78eEyZMaNJfjswpMDAQKNk3k+M4zhxCQ0MBowWp9aVJJH6JiYlASYmTpurbb7+l1w2Jn0gkQpcuXYA6TPw2bNhAX28AWL9+PZKTk4GS57Vz506zflj+9ddf9PHeffddQeFqY4bEs6zEsHXr1rh48SK+//57mpCGhYWhffv2eO+996BUKtlDGoSioiK8//77aN++PTw8PPD888/j2LFjpXo9bWxs0KpVK3z22WeIjo5GbGwstm3bhlmzZqFly5aCthzHcVz9MExVyszMrNdpR00i8Xv8+DEAIC4ujg01GYbkx9bWVrDSsmvXrgCAmJiYWp/jmJaWho8++khwn2Fo0cHBAYcPHy6160ZNrVy5Eijp7auoRqNhjiObFBmbNWsWLly4gPbt2wMlidWnn34KBwcHzJ8/v8xh0pr666+/4OvrC0tLS6xevZoNl+vEiROwsrLChx9+SHdrMaZQKDB//nycOnUK2dnZePDgARYvXkyLXXMcx3ENS//+/en1+hxxahKJn6G6fkhICBtqEmJiYhAfHw8AmDFjhiDm5uZGr2/dulUQM7d+/frRquOGXj2dTgeRSIQDBw7AwcGBOaJmNm/eTJOe3r17lztMWVxcDI1GA5SUdKlIr169cPfuXRw4cAAtWrQASuZzff311wgODsYTTzyBDz/8sMa1lhISEjB58mQ888wzSEhIQFFRETZt2sQ2K9eECRNKJbFubm5YvXo1Hj58CJVKhfXr12Pw4MFm7WHl/j/DFwmtVstX9nJcPdPr9Rg4cCBkMhmsra0xfvz4RrFVKSsgIICOOtVn4iciTeBdzd/fH7Gxsdi6dSteeuklNtzobdq0CXPnzgUAHD58WLCo4+HDh3RLmClTptTa3IHNmzfTHjd/f3+oVCq6gnf27NnYvHkzc0TNREREoFu3bsjLywMA7N+/H2PGjGGbASUreg07epw9exYDBgxgm5SpqKgIzz//PE6dOkUfx1hgYCB69uyJtm3bwtnZWTBsmpiYCJFIBC8vL6Ck7Mft27eRlJSECxculFpsIxKJsHXrVrz44ouC+8tCCIFEIqEJx4gRI7B582bB3EWudg0aNAhnz56FWCyGVquFSCRim3AcVwc0Gg1atGhBpxQZvPHGG41yC8+AgADExMRg2bJlpUbQ6gxpAlq0aEEAkK1bt7KhJuHpp58mAIilpSVRKpVsmPTu3ZsAIC4uLkSj0bDhGrt//z6xsrIiAIhMJiNXrlwhIpGIACAikYhkZ2ezh9SISqUinTt3JgAIALJ+/Xq2icCXX35J2yYnJ7PhSmm1WnLw4EEyduxY+v8y58XZ2ZncvHmTfdhyHT9+nB5raWnJhrk60KNHDwKAdOjQgQ1xHFdHVCoVCQ4OLvWe6ubmRk6ePMk2bxQGDBhAAJARI0awoTrTJIZ6DT1PtTFHq74VFxfj9OnTAICBAweWubhh/PjxQMnmz8a7e5hDUVERJk+eTFfN/vDDDygqKhIMf5l7qHHMmDF0N5IpU6Zg/vz5bBMB4wLPxkPfppJIJBg1ahT27duHO3fuYN68eXjxxRfRtm3bcvddrIhMJqPX/f39kZycjM6dOwvaVMQwrxElpWm4umfYBrFdu3ZsiOOanOvXr2PJkiVYuHAh5s6di507d+LEiROlppvUpcLCQvj7+wuGRAcNGgS9Xo/U1FQMGTJE0L6xMAxR1+sOHmwm2BgpFAoCgHz66adsqNHbsWMH/Zazdu1aNkwIIeTx48e0zZtvvsmGa6Rnz5703JMnTyaEEPLGG28Ivn39888/7GHV9sILL9DztmzZkhQUFLBNSvntt9/oMTqdjg3XSG5uLvn555/J/PnzyXfffUc2b95MNm/eTN566y3y9ttv09vffPMNmTVrFlm/fj2RyWQEAFEoFCQqKoo9ZYVUKhU9HgB58OAB24SrZYmJifT1f//999kwxzUpzz//vOD93PhiY2NDxowZQzZu3EjS09PZQ2tNQUEBadu2reC5vPzyy2yzRmn8+PEEAJFKpWyozjSJxM/FxYUAIHv27GFDjd4TTzxBf/GvXLnChqmQkBACgFhbWxO9Xs+Gq2X9+vX0sS0tLUlOTg4hhBBXV1cCgIjFYgKAPPXUU+yhVabX68n8+fPp44lEInLx4kW2WZnWrFlDjzN34ldVjo6O9Lls376dDVfq7bffpseHhoayYSo2NpZ8++23pE2bNqRz587kueeeIyNGjCAtWrQg/fr1I2PHjiWBgYGkd+/eZOzYsWT//v3sKbhyHDx4kP4Mdu7cyYY5rsn45JNP6O+6KRe5XE569OhBZs2aRZYsWUJ27txJ1q9fT/bv30/WrVtHvvzyS/LBBx+Q3Nxc9qGqpH///vQxRSIRWbRoEduk0Vq+fDn9v5U1dasuNInEz9bWlgAgBw8eZEONXqtWrQgA4ujoyIYEnnrqKfrL9Oeff7LhKjt8+DCRSCQEALGwsCB79+4lhBBy8uRJ+jiGnlaZTEYyMzPZU5hMr9eTefPm0fM6ODhUaf6GcYJanz1kR48epc+jRYsWbNgk3bp1o+f49ttv6f0qlYrs27ePhIaGEmdnZ9rG1ItEIhE8Dle+SZMm0dftwIEDbJhr5PR6PcnKyiKZmZkkIiKCaLVatkmzoNVq6Weni4sLuXPnDgkPDycXL14ke/fuJVOmTKGfP1W9+Pn5sQ9nstdee01wrvfee49t0qitW7eO/t/i4uLYcJ1oEomfVColAMixY8fYUKMWFxdHf0Fee+01NiwQHh5OE7UuXbrUqNcvLCyMODg4EJR829qxYweNXb58mT6n//3vf/T6jBkzBOcwVW5urqBL393dndy5c4dtViG1Wk0Xn5Q3HF4XBg8eTP8fp06dYsOV0mq1dHGJpaUliYqKIsuXLyf+/v7E0tKSntv4IhaLiZ2dHQkMDCReXl5ELpcTFxcX4ufnRywtLQWLVTjTPPPMM/Q1S0pKYsNcI5GXl0c+/fRTYmVlRaRSKbG3ty/19wOA2Nrasoc2C4aeJ4lEUuEX5itXrpAffviBjBs3jjg4OAimopR38fDwYE9jMmtra3qe559/ng03etu3b6f/v6os+jOnJvFpYHgRf/rpJzbUqH377bf0/yaRSMi///7LNhEwTsSOHj3Khk0SFhZGe/IAkI8++kgQv3HjBo3t3LmTdO3ald7+448/BG0rc+jQIeLl5UWPd3R0rPANqCKjR48mAMjQoUPZUJ0w7u2rydC38Wppw/mMLyKRiDg7O5P33nuPnDlzhqjVavYUVGFhIbGxsSEo6ZXlTNOrVy8CgDg5ObEhrhG4cOECGTduXLmJHnsRiUQV9vpNmTKF2NnZCb4ANwVt2rQhAEi3bt3YUIW0Wi25ePEi2blzJ1m4cGGp96oBAwaQhIQE9jCTpKSk0PNIJJJaqVJR3w4fPkz/j8ePH2fDdaLRJ35FRUX0Rbx8+TIbbtRGjhxJYDSX7vz582wTgdjYWGJhYUEAkFatWrHhSj169Ii4ubnR1/PJJ58s1XN47do1Gt+yZQv566+/BH+ob731VoXJCCGEpKenk2nTptHjABA7Ozty9epVtqnJDEmyTCYjeXl5bLjWtW7dmv5fqtPbZ2D8mhguYrGY9OjRg2zbto1kZGSwh5TLUDYAABk7diwb5sphmKfZt29fNtRg5eXlkYsXLzbJD0pTpaenlxomRMkk+pYtW5IJEyaQWbNmkdmzZ5NFixaRRYsWkUmTJtFpLGXR6/U0senUqRMbbrRycnLoZ8XZs2fZsEl2794t6P3r1asXCQ8PZ5tViXHHQmXTmxqrixcv0v9jZaXKakujT/zy8/Ppi3jr1i023Gjl5ubShE8kEpmcyA0bNoy+HlVZkXjr1i3i7u5Oj/Xz8yszgTp06BBtM2fOHEIIIf/8849gKNLBwYEMGDCAvP322+Szzz4jL7zwAnnmmWfI6NGjScuWLQXfEOVyOfnoo49IcXEx+1BVEhMTQ8/54YcfsuFa5+TkRFCyuKa68vLy6BuphYUF6d+/Pzl+/Hi1Pszfe+89+no4OTnV+PVtLpKSkujr9sorr7DhBkWj0ZAvvviCfoCj5L2ivj5MCCFEqVSSlStXErlcTqRSKXFwcCByuZyIxWJibW1NZDIZkUgkpGPHjuSJJ56o0Zckg6ysLLJgwYJSPXz29vZk1apVVfqyxLp16xY9X8uWLdlwo7VkyRICgFhZWVVrQdzChQsFv3PTp08v1UlQHXfu3KHnbao1TI17/J599lk2XCcafeKXkZFBX8SwsDA23Gj98ccfgjexL774gm1SprNnz9LEysLCwqSu5IMHD9I5fQDIuHHjSGFhIduMkJIPG8NQ8JgxY+j9v//+O01UTb20b9+e3L9/X3B+UvIz3blzJ8nKymJDFTI8frt27dhQrYqMjKT/p9mzZ7Nhk+Tl5ZHQ0FDi6upKbGxs2HCVjBgxgj4fGxsbcubMGbYJV45Tp07R1+7LL79kw3UmNTWVjB8/nrRt25b4+fkRf39/0rVrV9KmTRvyxBNPkHbt2pX79/bSSy+xp6t10dHRZN68ebTCgqkXiURCYmJi2NOZ7ODBg0QulwvO6ebmRt544w1SVFTENq8y44n4TWno37ApQK9evdhQpXbt2iWYkmLOIXCdTif4WdrZ2ZHPP/+83la/1oabN2/S/9/bb7/NhutEo0/8jL+hR0ZGsuFGa+rUqfT/JZVKq7Qjxe7du+mHgkwmIxs3biyzx+fWrVtk3Lhxgj+0WbNmVTjfhRBChgwZQv/oly5dSt+4lUol+fXXX0nHjh0F5zRcvL29yeDBg8nAgQPJ7Nmz6eOkp6eTjRs3ksmTJ5OnnnqKWFhYEKlUWqWVvYQQsmnTJtK6desafZBUx6JFi+j/sTolXIjRStJhw4YRkUhE8vPz2SYmMXyTR8mk9erOmWyuZsyYUeOfpTkYl7Oo7CKXy8mIESPIrl27yv3CVluKi4vJF198UWYSamlpSfz9/YmDgwOxsLAgHh4exNbWtlRbZ2dn9rSVSkpKIhMnThScRyqVkhUrVlT7b6cshl2hUJJQ1pbCwkJy/fp1snbtWtK/f3/y0ksvkcWLF5Pnn3+e9O/fn6xatYr8/fff5OLFizXqwTTw9fUlAMju3bvZUIU+//xz+vOTSCRk3bp1bJMamzBhQqnfJZFIRAYPHky++uor8vDhQ/aQRiUsLIz+vxYuXMiG60SjT/xu375NX8R79+6x4UZJrVYLhi2qMz/r888/F/zhODk5kd69e5MFCxaQl19+mQQFBZWalDt58mSTuuvnzp0rOE4ikZD27duTuXPnks8++4ysXr2arF27lqxZs4bMmzePfP755+Trr78mmzdvJqtXryafffYZWbx4MRk1ahTp3bs3XZUNgPTp04ds3ry5TouF1lTfvn3p86/OKq3hw4cTAKR3795kwIABxMbGxqSfA8u4BqClpaVZhtGam4EDB9LXsD5fvw0bNpT6+2QvAQEBZNu2beTs2bP1Uqdxy5YtZZb7GDlyZIXzxrRaLTl58iRNIMRiMdukQgsXLqQVDAyX0NBQs7//FxYWCnoTO3bsyDapsfz8fNKnT59Sr2FFF5FIRGbMmFHtL3WGygxisbhKZbhiYmLo6y4SiWpUN7eyHrz169cTT0/Pcv8GQkJCyDPPPEMWLlxIEhMT2cMbNOMNF+bOncuG60SjT/wePnxIX8TU1FQ23CgZ70QBgOzbt49tYpJevXqV+4djfOnUqRNZvXo1e3i5NBoNmT17NmnZsmWpc1XnIhKJSJ8+fWrl22NdMO4lqsobKSnpnTW8BqdOnSISiYQ4ODiwzSqk0WgEHx6+vr4kIiKCbcaZwLDvtVgsrvPes7Jcu3ZNsHLecJk6dSohhJBvvvmG/o1HR0ezh9eKwsLCMpOV4OBgcvr0abZ5uQxlO0ytManVagVfblAyF7m2ai3+/PPPgscy91DvwYMHSWBgYKnXsSoXb2/vKveArVy5kqBkDqSptFotXe0OgLz++utsE5McOHCABAQEEAAmFWVOT08nc+bMIYGBgYK5rOwlJCSE9O/fn6xfv75B/N1WxHiUsr52I2n0id/du3fpi5idnc2GG6WXXnqJ/p/kcnmZw7SmSkpKIp9++qmgRIvh0qFDB3Lu3Dn2kCq5dOkSGTFihEkJJkrmnDk6OhIvLy9ib29PnnvuORIfH8+etlExlJIBUKU3HeMh+Y8++ojs2rWLoKQcgqkyMzMFu7tYWVlVeZs47v8YVvQGBwezoTqn1+vJF198IegRN1ykUqmg0LSrq2ulq+nNITY2VlBkHCUVBEyZS8wyLGQypccvKyuLDB06VPC4/fr1M+uwLqt9+/aCx7OysmKbVJvx4iuUJJVvvfUWOXr0KImLiyNZWVn0EhMTQy5evEh+++03Mm7cOEHlBZQkv4ZdlUzx6quvEhgtzjOF8bZuEydOZMMV0uv1ZNOmTSQoKEjwvF999VW2aYXy8vLIypUryQsvvEA6deokOJfxxdramvTu3ZssWrSo0p7F+pCVlUWf6wsvvMCG60SjT/yMl383xB9ydezcuZP+n7p06cKGqy01NVXwhmJuxudOSEggUVFRJCwsjKSnp9coeW3o/Pz86M/L1CHayMhIWjXfzs6OaLVasnjxYgKADB8+nG1epmvXrgl6DLy9vcm1a9fYZpyJkpOT6Ws5evRoNlynsrKyiIeHB30+UqmUzJ07V7CdnOHy+uuvm2UhQ2W2b98uGGIVi8Vk8uTJ1Vp1TgihRdcr60nLysqibVEyb7m2a7YWFBTQHknDz8HCwsLkv++KnDp1SpDMv/7661X6wqjT6cju3bsF04G8vLxMToINSZOpc1jz8/Pp629hYWHyZ4dGoyF//vkn6dy5M32eTk5O9D2rptUXkpOTyfbt28mCBQtoLyJ7USgUJDQ0tEEtcFOpVPT58VW91XTp0iX6Ila2KKGx+Pvvv+n/qSpDsFz9MJ7jZ4rY2FhauFomk9HhMUPP4TPPPMMeUsovv/wi6GUdP368yW/8XNlOnz5NX8933nmHDdeZnJwc0qVLF/pcfH19yX///Ufjhg9uqVRKfv/9d8GxteX27duCkk0uLi6V1hWtSHFxMT1XRSWQtFqtoKfP0tKyxqMUpjCs5pVIJGTs2LH08Ws69/jy5cuCMl1sgfyqyMjIECw+MaV8V3FxMX3fMHVO5AsvvEAfY9WqVWy4FJVKRTZs2CBI1uVyOXnqqafouYYNG8YeVmMJCQnkp59+ogvkDI8NM+9hX1PGK5f79+/PhuuEaZ9UDdjWrVvpi9hUPH78mIjFYqJQKKr9bZqrO1VJ/JKTkwV77W7bto3GDPPLRo4cKTjGmFKpJLNmzRK8qU2fPr1atbg4IeOdcmq7R6k8cXFxgp6+oKCgUlNYMjMzycSJE6s1vFod586dEyxycHBwqPEeo8Y73QQGBrJh6s0336TtLC0t66znxrDqNTg4mDz55JP0OdQ00TYutbRgwQI2XGXff/89Pd8PP/zAhksxbAMqkUhMfs8w9HxaWlpWOHLz8OFDMmPGDEE9WJQsGkxISCBFRUXE2dmZiESiKm/LWVXZ2dnkl19+IT4+PvR5/Pbbb2yzemGc+NVXkerKP6kaOMO+d+acf9EQqNVqnvQ1Ev7+/vQPuaIPxPj4eMEqSHarJEOMvd9g+/btdAs2lHwAf/XVV2wzrpqMS6hUtCq1NhmXQho8eDBRqVRskzoXHBxMn1NgYGCNe70IIYKde3755Rc2TAgh5K233qJtpFIpOXHiBNukVuj1emJnZ0cAkOXLl5NVq1bR51HdOp2k5O/fMMTr4+Njlh6oDRs20OdmynuBYdcIU4tRGxewnjBhAhsmOp2OHD58mDz99NOCXjaxWEyee+45cvHiRdp2wYIFBCaOaJiDRqMRzEc15fWpC2q1mj4nb29vNlwnGn3it3HjRoJaWmrPcaZYtmwZ/UOeMWMGGyaEEHLixAnBqrSxY8eWmpdlSCC9vLzI8ePHybFjx8j169fJpk2bSM+ePemxKFkA0tgXxTQ0xj1tVV0paQ5r1qyhj+/k5EQKCgrYJnXOeCqNWCw2y+uSn59P5wqKxeIy54wZzytDGXuGV0VmZib55ZdfSIcOHYhEIiHW1tbE1taWSCQSIpfLiaWlJZFIJKR169bk0qVL5P79+/RxHz16RHuqUPJlq7qLaF5//XV63k8++YQNV4vxKmdTEpu1a9cSlCzsM4Xh8xUlizq++uor8u6775JFixaRfv36CYb/DZcBAwaU+XtimNv37bffsiGz0ul0ZNWqVYJ94GUyGUlJSWGb1gvjxK9z585suE40+sRv+fLlBLU0Z4DjTJGVlSX4ttu7d2+yZs0a8vXXX5MjR46QF154QTApPjQ0tMwhE3YVYVkXuVxOnn322SYzn7UhMWy7Z2lpaZbemKq4fPky/R1SKBTVrtFmboZeGpSsojUH4548Dw8PNkyI0fs6ANKmTRs2bJJTp04Rb2/vUvO9KrpYWlqSTZs2lXpuM2fOpG2WLFkieBxTGX9BfPfdd4mNjU2F0zpMYbza1pR6doZEsX379myoTN98802p16isi4ODA5k/f36ZOzGRkl5UQyKfkJDAhs0iMTGRfPbZZ4LFdihJ+upiXqipeOJnBrNnzyYAyLRp09gQx9UZ45IqFV26d+9e5h7IpKRmlfH8P+OLVColK1eurFLZBs50mZmZ9LWujzdj4wn08+bNY8P1xrhHydvbmxw7doxER0ebPD+MdffuXdrzLRaLy1wgcvv2bfpFSSKRmLwIwWDDhg2C3lvji0QiIXZ2doLdJwzDuihZcDFlyhQCgDz33HP0nHv27KFtbG1tq9V7ZCjUzl6qWvvTQKlU0jJdFhYWbLhMhtqEpn5eFhYWCl4fw0UikRBPT0/i6elJli9fXmlFjaioKHqsOb+0ajQasn///jLff0UiEXnnnXeqtGK6LvDEzwwMc2JefPFFNsRxdWr37t2Cnj3ji1gsJr/++it7SCkajYb8+++/ZN++fWTLli3k2LFj5Ouvv661b8nc/2c8pPn888+z4VqVmppKkyF7e/tSUwDq04EDB0r9Lht+n+3s7IijoyOxsbEh1tbWpFevXqRnz55k2bJlZNeuXaV6LYuKimivKioo4Pvcc8/RNoMHD2bD5Tp79myZewVbWFiQwMBA4urqSu9zdHQkb7zxBsnJyRHM4bO2tqYLOzZs2CA4v3FyUZXnZWBcn9X4YsoQbVlee+01eo5WrVqx4TIZEr+qfF5qNBry119/katXr5JTp06RS5culTliURHjjRbMMXf91KlTZNCgQWX+vFu3bk02bNhglq3tagNP/MzA8IOfNGkSG+K4Opeamkr2799PPvvsMzJr1iyybt068vLLL5PLly+zTbkGxLg6gCllMcxp6dKl9LHHjx/PhuvdwoULS324mnIx3o5Kr9cLFnRYWlqWO4fx6aefpu0OHjzIhstUVFRUamcHiURCa2UaLlKplEybNo0O5Z85c0ZQU894aPv27duCx8jJySHe3t40PmLECJPn++l0unJ7Ibt37842r9SXX35Jj3d3dzd5wU11Ej9zMF4kUt3V6Onp6WT9+vWCUkeGi7W1NRkwYAD5/vvv63yaRlXxxM8MDN/OduzYwYY4juNM8u6779I347ou+zBnzhz62NXdnrG2nTlzhvz0009kzZo1ZPjw4aR79+5k4cKFZPHixeT1118nkydPJtu3bye7d+8uc+jy/fffp/9HsVhMvv/+e7YJZUiuxGJxudMiWOHh4aWSAeOLXC4nXbp0EfScr1+/XpD0OTs7ky1bthBUUO7kl19+EZy3ZcuW5PDhwxUOXz58+LDMZMVwEYvFVdpu9Oeff6ZD1QDIP//8wzYpV30lfsRocYdCoSDvv/8+uXHjRrk/36KiIvLff/+RHTt2kHfeeYf4+PiUOZoSHBxMtm7d2qhqmPLEr4b0ej1dVVSVPSI5juOMDRgwgL4ZX79+nQ3XKuNaY6ZM0K+OvLw8snXrVrJ582YyZ84cEhAQQLp3705atWpFQkJCSFBQEOnVqxd57733zP4h+sorr9D/n0gkqnDHiJycHNq2osLOZSlrnlenTp3Inj17BHPQdDod+eijjwSLPnr27Elyc3NJcXExefbZZ8l3330nOLexJUuWCOoaoqScmJeXF+nduzcZN24cCQ4OJkFBQcTT07PUczIu/2S4SKVSMnToULJixQoSGRlZZiJZWFgoWMwBgAwZMoRtVqH6TPw++OCDUv9vlCS+YrGY2NraEkdHR6JQKCpckBMcHEw++ugjEhsbyz5Eo8ATvxoynpDNzifhOI4zlXFZirLKi9Qm48TPXHX7dDod2bt3L/nwww/JE088UWZvSXkXV1dX8ujRI/aUVVZcXCzozUQF8/oM0tLSaNvq1DgrKioqs6fOIDk5WVCQGSXzKqu6aOrevXvEwcGh1GtX0aVFixbk77//JoQQ8vvvvxMvL69yExwLCwsSHBxMBg0aRPr27UuGDh0qSDalUmm1yqLUZ+JHSspaTZkypdz/d1kXmUxGXFxcSGhoKDl37lyDH8qtjHHi5+XlxYbrhIgQQtBI3b17Fx07dgQA5Obmws7Ojm3CcRxXIUIIZDIZtFotJBIJtFot26RWubm5IT09HQBw8eJF9OnTh21SKUIIbt68iUuXLuH06dM4duwYlEol28xkIpEI3377LebMmcOGTBIdHY1Ro0YhPDyc3tenTx9cuHABIpFI0NZYRkYGXF1dAQAdOnTAnTt32CbVotFo8M033+Cdd94R/HynTJmCH374AVZWVoL2pkhLS8OiRYuQmZmJy5cvIzMzk20CW1tbiEQidOrUCUeOHCn1OMePH8fw4cNR1Y9hJycn7NmzB4MGDWJDFdq+fTtefPFFjBw5EocOHWLDdSYiIgI3b96EWCzGgwcPcPPmTXTp0gUymQyZmZkICwvD+PHj0atXL4SEhMDCwoI9RaNl/DuuUCigUqnYJrWuUSd+P/zwA2bPng2RSAS9Xs+GOY7jKpWeng43NzcAQKtWrfDgwQO2Sa2aOHEi/vzzTwCAWCxGx44d4ePjg169esHe3h7R0dGQSqUICgoCAKhUKoSFhUEulyMhIQGRkZEICwur8D3Q0dERnp6eePLJJzFw4EA4OTnB29sbarUaIpEIxcXFOHv2LFauXIm8vDx63IABA3DkyBEoFArB+Spy5MgRjB8/Hmq1GgBgYWGBjRs3Yvbs2WzTUpKTk+Hl5QUAsLS0RE5ODuRyOdvMZHq9Hr/99htWrlyJx48f0/ulUil++OEHTJ8+XdC+JqKjo6HT6SAWi6HVauHu7g57e3u2WSkPHjzAxIkTcffuXTYk4OTkhI4dO2LhwoVo164dfH19q5wQZWdnY/bs2Vi8eDG6devGhrk6YPx+4+npiaSkJLZJrWvUiZ/h24uPjw/i4+PZMMdxXKVu3bqFLl26AACGDBmCkydPsk1qVUFBARwcHKDT6dhQtSkUCri5uaFv37546623EBoaCrFYzDYrJSMjA3379sWjR4/ofU5OTli8eDHmz58PS0tLQXtj8fHxWLhwIfbs2UN7sCQSCU6ePImBAweyzctlZ2eH/Px8AMC8efOwceNGtkmlcnJy8OWXX2LDhg30XAaOjo749ddfMXLkSMH99Umv1+PTTz+FWq2GVqvF1atX0bp1awBAWFgYZs6ciRdeeMGknyHXsBknfkFBQYiMjGSb1D527Lcx+eyzzwiqWVOJ4ziOEEL2799P59zU19ynvXv3kl69epVb8qOii0gkIk5OTsTFxYXMmTOHnDt3rka1APV6PXn55ZdLzcOysLAgAQEB5KmnniK9e/cm8+bNIxMnTiSdOnUS7OdruLRr145cu3aNPX2lTpw4IThPaGgoWb9+PYmOji63BAwpqTd38OBBMnHixDK3EmvXrh3Zu3dvo58jxjVuxvNYg4KC2HCdaNQ9fm+88QY2bNiAF154Ab/++isb5jiOq9SmTZswd+5cAMDSpUvxySefsE3q1PHjx3Ht2jUEBgYiLy8Pd+/ehVQqRZs2bQCA3jdo0CD06NEDQUFBFfbEVVd4eDgGDx6M1NRUNlQhiUSCtWvX4rXXXqtwPl9FfH19kZCQwN4NlAyHi0QiiEQi2NjYQCQSQavVQqlUljncLZfLsXnzZkybNo33mHH1riH0+DXqxK9v3764dOkS/ve//+G7775jwxzHcZVatmwZTfa++eYbmgRygFarxdatW7F3714cOXKk3EUIhsTUysoKq1atwuDBg9kmVZKRkYFFixbh1KlTiI2NZcOVksvlGDNmDMaMGYNJkybVaJ4gx5kTT/xqyNnZGVlZWZg2bRq2bdvGhjmO4yo1adIk7Nq1CwDw999/4+mnn2abcCUyMzMRGxuLu3fvwsvLCyqVClqtFmPGjIFMJmOb15her8ePP/6Ijz76CBKJBHZ2dsjKykJKSoqgx0+j0UClUsHR0REfffQRnn/+eTg6OrKn47h6xxO/GtDr9bC1tYVKpcLJkycxZMgQtgnHcVyljMupHDt2DEOHDmWbcBzHmUVDSPwa7YSHyMhIqFQqiEQiuiKP4ziuqoqLi+l1b29vQYzjOK6pabSJ36VLlwAAXl5ecHBwYMMcx3EmMSR+IpEIgYGBbJjjOK5JabSJ3+7du4GSScUcx3HVkZWVhcLCQqBkznBtrI7lOI4rS25uLntXnWi0iZ+hTMCYMWPYEMdxnEmSk5PpdcOOERzHcbUlKyuLXueJXxUZtrcZMWIEG+I4jjOJ8XZJPPHjOK62GZcWqspWiObUKBO/9PR0WtspNDSUDXMcx5nEOPHz9PQUxDiO42qTlZUVe1edaJTlXI4fP45hw4bBzs6u3rpKOY5r/FatWoWlS5cCAN577z18/PHHbBOuHhUVFSEjIwOZmZnIyMjAf//9hzt37iAwMBAFBQXIyclBcnIyrl27BrlcDmdnZ7qTR2RkJAghcHV1hUQigV6vR3p6OvR6PVxdXSGVSqHRaJCeng6JRAI3NzeIRCIUFhYiMzMTCoUCzs7OAAClUons7GxYW1vT+oCG52ZpaYmgoCDY2dlBLpcjKSkJRUVFaNu2LSwsLAAAsbGxyM7ORsuWLWFtbQ0ASE1NRWJiIvz9/eHk5ASUFK6Oi4uDn58fXFxcgJKhwZiYGHh7e8Pd3R0oWZD08OFDyOVyhISEACUlzh4+fAiJRIKuXbtCKpVCJpMhJSUF6enpGDx4MBwdHaFQKEAIQXZ2Nrp06QInJydYW1tDLpdDoVDAw8MDXO2JiYlBQEAAAMDDw0Mw3aSuNMrEb/r06fjll18wffp0/Pzzz2yY4zjOJFOmTMHOnTsBAOvXr8f8+fPZJpyZ6XQ6JCUlISYmBjdu3MCxY8fg6uoKvV5Pk7zIyEjk5OSUu1MIV3tEIhGcnJzg6OiIgoICAEDXrl3h6OgIKysrZGRkQKVSoU+fPnBxcYFCoYBarUZRURF69uxJj3V0dOSLL8vAE79qcnd3R1paGt5//32sXLmSDXMcx5nEz88P8fHxAMDfT8xErVYjNjYW8fHxiI+PR1xcHP755x/ExcVBJpMhKSkJGo2GPYxrggy7q7i6usLOzg4qlYr2fPr7+8PGxgY6nQ6xsbEIDQ1FYGAgFAoFxGIx0tPT0bZtW8jlctjb20Or1SIrKwutWrUCSvZstre3R2FhIRQKBezt7RvFXsw88auGR48eoXXr1pDJZMjKyqq3MXKO4xq/oKAgPH78GABw8OBBjBo1im3CMTQaDeLi4vD48WNER0cjOjoajx8/xoULF5CamgqdTsceUm1SqRQeHh5wdnaGq6sriouLUVhYiN69e8PHxwf29va0Z8rJyQk+Pj4AAAsLC4jFYuj1etjY2NDzGbaYs7Ozo/fl5OTQYU6DtLQ0ODs7QyKR0PtSU1Ph6uoqSC4yMzNBCIFer0dBQQEKCgoQFhaG9PR0tGnThrZLS0tDcnIy2rVrR3vB8vLyEBUVhVatWtHPMaVSiUePHqFly5b0eatUKjx8+JAOJwMAIQTh4eGwtbWFr68vfZzHjx9Dq9UiJCQEhYWFUKvViIyMRGJiIr2voKAAd+/eRXp6Oh1OViqVSEhIgFarbRK9rGKxGFZWVrCwsKA/GwA0AZXJZEhLS4O1tTVCQ0MhlUqhUqkQGxsLd3d3dOvWDTY2NiCEIDo6Gj179oSnpyesrKxgb2+PnJwcBAYGQiQSQS6X05+fnZ2d4HemLDzxq4ZZs2bhxx9/RKtWrfDgwQM2zHEcZzIfHx8kJiYCACIiIhAcHMw2aTaKioqgUqmAkoQmJSUF0dHRiImJoQnezZs3kZeXxx5aJSKRCF5eXvD394ebmxsKCgrQo0cPtG3bFs7OznBxcYGLiwucnZ0FSRtXN/Lz85GdnY2srCzcv38fSUlJ8PT0hEqlQm5uLm7evImUlBQEBgZCo9GgsLAQN27cQG5uLuzt7WmvnvGOOM2JhYUFbGxsIJfLkZeXB4VCgbZt28LKygq2traIjIzE7du3AQDW1tZ47bXXkJiYiNzcXPTo0QNubm6wt7dHUVER8vPz0bp1a7pJRUFBAdzc3ODh4QEbGxs6h7SqGl3iZ21tDZVKhf379/MafhzHVZter4dcLodWqwVKRhOUSiWSkpKQnp6OpKQkHD9+HOnp6QgMDIRKpUJ+fj5UKhUKCgqQkJAAnU4Ha2trwVwmnU6HgoICiMVi2NjY0JqjKEmu1Go1LCwsBKMVxr0SNjY2gl4lrVYLpVJZ5vkMPWBSqZQuGjBQq9VQq9WwtLQsVZhaqVRCo9HUSu+OVCpFYGAgfH194evrixYtWsDOzg5SqRRPPfUUWrRoIShpwTVNSqUS8fHxEIvFyM/PR0FBAdLT03H9+nX4+flBr9dDqVQiIiICd+/eha+vL8RiMVQqFSIjI5GcnAxXV1f6O5qeng6VSgVLS0sQQuiXlOZMLBZDJBLR+ZdZWVkQiUQICQmBk5MTYmJioFAoEBQUhMzMTCQmJqJVq1aNK/GLiIhASEgILC0tabV9juO4isTExCApKQlZWVlITk5GYmIiEhMTERMTgxMnTrDNORM4ODigc+fOCAwMREBAAP3Xzc2Nb3vH1an8/Hz65S0nJ4f2lBlWZKOkp8zwZaygoADZ2dn4999/YWVlBR8fH+Tm5kKlUuH69euws7ODg4MDVCoVoqKiEBERAQcHB1hZWSEnJwepqak0/9Dr9fQxGpNGlfiFhYWhXbt2aNu2Le7fv8+GOY5rhgoKCvDo0SMkJSUJ5pxFR0cjMjKS9wyYQCaT0R7DwsJCaLVa+Pv7o0ePHggICIC/vz8CAgIQEBAAX1/fag8xcVxTVFBQgLy8PBBCoFarkZOTg8LCQty+fRsSiQQ2NjYoLCxETk4Ozp07h0OHDgElBZynTZuGiIgIxMfHw87ODuHh4dDr9dBoNLWWWDaqxA8lE135gg6Oa15ycnIQFRWFyMhIREVF0esRERFmmRwtEong7+8PT09PuLq6wtPTE+7u7tDpdJBIJOjduzesrKxgbW0NBwcHWFtb0zk7HMdxpgoPD0fbtm2Bki9cRUVFbBPKsEAHJbuVnTt3DiKRCJmZmThy5AidrmKYalJQUACNRkPrNxYUFEAmk9EpLRqN5v8PDzf0xO/vv//GkSNH8Mknn9Ail1URGRkJtVqN7OxsZGdnw8rKCgqFAn379mWbchxXTwoLC2lvXUxMDL2Eh4fjwYMHNVopamlpCWtra/Tp0wcBAQHw8vKCl5cX7ty5gy+//BIAMHnyZOzYsYM9lOM4zqyuXLmC3r17AyXzYeujtFGDTvzOnDmDwYMHAwBGjRqFgwcPsk3K9eDBA7zyyiu4ePEiGwIAuLm54YcffsDTTz/NhjiuQVAqlSguLoZGo0FsbCwcHR3LrVOVlpYGNzc39m6gpJdcp9OV2zuVm5sLmUxW7r6R6enpFRZjLav0hbG0tDSo1WpkZmYiKSkJKSkpSExMRGpqKiIjIxEdHV2jxE4qlcLS0hK9e/dGhw4d6JCkYd4Zu7DB4M0338T69esBAHPnzsU333zDNuE4jjMr48TP09NTsG1kXWnQid+pU6fwxBNPAAACAgJova2KJCQk4IMPPsDWrVuh1WohlUohl8tBCKGr2AwTQQGgTZs22L9/f7Mu48CZV3FxMdLS0pCSkoLU1FScP38eiYmJ8PPzQ35+Pr3k5uYiNzcXiYmJSEtLg4WFBeRyOXJycthTNntSqRQdO3ZE69atERQUhODgYAQHByMoKIhuY1VVnTp1wp07dwAA48ePx969e9kmHMdxZnXy5Ek8+eSTAFBv6xUadOJ37do19OjRAwAgl8vpWHdZsrKy8Pnnn2PDhg0oLCyk9XHeffdd2NvbC9ru2LEDCxcuRGpqKr2vW7du+OqrrzBgwABBW44zlpOTg7i4OMTGxiI6OhrHjh1DREQEnJyckJubi9TUVGRlZbGHcZWQSCRo27YtgoKCBAsJ/P394e/vX25vZU10794d169fBwB88skndM9ejuO42vL3339j3LhxQMl70NWrV9kmta7RJH4ikQj5+fmlalVlZGRgw4YN+Prrr5GTkwMLCwvMmDEDH3zwQYWbTev1esyaNQu//PKLYJgpKCgIixYtwqhRo+Dt7S04hmv6UlNTERcXh5iYGOzZs4eWAIiNjUVsbCxyc3PZQ8xGJBLRQp2GCvCWlpbQ6/VISkqCvb19mcO52dnZyMjIgKurKz3eQK/XIz4+HjqdDn5+fqWGazUaDeLj4yGVSuHr6yuoEYeSYeKEhATY2NjAy8tLEEPJZOKkpCTY2dmV+fdWWFiI+Ph4ODk5YcCAAfDw8ICXlxc8PDzg7e0NNzc3+Pj4lPq7rgsdOnTAvXv3AADHjh3D0KFD2SYcx3FmtWPHDrzwwgsAgEGDBuH06dNsk1rXoBM/47FwADh06BBGjhwpaGNpaYmioiKIxWJMmTIFH374Id0OxRQRERH43//+hzNnzpQqZuri4gIrKyu0b98ew4cPh5OTE7y8vNC6dWu4urrykgaNUEZGBm7evIkjR47A2toaKSkpiIuLo8leRb3KprCysoK7uzs8PDxohXWlUgmRSISBAwfCzs4Ojo6OsLW1FVzYhI2rfY6OjnRYPSwsTLDFFsdxXG344YcfMHv2bKAaaxfMpUEnfsZj4QCwb98+jB07VtCmU6dOiIuLw5kzZ9CpUydBrCoSEhIwZcoUXL58WTAHsCJSqRQymQwtWrSAtbU1LC0tERsbCz8/P7r1iru7O6RSKcRiMXr37g1PT89yJ9Fz5pGWlkZLfURGRgouNZk/Z21tTYce/fz80KJFC7i6ukIul9O9HOuj54qrOqVSKdgOLC8vr1aGkzmO44ytW7cOCxYsAABMmjQJv//+O9uk1jXoxA8Ali5dilWrVgEATp8+jUGDBrFNzEqj0WDr1q04duwY0tPTcfnyZbPvOWhnZwcvLy+o1WpIpVL0798f7u7ucHJygpOTE+zt7ZGbm4suXbrAy8ur1MbgzZlGo0FiYiLi4+MRGxuLuLg4xMfHIz4+HuHh4YiJial20Ut3d3e0aNECfn5+8PPzQ3FxMQICAjBo0CC0aNFCUAmea9wePnyI1q1bAwBsbW1rvP8sx3GcKT755BMsW7YMAPDyyy/jp59+YpvUugaf+N27dw8dOnQASlb5Gsq71CW1Wo3Hjx/j8OHDSE5OhpWVFeLj43H69Gno9Xq4uLggLy8PWVlZyM3NLTVkXFNisRiurq5wdXWFSqWCRCLBgAED4ObmBicnJzg6OsLR0REqlQre3t7w9fWFtbU1bGxsGlUvRmpqKtLS0hAfH4+0tDQkJCQgNTUV8fHxuHTpEvLy8mpUzdzR0REtW7aEm5sbioqKMGzYMHTq1In23pVX9oNrehrCyjqO45of486s119/HRs2bGCb1LoGn/gdOXIEI0aMAABs2rQJc+bMYZs0OPn5+UhNTUV6ejoyMjJw+fJlREZGwtXVFUlJSUhNTUVCQgISEhLMniSWxdraGkVFRbCzs0NAQABsbGxgbW1Nh6cjIiLopuqsW7dugRCCzp07l5r4X1hYiGvXrsHR0RE+Pj6CmEF4eDi0Wi2CgoJQVFREK4tnZ2dDq9UiKysLKSkp0Gq1ZnktLCwsYG9vj2HDhiEkJISW/QgODuY9dhz1yy+/YPr06QCAYcOG4ejRo2wTjuM4s5s/fz6+/vprAMCSJUtoEliXGnziZ7yyd//+/RgzZgzbpFHLyclBVlaW4PL48WOcO3cO7u7uUKlUSEtLQ3p6erMvFWLYVqtly5bw9fWlPXWG676+vpDL5exhHFfK+++/jw8//BAAMGPGDGzZsoVtwnEcZ3YTJkzAnj17AADLly+n70N1qcEnfjdv3kTXrl0BAEePHsWwYcPYJs2KWq1Geno68vPz6TZ02dnZSE1NxbFjx2BrawsXFxdkZ2ejoKAASqUSSUlJiIuLo6uQlUole9p6Y29vD5VKBblcjs6dO8PPzw/u7u7w8fGhpT7c3d3h7e3dqIatuYatS5cuuHXrFgBg7Nix2LdvH9uE4zjO7AIDAxEdHQ0AmDhxIv744w+2Sa3jiV8zlZ2dDZVKBaVSiTt37sDLy6vM3rKMjAzo9foy68cBQHR0NNzd3WFlZcWGAACZmZnQaDTw8fGBra0tLC0toVAoYGtrW6qmHMfVlZYtWyIyMhIAMGvWLHz//fdsE47jOLNr06YNHjx4APCh3vIZ1/Lbs2cPnnnmGbYJx3FclRgnfk1xCgnHcQ1Tjx49cO3aNQDAr7/+Sos516UGXyPEeAPjuLg4QYzjOK6qCCFISEigt/39/QVxjmvqCCH4+++/8fbbb5tlUR1nOuPSUXZ2doJYXWnwiZ/xNlHBwcGCGMdxXFUlJycLdmjx8/MTxDmuqcrKysKaNWvQqlUrjBs3Dl999ZWgc4WrfcbbfvLEj+M4rg7ExMTQ64aC6RzXlF29ehUzZsyAj48P3nrrLcTExOC5557D8ePH+Z70dcy4x6++3nt44sdxXLMSGxtLr7do0UIQ47imIiUlBWPHjkVQUBB69uyJrVu3wsXFBR9++CFiY2Oxa9cuwZaoVaXValFUVMTezVVAq9VCpVLR27zHj+M4rg4Y9/jx+X1cU6NWq7Fq1SqEhIRg//79ePz4MYYNG4a//voL0dHRWL58OTw9PdnDqszT0xN2dnYm723PCXv7wBO/8hnq3aBkFwiO47iaePz4Mb3Oe/y4pqK4uBgzZ86El5cXli5divz8fPj6+mLbtm04evQoxo0bB4lEwh5WLdeuXUNGRgakUqnZztkcGM/vA0/8yme84qhly5aCGMdxXFX9888/9LqhqDnHNWZXr15F165dsWXLFmRnZ8PW1hZfffUVIiMjMW3aNLZ5jf32229ASQ1MditPrnzGPX6WlpaQyWSCeF1p8IlfdnY2vd6mTRtBjOM4rqpycnLo9fp64+Uav4KCgnovhZKWlobJkyejT58+uHfvHlDSix0eHo6FCxfWyu+3Xq/Hn3/+CQD1UoOuMTNO/GxsbASxutTgE7/k5GR63RzzEjiOa950Oh29XpPJ7VzTFxYWhgULFmDNmjV48803MW7cOISGhsLR0RG2traYMGECe0idiYqKQlBQEH7//XfodDrY2tri22+/RXR0dK2u1D1x4gSSkpIQFBSEbt26sWGuAobCzQAEizzqWqNJ/KysrOptPJzjuKYhJydHUMPPx8dHEOfKFxUVhR07duB///sf5syZgx07drBNmgyVSoXly5ejU6dOWLduHd566y2sX78e+/fvR1paGtq2bYu+ffti6tSp7KF14saNG+jbty8KCgqAkhq39+7dw6uvvlrrQ6+Gn/vUqVNr/bGaGuM5fvU6zYQ0cCNGjCAASFBQEBviOI6rkvv37xMA9FJQUMA24Rh6vZ589NFHRCQSCV47AMTR0ZFER0ezhzRaxcXFZPbs2cTV1ZUAICKRiPTp04ccOHCAPHz4kKjVavaQOvfVV18RiURCfwYTJkwgGo2GbVYrCgsLib29PQFAHjx4wIa5Snz88cf05zZ48GA2XGcafI/f9evXAQBicYN/qhzHNXDGuxQ4ODjA2tpaEOeENBoNgoKCsHz58jLns2VnZ2Px4sXs3Y3S48eP0bdvX3z//fdIT09Hu3btcPbsWVy8eBGjR49GSEgI5HI5e1idunfvHpYsWUKnKyxfvhy7du2CVCplm9aKb775Brm5uejWrRtatWrFhrlKpKen0+u1ORxfmQafTWVlZQElS9U5juNqwjjx43OGK6bX6zFjxgxaUsvb2xsHDx6EWq1Gfn4+QkNDAQB79+5FVFQUc3TjsmnTJnTp0oXOwerTpw9u376N/v37s03rTUREBPr06QONRgMAmDBhAj788MM6G24lhOD9998H+DaH1Wac+Lm5uQlidalBJ35paWn0m82IESPYMMdxXJUYLxYz3gecK61///60bEf37t0RERGBUaNGQS6Xw8bGBhs3bgRKdiP48ssvmaMbh+LiYnTt2hVz585Fbm4urK2t8fPPP+PixYt11otmqldeeQX5+fkAgFGjRmHXrl1sk1p1584dKJVKAMDo0aPZMGeCtLQ0et3V1VUQq0sNOvGLjIyk1zt27CiIcRzHVZVxz5S7u7sgxv2fixcv4tKlS0DJwoGzZ89CoVAI2vTt25cmzxEREYJYY6BUKvH000/j5s2bQMnQ/40bNzB9+nS2ab3Lz8/HlStXgJJFAdu3b6+znj6Do0ePAgAkEgmefvppNsyZwDjx4z1+5TB+kw4ODhbEOI7jqur48eP0uvGwC/d/9Ho9FixYAABQKBQ4duxYqaTPYNiwYQCAU6dOldqVoCHLyMjAE088QZOZkJAQ3Lt3r8HOW9uyZQud7jRgwAA4OjqyTWqd4bXq1q0bnJ2d2TBnAuP3HN7jVw7jxC8oKEgQ4ziOqyrjTeXr8423IVu2bBmd6/bll18iICCAbUIZ3pcJIUhJSWHDDVJeXh78/f3x77//AiWJ1LVr1+p1sn1ljIedc3JyBEXI60JWVhbOnj0LABg+fDgb5kxACEFGRga9XZ89fiJS1lKtBmLq1Kn47bffYGFhAZVK1eDmXHAc17i0aNECcXFxAICff/65QQ7r1ae8vDw4OjpCr9fDx8cHMTExFe7FunPnTkyZMgUAEBMT0+D3PtbpdBgzZgzdtq9t27a4fv16uT2aDcW+ffswfvx4wX3Ozs6wsrJCv379EBwcDJVKBZFIRLc2jYuLQ1FREVq2bAm9Xo/w8HCEhITAw8MD6enpmDx5Muzt7QXnLM+CBQuwbt06AMDWrVvx0ksvsU24SmRmZsLFxYXefvz4cYVfqmoVW9+lIQkKCiIAiK+vLxviOI6rMoVCQeto/fPPP2y42fvkk0/o67Np0yY2XMr69etp+8jISDbc4Lz55pv0+QYFBZH8/Hy2SYM1f/58+tzNdXFwcCDx8fHsQ5UyatQoekxsbCwb5kxw69YtwWtfnzVEG/RQr6GMgGH5OsdxXHXl5eWhsLCQ3uaLO4SUSiXt1enduzfmzJnDNiklNTWVXjes+DSH7777DosXL8bHH3+MESNGoFu3bnjllVfQv39/DBs2DLdv32YPqdTChQvp/8/Lywvnzp2r1/1Sq2r9+vXYunUrxowZg+HDh5ulpmBOTg46d+7M3i1ACKFD/8HBwbyUSzUZFucAgEgkqtcaog12qDc9PZ2OgY8fPx579+5lm3BNVG5uLhYsWAA3Nzc8fPgQMpkMqampeOuttzBmzBi2OceZJCIiAiEhIfR2YmIiL+li5J133qFlWY4ePUoXblTkt99+o9uWmWPo6tGjR5g5cyYuXLjAhkqxsrLCtWvX0LZtWzZUSmpqKvz9/el2fZcvX0avXr3YZo2OUqlESkoKUlNTceXKFajVajrUGxMTA7VajdatW0Ov1+P27duws7ODUqnE+fPncf78eRBCIJFIoNVq2VNT9+7dQ4cOHQAAM2fOxI8//sg24Uzw3Xff4dVXXwUAODo60hrF9YLtAmwoLly4QLtE161bx4a5Jig/P5/Mnz+fODg4lBqSAEBkMhl5+PAhexjHmeT8+fP0d0kkEpHi4mK2SbOlVqvpNmBV2R5z06ZN9DWNiopiwybLzs4mo0ePJhYWFqX+7iu6dO7cmT1VmUaPHk2PmTlzJhtudjQaDf15W1hYsGGBjz76iL5227ZtY8OciZYuXUpfx/rcro005KFe47pQhm8wXNOVk5ODdu3aYcOGDcjJyYGdnR369+8Pf39/BAYGQiKRoLi4GB07dhSsjOI4UxmvOnVycqrfTdIbmF27dtFi+bNmzWLD5TLU+gMgGEavioSEBLRr1w4HDx6k03oGDx6Mv/76C7GxscjPzwchBIQQ6PV6XLx4kS5KuHXrFuLj45kzCm3atAkHDx4EAAQGBuKbb75hmzQ7b7zxBv15G3ZgKc/mzZvp9b59+wpinOliY2Pp9fpeBNUoEj/j4Rmu6Xn48CF69eqFuLg4yGQyfPbZZ8jMzMS5c+cQHR2NqKgobNmyBSgpx2HYTYDjquLy5cv0ekUrVZsjQzLk6+uLt99+mw2XKywsDCiZL9muXTs2XKmLFy+ie/fudCs9S0tL/P333zh16hTGjRsHPz8/wTw8kUiEPn36YPLkyfQ+QwJTnj/++INeX7JkiVnmxjVmc+fOxbfffktvV7ZC11A6RiwWw9/fnw1zJoqJiaHXeeJXjkePHgElVcrr+0Vqbm7fvo2QkBAoFAr6x67X69lmZpGfn48uXbrg4cOH8Pf3R1hYGBYvXlyqdM+LL75I5/Js27ZNEOM4U9y/f59e5wvG/s+tW7doTbt58+aZnBTfunULN27cAKrYS2iwfv169OvXj/bEDh8+HElJSSbtCmFcCNcwb68sycnJdL6gh4cHXnnlFbZJs6HVajF48GBs2rQJKEnklixZgnnz5rFNqczMTBQUFAAlPYNicYNNGRo84x6/+k6gG+xP0ZD4BQYG8iEZI1lZWXS1c2147bXX0K1bN0RERECtVoMQgtjYWHz66ads0xojhGD69OlQqVSws7PD+fPnKyzUPWjQIADAzZs3G02xWK7hMC7Q26ZNG0GsOZs7dy4AQCaT4eWXX2bDZSKECJIow9+mqZKTk7F8+XJ6+5133sHhw4dN3pHC+GdZ0crcrVu30h7Bnj171vk2Zw1Ffn4+xowZgzNnztD7vvvuO6xatUrQjmX8Zal9+/aCGGe64uJi2qsN3uNXNr1eT3/hTC0w2Rz89ddfcHV1RWBgoGDrKXM5cuQIvvnmG+h0OlhYWGDIkCH0jXj16tVs8xqbNWsW9u7dC3t7e1y/fh0+Pj5sE4GhQ4fS68Z7HnKcKYx37ajoC0ZzkpmZiatXrwIlc6lN3c1k9erVdI/btm3b4oknnmCblEun02HUqFHIz88HSoYaP//88yr1Jhn3nlTUe2v8/2muP/Pbt2/Dx8cHR44cAUoS/NWrV5vUS3vgwAF6vb6TlcYsPj5eMGrGe/zK8OjRI/otrT6/oRUUFKB79+4NYjLw9evXMWnSJPrLY1wTyBzOnDlDK8M7Ojri3r17OHnyJD7++GOgpGxAdnY2c1T1PXz4ED/99BNQMnRrygIe4zdu429PHGcK499fU3uWmroff/yRvqeY+uXuu+++w7vvvguUzAk8f/4826RCL7/8Mm7dugUAePLJJ+n83aowLOiwtLSssIRMXl4evf7DDz9g+vTpeP/993H+/HlERkYiMzMT2dnZ9FJRWZPG6OjRo+jfvz99HZycnHD58mUsWrSIbVqmkydP0uumTgHgSjOe3yeRSCrt5Kh17DLfhmDv3r102fOGDRvYcJ0xlCpwcnJiQ3Vq586dRCwWC8oYfPHFF2yzalOr1cTR0ZEAIHK5nDx48IDG0tLS6GN+/fXXguNqYuTIkQQAGTFiBBsq1+PHj+lzWbhwIRtucvLz80lmZibJysqiF51OxzbjTNSnTx/6+7NixQo23OzodDoSEBBAUIWyKEePHhWUXDl27BjbpFL+/v4EABGLxSQpKYkNVyozM5O+H7Zt25YNC6jVaiKVSgXvnaZc5HI5kUgkRC6Xk3bt2pHg4GDi5+dHJk+eTEaMGEGWLVtGzp8/zz5cg6HX68mkSZMEnxt2dnYkLCyMbVqhdu3a0ePv3r3LhjkTffnll/R1dHd3Z8N1rkEmfh988AF9kf799182XGc+++wzAoBYWVmxoTqzZ88eIpPJBG9K1tbWpLCwkG1abYsWLaLn/uSTT9gwsbS0JADIhAkT2FC1HDx4kKBku6D09HQ2XK6UlBT6PJtSbcfs7Gzy2muvkddee41MmzaN9O3bl7i5uQl+5oaLRCIhixcvJsnJyexpuEq0bduWvo5r1qxhw83Od999R1+PLVu2sOFSvvvuOyISiQhK6iAuXbqUbVKpK1eu0Md8+eWX2bBJJkyYQM/x1VdfseFSPvnkE2JtbV3qy7M5LhMnTmQfrl4plUqyfPly0rJlS8HznDZtGlGpVGzzCmk0Gpo0W1paEq1WyzbhTDRgwAD6s3B2dmbDda5BJn6GP2yxWFyv+9nNmjWLoOTDtj4sX76cFtmUy+X0TXfevHls02r77bff6HmnT5/OhgkhhAwePJgAIFOnTmVD1WJtbU0AkM8++4wNVcg48TPlg6oqVCoV6d27d50mlGq1mqxfv57Y2toK3qRNvSxevJg9JVcBDw+PWvv9aYw8PT0JACKVSitNCj7//HNB4lTdkZhhw4bRc1Snx+zChQv0/crPz48NVyg3N5ds3ryZvPHGG2T58uXkqaeeIl5eXqRr167kySefJEFBQcTLy4sMGDCAdOrUidjb2xNra2tiZ2dX6m/PcBGLxezD1JuwsDDi6OhYKsF9//332aYmOXLkCD1HQ0hWGrMePXrQ17JHjx5suM41yMQvJCSEACDBwcFsqE4ZKpZXVtnc3LRaLXnuuefoL4qbmxtNQgGQI0eOsIdUi0qlIjY2NgQAsbW1JTk5OWwTQgghr732GgFAunXrxoaq7NKlSwQAUSgURK1Ws+EKJSUl0degqkljZQ4fPkwAkNatW7Mhs9NqteTnn38mLVq0oP8flCT33bp1IxMnTiRLliwhy5YtIxs2bCC7du0iu3btIhs2bCCTJ0+m38IbwhtIY2L8gbh161Y23KycO3dO8LsnFouJo6Mj8fT0JHK5XDD0u27dOkHbN954Q3Cuqpg6dSo9T3nvN+X577//6O++WCwmf/75J9vE7HQ6HVmyZAmZMmUKiYmJIbdu3SJjxowRvG4NwcWLF0slfM7OzuSPP/5gm5rMeFeWrl27smGuCtzd3elruXbtWjZc5xpc4qdSqWgv1/jx49lwnVq1alWd/3FnZ2eTp556iv6SyOVyEhERQQYOHEgAEH9/f/aQajPeQqainq45c+YQmKnnc/r06QQAWb58ORuq1NWrV+nzff3119lwjXzzzTcEAFmwYAEbMhu9Xk9WrFhB51UZLq1btyZ//vkn0ev17CFl6tChAwFARo4cyYa4chQVFQle84p+35uDoUOHCl4PmUxGHB0d6Vxfb29v2lYul9N2L7zwAtFoNIJzVcWkSZPoubKzs9lwuQ4dOkRHCgCQjz/+mG1idr///juRyWTE1dWV3Lt3jxQVFZElS5bQHkcAZNy4cexhdW716tWC54SSpC8uLo5tapLIyEgyZcoUwUjEm2++yTbjTJSamir42Zw+fZptUucaXOJ3/fp1+gJVt4vaXNavX0+fy+PHj9mw2UVERJA2bdrQx+zVqxeJi4sjiYmJNBn+9NNP2cOq5datW3SS9vPPP8+GBYxfh9zcXDZssvT0dCIWi4lIJCLR0dFsuFK///47fR7VGSaqyJtvvkkAkG+//ZYNmUV2drZgngcA4uvrS3766acqf5A6OTkRAGTAgAFsiCtHfn6+4LU/ceIE26TZ2LFjh+C1eOqpp9gmAmVNRfDx8SHe3t5k8ODBZMWKFWTp0qUkPDycPbQUw6IumLhYoLCwkMyYMYO+/wEgs2bNYpuZVWpqKp0PKpFIyM6dO8nVq1fp6IjhEhwcbPKXtdpy7NgxwXMSiURk/PjxVUqqWe3bty/1896+fTvbjDOR8ZA5AJKRkcE2qXMNLvF755136Av0008/seE6dfz48Tp7Ll9++aXgzW3evHl0E/mZM2fSP+qabIRuoNfrafJgY2NDUlJS2CYCxj1t9+7dY8Mmu337NkENVkm///779HlkZWWx4RoxfCDVRkLw77//0pWMKOlBXrVqVbUW6CQnJ9Nv9+Ya8m8OsrOz6esPgJw9e5Zt0izo9XrB76KdnR0pKipimwlcv35d8N5U0UWhUBAPDw+yYsUKcvHixVJfagxTKlAyZ9jwHsfSarXkq6++Is7OzrS9SCSq9oIQU924cYP4+fnRx/zxxx/JM888I1gZLJFIyMqVKxvECvunn35a8Pr8+OOPbJMq27Bhg2DY2Nramm3CVYFhkSiqMS+1tjS4xM94CKK+u0SvXbtGn0urVq3YsFkolUryv//9T/DHu3nzZkEbHx8fgpJVsOZg3HM2e/ZsNlyK8aKKw4cPs2GT3bhxgwAgffr0YUMmMcz9rI03IsMquOoOj5RFr9eTdevWCVZld+3alTx8+JBtajLjYffqJI7NVXp6Ov0ZACAXL15kmzQL27dvF7zXmFreIysri/z999/ktddeIyNGjCDDhg0jtra2xMrKSvC6sheJREJ69+5NxowZQ/bv30/Cw8MFcW9vb/Lmm2+Sq1evkqioKHL27Fny7rvvlupldHZ2pj2ExcXF5M6dO+xTrLGXX36ZPp61tTV58cUXiUKhEDwPJyenBvWF6+bNm8Te3p7Y2dlVq7ROefLz88maNWvI22+/Xa2SO9z/mTx5Mv39efrpp9lwvRARQghb268+9ezZE1evXoWVlRXy8/OrVM3d3C5cuID+/fsDJYWkr1y5gh49erDNqu327duYMmUKwsPDgZJdStauXYsZM2bQNnl5eXBxcYFGo8Hbb7+NL774wugMVVdcXIy2bdsiKioKtra2KCgogI+PD1q0aAFXV1d4enrC1dUVrq6usLW1RWFhIQIDAzFixAjodDqMHTsWr732Gggh+O+//2BtbY20tDQkJCTgxIkTkEgk8PPzQ1ZWFlJSUhAaGoouXbpgypQpiI2NxejRo9G6dWv6fzZVZmYm3N3dodPp4ObmhtTUVLZJtWk0GlhbW0MqlaKgoMAsv3MREREYMWIEoqKigJJ9MRcvXowPP/yw1D7EpkpNTUVISAjy8vIQEhKChw8fsk24ciQnJ8PLy4vevnr1Krp37y5o09RlZ2fD1dWVFsefMmUKfvvtN7ZZleXk5ODy5cuIjY3FL7/8gvDwcOTm5rLNqsXS0hJ9+vSBra0tzp07hx49emDChAl46aWXzLaVp1arxTPPPEN3qZBKpRCLxSguLqZtRCIRVq9ejQULFlT775drntq1a4ewsDAAwPLly/Hhhx8CJX83+/btw59//onc3FzExcXhmWeewbp165gz1AI2E6xPxcXFtGbcoEGD2HCdM8yfsLe3JwBIx44dzTKnQ6vVknnz5gkmTU+aNKnMeRm7d++mba5fv86Gq+zdd9+l5/Py8hJ8m62ti0wmI3379iWnTp0iKHk9q/o6fv755/R8GzduZMM18vDhQ4KSn685ZGRkEFdXV/p8XV1dzdJLMHr0aIKSXofKhuc5obi4OMHv5M2bN9kmTd6LL75I//+enp5V/husisTERPLOO++QyZMn0wUjNbnIZDIyYcKEKq8ENsUzzzxT6vEMF5FIRHr27Gn2OcVc82C8WBUA2b17N/ntt9+Ik5NTqQU5hkt5ZdXMqUH1+N28eRNdu3YFALP0btXUmjVr8NZbb6Fbt264fv06AGD8+PHYs2dPtbeSO336NF5++WW6hYutrS2+/vprvPTSS2xTAMC4cePw999/w8XFBampqTXqjYqPj0eLFi1ACEHXrl1x+vRpbNmyBQqFAqmpqUhPT0daWhpSUlKQnp6O6OhoFBYWsqcRsLa2RmBgIHx9fZGXlwcvLy906dIFFhYWKCwsRN++fdG2bVu4ubkBADp27Ii7d+/i2rVr6NatG3u6MhFCEBQUhOjoaDg7OyMhIQGWlpZss2p7//338eGHH6JVq1Z48OABG66SgoICPPnkk/j333+Bkl7csLAwQW9TdXz88cd0U/stW7YIeoW5ykVHRyMwMJDevnPnDjp06CBo05Tdv38fHTp0ACEEIpEIt27dQqdOndhmtUapVOL69evYsWMHgoKCoNFoEBsbi44dO+LevXvIzMyEo6Mj/v33Xzg7O2PYsGFQKpUYNWoUsrOz0bdvX9jZ2bGnNQs7Ozu6b7AxT09P7N+/3+T3KY5j7d+/H2PHjqW3e/fujcuXLwvasKytrVFQUMDebV5sJlifNm/eTLPenTt3suE6Z6hsv2HDBkHNtYkTJ1a5Bl1YWBjtsTFcXFxcSGRkJNtUwDA/rEuXLmyoyowr3u/du5cNV8gwD9HUrZ3KY1ig8e6777Khchn39r322mtsuMbmzZtHAJD27duzoSopKioiw4cPp8+1ZcuWZumZO3HiBF2B7efnV6s9NU3V+fPnBX97p06dYps0aca9+2PGjGHDzRpboDk4OJhcvXqVbcZxVWaoFsFepFIpCQoKIi+//DKZOnWqYC6pQqFgT2N21e8+qgWGXjUADeJbVlJSEgCgVatWePToEZ5//nkAwK5du+Ds7IwFCxbg0qVLYDtN8/Pzce/ePRw8eBBr165Ft27d0KFDBxw8eBAA4Ofnhx9//BGpqakICgoSHGtMo9HQTcMHDRrEhqvkyJEj2L17NwBgzpw5GD9+PNukQobnGRERwYaq5NlnnwUA+lxMsXfvXnrdcLw5GXoja9IrV1xcjIEDB+Lo0aMAAB8fHxw/fhzu7u5s0yq5dOkSnnnmGWg0GnTv3h1hYWHV7m1uzmxsbAS3DT/z5iAqKoq+l4nFYvzxxx9sk2bt6NGjGDJkCF555RWkpKQgIiKi2c3/5GpHWloavW5hYYEOHTpg48aNyMvLQ2RkJH766Sds375d8DlRJ3NI2UywPnXq1IkAII6Ojg2iV2PGjBkEAF35ptPpBHWoqnqxt7cnq1atqnR7JIOYmBh67O7du9mwybKysoiLiwsBQDw8PMqcS1iZNWvW0OdSk1WphBDSqlUrAhPreOXm5tJvQy1btmTDZmHYFaWyDd8rMmLECPr6uLi4kAcPHrBNquzSpUu0jERgYGCV9jXmhG7evCn4W6yLupwNxRdffEH/39XZX5fjuOoJDAykf3sVbbFpXGLJ1taWDZtdg+nxKygowJ07d4CS3pKG0KthGIv38fEBSr4tHzp0CHv27MEbb7wBX19f5ojSFAoFbGxs0K9fP0RERGDJkiVQKBRsszLFxcXR635+foJYVYwZMwYZGRkAgPXr18PBwYFtUqlevXrR67dv3xbEqsow52HNmjVsqJQ//viDzjN85ZVX2LBZGF7nuLg4qNVqNlypnJwcnDlzBihZ/bdnzx60atWKbVYlv/zyCwYPHgytVguZTIZ9+/bBxcWFbcaZyNBzblAn36obiPnz52Po0KGYNWsWPvnkEzbMcVwtSEtLw+PHj+lt489QVk3m7ldHg1nccfz4cQwbNgwAMGDAAJw9e5ZtUufs7e2hVqtRVFTEhgD8/0UHf/75Jx4/fkyHQhMTE1FUVIQnnniClkipLsOiA5SUo/Dw8GCbVOrXX3/FtGnTgJLkMTY2lm1iEkIIPD09kZqaivnz52P9+vVsE5OdOHECQ4cOha+vryC5LYuHhwct3RITE4MWLVqwTWpsy5YtmDlzJgDgv//+Q8eOHdkmFfrggw+wcuVKAMDMmTPx448/sk1KuXPnDu7duwepVIr09HRkZmYiIyMDmZmZuHbtGh1SHzJkCJ1awFXfpUuX0LdvX3q7un9PHMdxpmAXdiQmJpY7ncgwnQwAHBwckJ2dzTYxL7YLsL6sXr2adnXWxebblcnIyCAAyKhRo9hQnXn77bfpa1KdYr2PHj2ihVA9PDxIcnIy26RKDItDQkND2VCVHThwgKSmprJ3C2RnZ9Ml7/b29mzYbI4ePUpf5/3797PhCqWnp9MitnK5nCQkJLBNylTeUn7jS033ReX+z9mzZwWvLR825ziuNi1dupS+3/j7+7NhAeOtWp2dndmw2dVt/2IFLl26BJQMlQ0cOJAN17kbN24AAC0vUx+Cg4Pp9aoOfWdlZaFfv37Iz8+HVCrFH3/8UeMejgEDBgAlvWI1LaA8evToSifYnzx5ki6cmT59Ohs2C71ej/fff5/eXrhwYaUlbIwtWLAAKpUKKPk/6fV6tkmZvLy8YG1tjTFjxmD69Ol4++23sXr1amzZsgXbt2/Hrl278Ouvv1Z5SPLx48d0ygT3f9hee3MV/+U4jivLlStX6PWKhnlRjc/3mmowiZ/hRWrVqlWNhkfN5cKFC0A9J37VpdfrMXLkSLqiaPny5TRpq4l27doB+P/Dvt9//z0bNrtt27bR67WxmpcQgldffVXwBxoZGYmRI0eWWqldHrlcTq/fvn0boaGhgnh5EhISUFBQgP379+Pnn3/GF198gUWLFmHGjBmYOnUqnnvuOfaQUjIyMvDLL7/g888/x0svvYQWLVqgZcuW+Pzzz9mmzd7du3cFt039+XIcx1WVXq+nnVko2ZGsIlZWVvS6TCYTxGpDg0j8IiIiaA9Snz592HC92LFjBwCY/EFeG+7fv0+vm9qTBACLFy+mBYQDAgKwbNkytkm1DB48GI6OjgCAa9eusWGzO3LkCABAIpFU+o2pOt59912awPr7+6Nfv34AgDNnzqBv3760BEZFjP9IY2JisGvXLkHcHHQ6HW7cuIGvvvoKTz75JKZOnYpOnTrBzc0N06dPxxdffAEHBwesX78e6enp+PXXX9lTNHts77JEIhHc5jiOM5dDhw4JFgpWVizesI0i6uhLaYNY3LF161a6E8GPP/5IJ9rXF51OB1dXV9jb2yM6OpoN15lly5bRVXiFhYUm7VaxadMmzJ07FwDQuXNnnDt3rlQNs5pYunQpVq1aBQsLCyQnJ9fqogOFQgG1Wg17e3vk5OSw4WpTq9UYNmwYzp8/DwBo06YNzp07h/z8fLRp04YOC0qlUgwbNgxPPPEEFAoFgoODIRKJEBcXhwcPHuDgwYOCPYfd3Nywbds2DB8+nN5nisLCQiQkJCA5ORnx8fFITk5GQkICrl27hoSEBOTm5gr2PhWLxejduzcGDx6MQYMGoX///nXyLbExO3ToEEaPHk1v5+XlwdbWVtCG4zjOHL788ku888479HZOTg7s7e0FbYwNGjSILmgNCAgQrAauFeykv/owe/ZsOrHRUDOvPl25coUAIG+//TYbqlPffvstfV1MWdyxcuVK2t7Hx4ckJiayTWrs/v379DHee+89Qgghx48fJ9HR0WzTGnNwcKD/F3OJjIwknTt3pv8Ha2trEh8fT+M5OTlk6tSpNF6di5OTE3nyySfJc889V+oyYMAAEhISQgYOHEjatWtXpX1MPT09yciRI8l///0n+D9xlTt48KDgtczLy2ObcBzHmcX06dPpe40p9WGNP5M8PT3ZsNk1iMTPzc2NoKRwoU6nY8N1zlC4+fjx42yoTr366qv0l6GigsBarVawAlgkEtXqJvSGlcKG1Uevv/46mTZtGtusxgybW8vlcjZUZXq9nqxYsYKuwAVALC0tyb59+9imhBBC3nvvPeLm5kZsbGxoe/YyYMAAsm7dOjJ//nwSHBxcKl7Ti6WlJXF3dyerV6+u8OfPVY4nfhzH1ZW2bdvS95o5c+aw4VKeeuop2r5169Zs2OzqPfHLzs6m/2Fvb282XC8CAwOJWCw2qZetNv3111/0tQkICChVjkWn05GzZ8+Sdu3a0XbOzs5kz549gnbm9tZbb9HHO3r0KBk4cCABYHIpE1MZ9im2sbFhQ1Vy+fJlEhoaSp8zANKvXz+Tn+/9+/fJunXryJEjR8jx48fJd999V2r3Er1eT/bt20e/xFR2cXFxIX369CHPPvssmT9/Plm9ejXZvn07OX36NHnw4AFRKpWC83M1wxM/juPqQl5eHhGLxfS9ZsuWLWyTUrp06ULbe3l5sWGzq/fE7/Dhw/Q//Oqrr7LhOldQUEDkcjkZN24cG6oXCxcupK+PRCIhQUFBZMyYMaRFixa0581w6d69e60M77IKCwuJq6srQUl9IsPQ6BdffME2rRFD4qdQKEhWVhYbrtTp06dJr169StXMe/bZZ2u1Pl5SUhLJysoq98KTurq3e/duwe8AT/w4jqsNJ0+eFLzX3Lt3j21SyrBhw2j7Vq1asWGzq/dVvYZt0QCYVMKitp0+fRpFRUVVnqBfWz799FO6XZtOp0NUVBQOHDiA2NhY5Ofn03YdOnTA2bNny60Mbk6WlpZ0l5WYmBjs3bsXAPDw4UOmpXkUFhYiMDAQX375JaKiotiwQE5ODjZv3kwXP1y5coWukgoICMDXX3+N3bt3V7k+XlV4enrC0dGx3Ivx0n2ubjx48EBwu7i4WHCb4zjOHAwVNQDA1tYWrVu3FsTLYvxZXp1tQ6uq3hM/Q60biUSC7t27s+E6d/ToUQCgiU19k8vliI2Nxd27d9GpUyc4Ozujffv2cHR0RK9evfD7778jPT0dd+7cMXkPYHPYsGEDPD09AYAWMLazs2Na1czXX39NVzLn5OTgnXfeQXBwMCQSCezs7GBrawupVApLS0s4OTnBysoKTk5OmDNnjqA2n1wux8aNG/Hw4UO89tprRo/ANReGLRUNeDkXjuNqg3FJr/bt25v0XmO8V29dFHOu18RPp9PRenCdOnUya9mR6jpy5AhatmyJwMBANlSv2rdvj9u3byMjIwN3795FVlYWLl++jEmTJsHFxYVtXuucnJxw7949wc+sffv2gjY1NXv2bNy9e7dUQqvX65Gfn4+CggLodDoUFRUhOzsbhYWFghpILVu2xPPPP4+oqCjMmzeP79bQjPFeVo7j6sK9e/fodfazqzw+Pj70el1sYFGvid/du3eRl5cHAOjduzcbrnNRUVGIjIzEU089xYa4Mjg5OSEtLQ0//PADNm/eTGsxmlNwcDBSUlLw448/YsWKFfDx8YFMJoOXlxc8PT0hk8ng4OCAwMBAuLi4QCaTYciQIbh8+TIePXqEnTt3wtvbmz0tx3Ecx5lVQkICtFotvT1ixAhBvDwRERH0ekJCgiBWG+o18TOe39cQEr8ffvgBMNqajKucQqHAK6+8gtmzZ7Mhs7Gzs8PMmTPxwQcfID4+HkVFRUhMTERSUhLt7YuKikJ6ejqKiopw8uTJWtnpg+M4juPKYzzFCAAmTpwouF2e4OBger2iQs/mUq+J34kTJ+j1hrBV2/Lly/HFF1/UahLDcRzHcVzTY7yVqYeHB12YWRkHBwd6PSsrSxCrDfWa+B06dAgoWSUaEBDAhuuctbU13n777TqZXMlxXN1h912uyt7XHMdxlfn222/p/vIA0KNHD0G8ItnZ2fS6Yfpbbaq3xC85OZnuicrnYHEcV5uM9zoGAI1GI7jNcRxXE9999x3CwsLo7apUKRkyZAi9bsoq4Jqqt8Tv/Pnz9DovscFxXG0KCQkR3OYrvDmOM5e4uDjcu3dPsLCjS5cugjYVMa6/q1Qqa73OaINI/AYMGCCIcRzHmROfvsFxXG2JiooSlBIDgLZt2wpuV4RN9OLj4wW3za3eEz8bGxt07NiRDXMcx3EcxzV4p0+fFty2srKCv7+/4L6KdOvWTXBbqVQKbptbvSR+ubm5tMhhv379anX7LI7jOI7juNpivPMGqtjbBwBubm6C23FxcYLb5lYvid+FCxeg0+kAAP3792fDHMdxZsUOw3Acx5mLtbW14LZxXT5TWFlZCaajnDt3ThA3t3pJ/Izn9/HEj+O42vbw4UPBbXZODcdxnLmYWr/PmPFe94Y96mtLvSR+//zzDwBALpdXackzx3FcdRi/qQLg00s4jjOb69evC26r1WrBbVMYr3WIjIwUxMytzhO/vLw83LlzBwDg4uJS65ktx3GccbkElDEnh+M4rrpiY2MFt6uzE1lBQQG93uSGeo0zY74nLsdxHMdxjZmzs7PgNrtK1xS+vr70ulwuF8TMrc4TvwsXLtDrr7/+uiDGcRzHcRzXmBjvDCQSieDj4yOImyI0NJRet7W1FcTMrc4Tv4sXLwIlL051ukM5juM4juMaCuOt2sRicbV67Izn9TWpOX46nQ6XL18GALRv3x5OTk5sE47jOI7juEajsLCQXq/uXrsuLi70em3vJV6nid/t27eRn58PlBRu5jiOqwtRUVGC27X9xspxXPOhUCjodU9PT0HMVKNHj6bXi4uLa3X3jjpN/Izn9/HEj+O4usIWcGZvcxzHVZehQws12G7NeHEHSjrKagtP/DiOa/ICAwMFt3kdP47jzMWwExmYYd+qYEtOPXr0SHDbnOo08Ttz5gwAwMfHp1qVrTmO4ziO4xqq6s7xs7Ozg4ODA71dm7sL1Vnid/78eWRkZAAliR/HcRzHcVxjJ5PJ6HU3NzdBrCpsbGzo9b///lsQM6c6S/yuXr1Kr/PCzRzHcRzHNQVLly6FSCSChYUFvv32WzZsMuME8vHjx4KYOdVZ4nfz5k16/c033xTEOI7jOI7jGqMVK1ZAr9ejuLgYQ4cOZcMmGzt2LL1e3bmCpqizxO/8+fNAydYmbdu2ZcMcx3G1Jicnh72L4ziuQTHe6i0uLq7W3rfqJPGLjIxEfHw8AGDgwIF8g3SO4+pUdHS04Lbxhugcx3ENQUBAgOD23bt3BbfNpU4ysLNnz9LrAwcOFMQ4juNqW6tWrQS3jQuuchzHNQQ9e/YUzPMLDw8XxM2FJ34cxzV51dk7k+M4ri6JxWLBVra//PKLIG4udZL4nTt3DgDg5OSEDh06sGGO4ziuAdNqtfD09ISlpSWGDx8uKFjbVGRkZGDWrFlQKBRwd3ev1QK6HFce43IwKSkpgpi51HriFxMTg9jYWABA//79+fw+juO4Rmb58uVISUlBUVERjh07htWrV7NNGjWlUglfX1/8+OOPUKvVSEtLw6pVq9hmHFfrpk+fTq8nJCTUyvaStZ6Fff311/R6165dBTGO4ziu4fvvv/8AACKRCADw66+/Mi0at1mzZkGtVgvuCw4OFtzmuLpgvKtZcXExHjx4IIibQ60nfpcvX6bX2QnWHMdxXMN3//59AICrqytQMun8559/Zlo1TrNnz8bOnTshEokExXezs7MF7TiuLvTo0UNwOz8/X3DbHGo98UtPTwcAWFhYYNy4cWyY4ziu1kVERAhuFxUVCW5zFVOpVACATp060b1I//nnH6ZV4/Pw4UOawI4YMQKDBg2isdrcOcHcMjIyzFbwd/v27bT8Glf3vLy8aM86ANy5c0cQN4daTfwyMjIQFRUFAOjVq5dgmTLHcVxd0ev1Fd7myldcXEwLyT7//POYMWMGAODgwYONuh6iVqvFSy+9BK1Wi3bt2mHfvn2CMj+NYSFifHw8QkJC4OrqCmtra6xdu5ZtYrKcnBx06dIFL774Ilq2bMmG68yJEyfQpk2bZru4RiKRCNZC1EYtv1pN/C5dukQnJvbu3ZsNcxzH1Ql2vhb/Emq6f//9F1qtFgAQFBSEl156CSjZUuqdd95hWjcey5Ytw7///gsbGxv89ddfsLCwEMTZ2w3R8OHDaW+2o6NjtUfVrl69ii5duuDWrVtAPde5PHToEB48eICjR4+yoWbD+PVv3769IGYOtZr4Gc/va86JX3FxMWbMmIG8vDw2xHEc16AZ73ri5+eHvn370sT54sWLRi0bj927d9OVyRs3biyzh6u2tssyF6VSSSf+Ozs7Iz09vdTOD5UhhGD9+vXo378//TlPnDjRpKHemTNnIjg4uMa9vjdu3IBGo6G3DfNIm/PnpfFUlLi4OEHMHOos8evVq5cg1pzs378fW7dupROkOY7jGgvDqI1EIoGfnx9EIhH+97//AQDu3buHmJgY5oiGjRCCzz77DADQsmVL2oOJkvIZBoaVzA1Vfn4+/dmEhoZWuVRaRkYGxowZgzfffBPFxcWwt7fHH3/8gT/++AM2NjZs81K2bt2KqKgobNu2jQ1VqqCgABs3boS3tzfeeustQaJjb28PNPPEz7iES3FxsSBmDlX7TakCjUaDa9euASXDLB4eHmyTZmPv3r1o3bp1o+n1XLduHebPn0+Hd8xFr9dj06ZNtbI8vTz79u1DcHAw9u7dy4Y4jjNBamoqAMDFxYUu7Jg6dSpQ8gH1xRdfCNo3dH/++Sdu3LgBhUKBEydOCGIODg70elm9gA1JVlYWvZ6WliaIVebcuXMIDQ3FoUOHAADdu3fHzZs3MXHiRLZpmTIyMug82WeffZYNl6JSqejnyYkTJ+Dp6YnXX38ddnZ2OHDggCDRtLOzAwDk5ubS+5obKysrer1NmzaCmDnUWuL333//0ZVgjSXhqQ1qtRqHDh3CpEmT2FCDdOjQISxYsABff/01QkND2XCNLF26FHPnzq2zeo7Hjx/HpEmTEBUVhY0bN7Jhs+jevTukUikOHDjAhjiuSTD0fBnPO+revTu9vX37dnp/bdmzZw8mTJhQ42HFoqIiLF26FACwaNEiQc00lqHnqaEyJOFgEtaKFBcXY+TIkRg8eDASExMhEomwaNEiXLx4EYGBgWzzchkWHLi7u8Pd3Z0NCxBC4OLigoCAACxZsgTDhw9HQUEBOnfujLt378LW1lbQ3vC6N+fEz5A7waiUkjnVWuK3adMmer1du3aCWHNy8OBB5OXlmfxNqr5dv36dXjf3L5xhWbrxXoS15fz58xg3bhyKi4vh4uKC7777jm1iFuHh4dDpdDhy5Agb4hqQ2qiF1VwYJvwrlUp6n0gkwpAhQ4CS1zYyMpLGzI0QgqVLl2Lv3r2CXq7qWLNmDaKiouDt7d2oF6YAEGybZ8oqdUIInn76afzzzz/Q6/VwcXHB4cOHsXr16iovZDG8l5uy8vnChQsoLCxEcnIyfax169bhxo0bkEqlbHOa+FW1F7MpMS7nYm1tLYiZQ60lfsYJRHMu3Lxr1y506NABbdu2ZUMN0nPPPUevm3Plo06nw7///guUTAquTbdv38bYsWOhUqng4OCAY8eOISQkhG1mFoafq5eXFxviGpCHDx8KbvPivKYz9Cb17dtXcP/ChQvp9X379gli5nT58mU8evQIvXv3rrCHrjIRERFYtmwZAODTTz+t9APVHPsRq9VqdOvWDZaWlpDL5Rg/frygN6cmjH+HDcPxFVm6dCldKWtnZ4cbN27gqaeeYpuZxNDjV1nil5qaSt/vdTodLC0tceXKFbzxxhuC5MZYUlISULKavLkyHur19/cXxMyh1hI/Q7ZuaWmJ0aNHs+FmQaVS4fDhw41mmBcliYxhCMGcc/xu3rxJv60/8cQTbNhs7t69iyeffBLZ2dmws7PDsWPH0LlzZ7aZ2Tg7OwPNfFiiMWDLuRjmEbEyMjLqZOiyMcnIyACMvuQYDBgwgCZPn3/+uSBmTobFA8aLMKpj9erV0Ov1cHBwoHMUWYYNB1Cy2rQm1Go1WrZsiRs3bqCoqAjFxcXYt28fQkJCzPLeajxyUtk8sBdffJEuaPH19cX9+/drlERXlvjpdDrMmTMHQUFBtNzM2LFjERERUekUIsN7anNmPKWh0dTxi4qKQkpKCgCgT58+ZXbnNgevv/46lEolRo0axYYaNMMbgl6vr/GcGoOTJ08CJd3W7JY05hIREYFhw4YhMzMTVlZWOHDgALp37842MytDbwhP/Bo2dh5ReXbu3In33nuPvbtZM/TAeHt7C+6XSqW0pzs9PR3JycmCuDmo1Wrs2rULlpaWNZouEx0dTfcX3rdvX7krYI2HPE1Z2VqRkSNH0lXCVlZW9NyJiYkYOXIk07rqjHfqqKj8ysGDB+mXGUtLS/zzzz/w8fFhm5lMr9fTeZ9lJX7Hjh1Dp06dsHnzZjo9YNy4cdi3b59Jj2v4UlYbq1kbi+rM36yKsn/7a8i4thM7PNBc6HQ6HD58GAqFotJvYw2NcRe8uUo1GBK/AQMGQC6Xs+Eai4uLw9ChQ5GSkgKZTIbdu3djwIABbDOzM8xHaeg1vzjT/Pjjj4iPj29U23XVprS0NPrhXdZiB+Ph3sOHDwti5rB//35kZ2fj6aefrtEH4LvvvouioiKMHTsWAwcOZMOU8RAb20tcFZ999hlOnz4NABg2bBiUSiUyMjJo4nP8+HF89dVXzFFVY5z4Gc+/NGY81IqSXs+azrk/efIkLb/i6+tL7z9+/DiGDBmC4cOH4/79+5BIJHBzcwNKhplNZUhiNRoN7W1uboynIdSkZ7Y8PPGrJUeOHEFKSgpmzpxZK4lObTKe22LK3JHKqNVq+jtRG8O8iYmJGDx4MGJjY2FhYYHdu3djxIgRbLNawXv8mhZD75Zx0eLmzLDlJsrpAZs4cSLtnfj+++/ZcI0Zel9ffPFFNmSya9euYdeuXZBIJPjkk0/YcI0QQnD+/HkMHTqUTm9KTk7Gp59+CgDw9PSkCbGdnR327NlDX68VK1bUqFago6MjvV7W7g6EEEydOpU+rzfeeAPz589nm1WZYY6iSCSCo6MjIiIiMHnyZAwbNowmu6Ghofj333+Rl5eHwMBAdOvWjTlL+YxXCdd0MU9jZTzSxu4zbg61mviJxeJmW7j5p59+AgC8/PLLbKjBM+6hdHFxEcSq4+LFi/Tb6ZNPPsmGayQ9PR1Dhw7F48ePIZFIsG3bNowZM4ZtVmt4j1/TYnjDDQsLY0PNkvHKyv79+wtiKJlnZphrdu3aNUEh3ppKSEhAZGQkRCIRhg4dyoZNNmfOHBBCMHPmzBr3dhm7fv06unbtigEDBuDEiRN0pWuPHj2Qn58POzs7XLx4UTBs16NHD/z5558QiURQqVTo2bNntRcaqdVqer2s3R0mTpxI6xR27NiRzvEzRXFxMVq1aoUuXbrg1VdfxZIlS7By5UqsXr0av/32G1Cy+O/ZZ59F27Zt8fvvvwMl74dvvfUW+vXrh2+++QZqtRotWrQodyFHWYynZRj3ajYnpqzSrhFiZllZWUQsFhMApGPHjmy4WQgLCyMSiYR06tSJDZndli1biKWlJVm7di0bqrbhw4cTAAQAuX37NhuusvHjxxMAxN7enuh0OjZcbdHR0UShUBAARCwWk61bt7JNat2HH35IABBnZ2c2xDUgW7dupb/TAEhcXBzbhGi1WhqfPXs2G26W1q5dSwAQW1tbNkRNmjSJvm4KhYI4OzsTiURCrK2tiVQqJba2tsTKyoq4ubmR1NRU9vBy7dixgwAg3bp1Y0Mm27RpEwFAJBIJSUxMZMOl3Lhxg/5f5syZw4YJIYTcu3ePtG3blgAgMpmMTJo0iYjFYvLZZ5+Rn376iR6/Zs0a9lDqySefpO3Gjh3Lhk1y9uxZeo7g4GBBLCYmhkilUhq/fv26IF6Zv/76ix5ryqVjx47kr7/+IpcuXSKOjo7kxo0bZPDgwQQA+eabb9jTV+jy5cv0vL///jsbbhYsLCzoa7Bv3z42XGNm7/E7c+YMzVab6zDvokWLoNPp6mRu36lTp6BWq3Hu3Dk2VG3h4eH0umGRTk0Y5vfZ2tqWO6m6Ol599VX6jXDZsmU1XvVXHYYyIZmZmdX+5s7VPkNvjEFZPbTGQyp8qPf/M7wOZRX3TUxMxBNPPIFjx47R+woLC5GZmQmdTgelUgmtVov8/HyoVCqkpaWhe/fuJk+LMIwcDR48mA2ZpKioiM6je/bZZ00quWS8SOL27duCWHp6Ot566y107twZYWFhcHZ2xr///ouEhASIRCIEBwdj1qxZAIAJEyZgwYIFguON7du3Dy1atAAA/P3331ixYgXbpFLGozFsT+Zbb71FVw4///zzVS6aP27cOIwePRpjx47F3Llz8corr+C5555Dx44daRuxWAw7Ozts2bIFt27dwqhRo/D8889DrVajQ4cOdOeuqi5kMR7mbI61/LRarWDvYuPrZsNmgjU1cOBAmql+8cUXbLjJKyoqIi4uLkQkEpEHDx6wYbNbvnw5wf9r777Do6rW9+HfM+k9IQkEQgm9Ix1BBeSIDUXFhiJ2QXxVBBtHOYciimI9KnIU5YAiIioWRKVXQSBIh9BCTyCBkJ5Mkpn1/vHLXt+9V9pMZiZl5v5c11zX2vOsmUwmMzvPXhUQb7zxhhqqti5dusi/4datW9WwQ6xWq/D39xcAxOjRo9VwtW3YsEGYTCYBoEZaVivyv//9z2XvFbnPjBkz5N8JgDhy5IhaRaxdu1bGp0yZooa9UuvWrQUA0b17d3nf6dOnxV133SUCAgIM76l269Spk+jSpYu49957Rb9+/cTQoUNFhw4dZPyBBx4w/IyKxMfHCzjR4vHGG28IAKJVq1aioKBADZfrzz//lK/z7rvvFqK0Jfj999+XPVnh4eHivffeE8XFxSI5OVmYTCbRokULERMTIwAIX19fcfHiRfWpyzh27JgIDQ2VP+/LL79Uq1RK3zrZo0cPeb++1TEuLk5kZWUZHlddL7/8sjCbzbI1Sm1lnDBhggAgxo0bJxYvXiwAiAYNGhjq2GPLli3y9Xtji192drb8/QGIefPmqVWc5rrml1L6DN0bt2pbunQpLl68iEGDBtXIwtXaOI/AwEA1VG2tW7eWZf02TdVx5swZOS3f0avOihQVFclxO/7+/nJ8SW3Qr2125MgRQ4zqDnUZifKWmNq0aZMs6zdJ92Zay6i2xMaaNWvQrl07fP/993I8n36pEpS2ru7btw+LFy/GX3/9hZUrV2L//v1yQXj9zNmK7Ny5E+fOnQMAxMbGquEqnT17Vk6weP/99+0+P+oXrY+Pj8euXbvQv39/TJgwATabDW3atEFSUhImTJgAX19fTJ48GUIInDlzBhcvXkRkZCR27txp11p0rVu3xqRJk+TxuHHj8PfffxvqVEY//k3fSqafwPHWW29VuGalI5YvXy7XQdTeS/3Ev5UrV+KTTz5BTEwM3nrrLXz33XeAC3ad8MbvodorVl5ru7NcmvgJIWTXYEhIiFcmftqkDnfvTqHRvvz2ntjs4coBtfpkyJnlEfRGjx4tu6MnTpyIDh06qFXslp+fL09S1aFP7rUZbVQ/bdmyRZazs7MNMW+lzfC//fbb8cADD+C6666TF5thYWH46quvyrxXWhefno+Pj5zksH//fjVchr5OdS6gX3jhBeTm5mLo0KEYPny4GrbL0qVL0adPH+zYsQMxMTGYP38+jhw5gsaNG6tVYbPZEBQUhB9++MHQHVqVV199VU4AzMvLw6BBgwyfw8roF3DWzq179uyRS7uEhIRg9OjRsk51fffdd7j99tuB0qVFWrZsCegmYRQUFGD06NGwWCwYPnw4wsLC5PqFFS2UXRn99n+OJMJkP5cmfsnJyXKcU8+ePctkrp7uzz//xJo1axAaGoo777xTDbuFO1r8kpKSZNnZMX4LFiyQ5epcuasuXLggE7WgoCC5BZO9LBYLnnrqKURFRcFkMiEkJAT33HMPTCYTTCYTIiMj0b9//3LHgJUnIiJCfs5//fVXNUz1yKVLl2R55MiRhpg3ysnJkd+D5s2bY8mSJTLWsGFD9OjRAzNmzEBISIhhHFJFW5Jp5yh7FtPWxs5GR0fb1Xqm97///Q/ffvstfHx88PHHH6thu50+fRpWqxUPPfQQDh06hIceeqjM7NSFCxdi+PDhGDJkCC5cuCD3L3bE559/Lscna8mqPYth63cZ0ZKlb775Rt734osvlnm9jlq5ciVGjRqFkpISmEwm/PLLL7JV1Gw2QwiBgQMHIi0tDUFBQXj++eexc+dOuWXr4MGDlWesmn75M1e0VtY36oxe/ZJKruLSzEy/xY2ruvXqk7feegtCCCQkJDjdRWovdyR++oVS9WtFVYf+Q+yKxO8///mPbP5/9NFHHepKuHz5MqKjozFnzpwKE7usrCz89ddfDu1hqf1e2dnZLtmKiWqexWKRg/n9/Pyq3FbKG+j3N27UqJEhuUtLS8PGjRtx+PBhwxIu3bt3rzD50f6Jx8XFqaEytItPRyfI2Ww2uX3ctddeK/foPnHiBHx8fBASEoIRI0bghRdewOzZs/Hbb78hKSkJhYWFyMzMNEyy8PPzw6effor58+dXuKyVyWTCzz//jDVr1tiV0JbHZDJh7ty5cvJJfn4+brjhhioni+nf96ZNm8JqtRoS3fvvv1+Wq+P333/HbbfdJv/ut912G6644gq5dMzFixfx9ttvyyRv0KBB2L59O66//nrZUnzFFVfontE++vfRFf8z6hu1wcwd74FLEz99s2zPnj0NMU9ns9lk4luTWz5piZ8rE039mAJnE0r9FZszK++jNLGaM2cOUNrN4ci6VCgd66Nf4d5kMsHf3x8+Pj7w9/c3XB3v2rVLlqty/fXXA6VjD7n+W92kJvrqVfVnn30mk/aQkJB6t+i6O+gv5Bs2bFhmyzbVSy+9VOH3prCwUI7Zs6erd/PmzUDpAsiO+Pzzz5GUlIT4+Hj8+OOP8v6TJ0/CZrMhPz8fP/74I9599108/fTTGDZsGDp27Ijg4GDExMTg999/l4/p2rUrxowZg5KSElx99dXyfnfw8/PD/v37ZaK7b98+tG3bttLWnvXr18ty27ZtsW3bNsMuK23bttXVdszvv/+OESNGyP8vTz75JJYuXQooO7hoYxSbN2+OxYsXo7i4WC66HBISYliM2V76oUb2zgD3ZO5o9XRp4ufNLX7r1q1DSkoKwsPDcdttt6lht9GutuzpGrBXRV011aEf/1PdK2LN5MmT5T/wp59+utydBCozatQoBAYGwmQyYciQIbBYLLBYLCgpKYHFYpHjUhyl/6yXN76Jap9++AKUbjLovkdQdg7wZvoxuWFhYThx4gTefPNNPPvss5gyZQo+/PBDedETHR2Nt956S/doo/nz58vEuqpF7TMzM+XfR03YK5OZmSmHfrz99tuG88O1116Lv//+G8uXL8fcuXPxz3/+EyNHjkS/fv3QsGFDCCFgtVoNLXtagpOYmIitW7e6/aIuKioK69evly08ly5dQteuXfHCCy+Uu2/tihUrZLlJkyaGFtnqtlgLITB27FgMGzZMJn0TJ07EnDlz5IWx9r+msLAQQggEBARg5cqViIiIMOwgop8k6IgDBw7IsjM7m3gKV465l9Rpvs5o0KCBACCCg4NFSUmJGvZoTzzxhAAgHnroITXkVg0bNhQAxMyZM9VQtTVv3lxOJV+1apUadsjgwYMFABEQEKCGHGKxWISPj49A6WKsaWlpahWnbdy4Uf7e4eHharhCK1askI/TL3tBdcd7770n/0YAxOHDhw3x9u3by5grF0Ovz1avXi3fk5SUFDUs7r77bhmvbCmSoqIi0ahRI4HSpZdsNptaxeDYsWPyeSdNmqSGK/TYY48JAGLAgAFV/gxVTk6OWLNmjSgoKBARERECgGjXrp0QQoiXXnpJwMVLZlVm69atIiQkxPB5DQoKEgMGDBBPPfWUuOGGG+TiyCg9HxYUFIhvvvlG3vf444+rT1ulzMxMMWLECMPPfemll9Rq8v0BIEwmk/jXv/4lY4cPH5ax1q1bGx5nr6+//lo+x/Tp09Wwx1OXc/nss8/UKk5zWYvf33//LZt4GzdubNimxtNlZWVh3rx5AIC7775bDbuV1i3ryFi3quj/ds7OxNWu2Jwd+7Zu3To5bqRjx45uGffw0UcfybIjewrrZx0mJycbYlQ3qN0l+m79lJQUw3g2rRXL22lds1C2B0PpRDZtklWvXr0qnT368MMPy6U/7JlwoO8lsGc8IEoX39ZWVPjwww+r/Bmq0NBQDBkyBIGBgXJc8/HjxyGEkAtU67uB3enKK69Eeno6Jk6cKO8rKCjAli1b8Mknn2DFihWGFQSuuOIKBAYGyoXyUcEWbpXZu3cv+vTpI7tzUbocW3mtuO+88w7i4uLw+OOPIzU1FdOnT5cx/bI++rIj9J81t7R21XHqGD9n/weXx2WJn37nCGe79Oqb1atXw2q1wmQyYdCgQWrYrbSxSlrXSHJycpmTtKO0cSL+/v5o3ry5GnaINkZQ/TA7Sj9eZ8qUKYaYKyQlJeGnn36Sx44sIdGiRQv5PmVnZ+PUqVNqFarDXnnlFVkOCQlxeEKBp9Kvt6df9/DgwYNyAoefnx+2b98uY6qlS5fKmabh4eF2zZbWJ35qwl6Rffv2AaXfW2eHGWndqlarFTt37pRdxjX5fy0oKAjvvvsuFi9ejP79+xvWF9Tr2rUrtm7dCijLu9g7NjI/Px+PPPIIevXqJXeuCQgIwJw5cypcVkZL+ObOnVtmWIR+bb/qnvP1O0e5u3u9Pqju+1gZlz3jxYsXZbk6a/fUZ9rCrwMGDHB43JmztCTju+++Q48ePdClSxdD64WjcnNz5SLc/v7+Tn/oGjZsCDg5ScRms8lFmgMDA3HDDTeoVZySm5uLQYMGyTEyTZo0wdSpU9VqldK/prVr1xpiVLfpF26OiIhwuLXIU+kH8WuJ37Jly9C9e3cUFRXBZDLhhx9+qPAcsWvXLjz00EMQQqBBgwb4+++/7eoJ2rZtmyxrvUhV0SYWuqLHRZ+cLl26tFY/D/feey+2bNmCS5cuYfbs2fjll1/wwQcfYOHChfjf//6HvXv3yqQwJydHPm779u1l1lfUy8rKwsyZM9GiRQvD+MuEhARs3rwZTz75pPoQu3Tr1k2Oo545c6Yatot+Uoo7Wrvqm8r+jtVV/je2GvSDML1t4ebVq1cDtdRFNHDgQKC0xWr37t245557qjWFXqNfi64mr3Ar89VXX8nZXa1atXLp67LZbLj55psNye769esdntV55ZVXyrK2PyjVHfrZ3Hr5+fmGLk01cVi0aBFMJpPbZ3XWRfoZpTk5OXj66afl8h6+vr748ccfceuttxoeozl69Cj69euH3Nxc+Pj4YMmSJXYP9tfvQqHOvq6INqmqT58+ashhkyZNkgnqO++8I59b3bu3JoWGhuKpp57CrbfeivHjx2PUqFF4+OGHDXX0qyYcOnQI0dHR6N27N6644gr07t0bjz32GJ544gn06tULcXFxeOWVVwwNNq1atcLOnTvRu3dveZ+jgoODkZeXh9zc3GovnK2faOVMI0Z9pQ1p0qgT0VxCHfRXXc2aNZODPV21N2B9cPz4cTkI888//1TDbpGRkSHmzJkj2rVrZxgEqg1GdsYNN9wgn+/zzz9Xww7TBnX7+fmpIbvNnz9fvqbbbrtNDTvlueeeM7yHTz31lFrFLomJifI5/Pz8RH5+vlqFapE2+Uq7bdiwQQghxG+//Wa4f/PmzYbHTZo0SQAQzZo1M9zvDf766y/5voSFhclyeHi42Lhxo1pdOnTokGjSpIms/+CDD6pVKjV37lz52K+//loNl2Gz2UR0dLRABZNQqqNp06aGzwUAcfvtt6vV6hSr1SruvvtuuYe5vbeOHTuKadOm1YkJmWvXrjXsAT1r1iy1isfLzc01/H3Wr1+vVnGaSxK/y5cvyw9bdWfy1FevvvqqQGnCW1RUpIZdJikpScyaNUs0adJEbhau3bSNvoODg+3ejLw827dvl88ZHh4uCgsL1SoOCwoKks9ZXT///LN8jokTJ6rharvzzjsN72N1kz5Nq1at5HN54+biddnMmTMNf+tdu3YJIYR46KGH5H1hYWFlvsOLFi0SqIXZ+nXBrl27DO8ZANGhQwdx9uxZtaqUmJgo4uLiZP1Ro0Y5PMPW0cTvyJEjAi5OztesWWNIQACIkydPqtXqpP/+979yBYTKbu3btxc//fSTw38fVzl06JB45plnRIsWLURwcHCZhNVkMjn1/6y+qonEzyVdvbt375a7KTiyT6En0Prf27RpU+1ZTOWxWCz4/fffMWjQIISHh6NDhw546aWXkJKSApvNhrCwMDz66KP4/fffMW7cOKC020q/8rwjbDYbxowZI4+7dOnicHdnebR1sSoaB1QZbbyhfhHP6q61p1dcXIyxY8fihx9+kPc9/PDDTm3vhNK1BTWOLi5N7tWsWTPDsdad8u2338r7mjVr5tLvcH3XsWNHOawiODgY//znP3Ho0CHEx8fjvffek+d8zc8//4y+ffvKbR5feeUVLFy40OExcvquLXvG+GldsX379lVD1TZkyBAkJyejf//+aN++Pd577z20aNFCrVYnjR07FiUlJcjIyMC+ffswe/ZsTJs2DUuWLMGSJUswc+ZMzJs3D0lJSbjtttsc/vu4yowZM/DRRx/h1KlTyM/PN3yetDGCzowN9xT67niXUTPB6pgxY4bMTqdOnaqGPVqPHj0EAPHYY4+pIYelp6eLl156SfTo0UO24ulv/v7+okePHuKZZ54xdCVarVbRvXt3eZX0888/G57XHv/6178MP2fv3r1qlWpp27atQOlaU47IyMgQV1xxhbjpppvE1KlT5Wvr27evWtUhly5dMqyBhdKWguLiYrWqw1JTUw3PW19aCLzBd999Z/jb/Pnnn2Lv3r2G+8obRuDNLX4VmTJlSpnW8QULFgg/Pz/5XjpzPnz00Ufl8zz77LNquAytG//NN99UQ1SHnTlzRkyfPl10795dxMTEiKioKNGgQQPRp08fsXv3brW617BYLIbz0qeffqpWcZpLEr/OnTvLF/nBBx+oYY9ls9lk8/SYMWPUsF22bNkiXn75ZTFw4MBym+cDAgJE69atxfz58ysdO5mUlCRPvL6+vmLNmjVqlQrNnj3b8DOXLl2qVqm2yMhIgdKE1F6ffvqpiIqKElFRUWL//v1i8eLF8rU5Ol5I77vvvhPBwcGG33X06NFluvecoR8b9Morr6hhqiVLly41/N1XrVolpk2bZrhv586d6sOY+Cmee+45ERQUJI4fPy5E6UXnU089Jc+DJpOpWosH6+kX27bnn542/nDRokVqiKhe0i+S7Yqx9iqXJH76SQaVDfr1NPq++E8++UQNl8tms4nt27eLV199VXTq1Mnwj0e7+fj4iJEjR4pff/3VoTEO+jFrPj4+4sknn6zy8bNmzTKMGbzqqqvUKk7Rj/GrbGyQ5rPPPpP/RLQV4fXjs1q0aOHwxInDhw+L22+/vcx7/NFHH6lVnbZs2TL5MwIDAytN1qnmqDt3vPnmm6Jr167yOCEhQX2IEEz8DObOnStMJpNo3ry5EEKIrKws0aVLF8PnfcmSJerDHPbBBx/I55w7d64aNigpKREzZ84Uffr0ccmYZKK6QP+9mjx5shp2mksSvxYtWsgXmZ2drYY9VnJysvy9FyxYoIYN9u3bJ55//nnh7+9v+Aek3Zo1ayZeeOEFsXHjxmrPrrLZbOL55583JHLBwcHijjvuENOmTRNLliwRH3/8sRg7dqx49NFHDYOwUTq7KyMjQ31ap9xyyy3y+b/66is1LBUVFRnqDhw4UCZ4+q2IAIiWLVuKH3/8scKkymq1iiNHjoiFCxeKK6+8skxLqslkEvPnz1cf5hJWq1WEh4fLnzVq1Ci1CtWCP//80/AZGDdunOF4/Pjx6kOEYOInnTp1Sl7ELV++XBw4cMCwzZ2Pj4/LVjXQT7j5//6//08NC1HaTXjTTTeVmYVN5AkSEhLkd6B3795q2GlOJ37FxcXC19dXABAxMTFq2KPt3LlT/nHU5tj8/Hyxbt06MXLkSBETE2P4JwNAmM1m0a9fPzF58mSxevVqw2Od9f3335eZIVXV7cUXXxRWq1V9Kqd9+eWX8me0adOm3BbIzMxMMXToUFkvODi4TFI3YcKEMr+TyWQSoaGhomXLlqJXr16iXbt2Ijw8vMxsPO3m6+srxowZI86dO2d4blcbO3as4TWyC6r26fd6RmkLn/6zsXDhQvUhQjDxE6L0vdOWZerWrZuYNGmS4b1s1qyZSxMw/ZjxZ555xhArKSkRM2bMEIGBgSI6OtoQI/IU2ph9uGiZNpXTiZ++1csdmWldtnnzZvm7BwcHi4CAANGkSRMRHBxcZskVlCYBXbp0EY899pjL1puqyJYtW8SDDz5oWE9LvZlMJuHv71/hVbUrJCUlGX5m48aNxYwZM8QHH3wg5s2bJyZNmiRiY2NlPCoqqsLhAq+//nqZ38He29VXXy0OHjyoPqVb2Gw2OekHpev6OTLmktxDv/G9PnHx8/OrsJtw4cKFAoAYOXKkGvIaAwYMkO9V3759Dd+re+65R+Tk5KgPccqvv/4qnz80NFSMGzdOPPLII2Lw4MGiYcOGAoAICgoS+/btUx9K5BGmT58uvwNt27ZVw05zOvFbu3atfIF33XWXGvZoeXl5ZVqh1JvJZBIhISFi/Pjx4sSJE+pTuJ3NZhNz584VEyZMEJ9++qmYMmWKGDt2rNi4cWONdcuPHj26yvcJgOjcuXOVM2EXLVokRo0aJYYMGSJbmsu7tWnTRtx1111i1KhRVY4Tcoc9e/aUSf67d+8uXnvttRp738lIPyRFfxs7dqxaVXrmmWcEvHB9Uj39bF3tZjKZxMiRI92yBtyhQ4fK/Dz9zcfHx6UT0IjqmiVLlsjPu9lsrvbwr4o4nfjNmTNHvsAXXnhBDXu8WbNmia5du4qhQ4eKLl26iAceeED07dtXXHvtteLnn392+Zi5+mrRokWVJn8xMTEiMzNTfVilioqKxIoVK8T27dtFYmKiSExMFKtXr64z7/lff/1Vbrezr6+vSEpKUquTm82aNavM3wKAWLlypVpV0iYWDRgwQA15BXWJIgAiNjZWJCYmqlVd6r///a9htxDtlpCQIJYvX65WJ/Iov//+u+FzX96KA84wCXUVTgddf/31WLVqFQDgySefxJw5c9QqREDpQt/Lly/HpUuXsGrVKnTr1g2DBw9GcHAwRowYgaCgIPUh9d6ff/6Jhx56CCdOnJD7jnbs2BEbNmxAbGysWp3c6Pz582jSpIlhoVg/Pz8UFBTIvVlVH330EZ599lkMGzbMsI+1t0hKSkLHjh3l8eDBg/H9998jOjraUM8dCgsL8eabbyI6OhqFhYW45ZZbDK+FyFOlpaWhUaNG8njDhg0YOHCgoY4znE78Bg0ahI0bNwIA3n//fTz33HNqFSKvl5WVhRUrVqBHjx5o27atGqYaMmfOHEyYMAEWiwWxsbFYtmwZ+vXrp1aTvD3xA4ApU6Zg1apVeP3113HttdeqYSJyg9DQUOTl5QEAFi5ciFGjRqlVqs3xfbQq4cqMlMiTRERE4J577mHSV8vGjRuHwsJCCCGQlpZWadIHACUlJUBp65O3mjZtGrZs2cKkj6gG6XshfvnlF0PMWU4nfqdPn5bl5s2bG2JERPXZ1q1bAQD79+9XQ0REbqPfN7ygoMAQc5ZTiZ/VasW5c+eA0k28Y2Ji1CpERPVW06ZNAQANGjRQQ0REbpOQkCDLV1xxhSHmLKcSv9TUVBQXFwNs7SMiDxQZGQkAiIqKUkNERG5z4cIFWT5z5owh5iynEr89e/bIcmBgoCFGRERERI7LycmR5ZSUFEPMWU4lfjt27JBli8ViiBERERGR4+Lj42W5a9euhpiznEr84uLiZLl///6GGBERERE5zmq1llt2BacSv6ysLFlu0aKFIUZEVN8dPXoUAHDq1Ck1RETkNufPn5flAwcOGGLOcirxy8zMlGUOfiYiT5Oamgoo422IiNwtIiJCll3dsOayxE+b/UZE5ClatWoFAGjdurUaIiJyG/1QOv14P1dwKvHbtm2bLJvNTj0VEVGdoy2cGhoaqoaIiNzm5MmTsnzw4EFDzFlOZWtpaWmyzK4QIvI02lZtXK6KiGpSUVGRLGt79rqKU4lfmzZtZJldIUTkabQWv6CgIDVEROQ2sbGxsjxgwABDzFlOJX7BwcHqXUREHoMtfkRUG/RrI4eHhxtiznIq8SMi8mSXL18GAPj4+KghIiK30S/noh/v5wpOJX65ubmyLIQwxIiI6rukpCQAwL59+9QQEZHb6BdtdnWPg1OJ37Fjx2T58OHDhhgRUX2nXdDql1YgInInm81maEy76qqrDHFnOZX46RdtbtKkiSFGRFTflZSUAAC6dOmihoiI3CI7Oxs2m00e6xdzdgWnEr/mzZvLclhYmCFGRFSf5efno7i4GHDD4GoioopcvHjRcOzqdUSdSvyIiDyVfi9yJn5EVFOOHz9uOHb1HAqnEj9XvxgioroiOztblpn4EVFNUXdCa9++veHYWU4lfvrJHWrTJBFRfaZP/Fw9xoaIqCLp6emyHBwc7PI1k51K/LRV7QEgMzPTECMiqs/Y1UtEteHChQuy3KBBA0PMFZxK/Nq2bSvL3LKNiDxJRkaGLDPxI6KasnLlSlnWN7C5ilOJn6sXFSQiqiv0J19tBw8iInfT96C6upsXziZ+RESeSn9hy3VKiaim+Pn5yfKNN95oiLmCU4mfPivVby9CRFTf6WfWxcbGGmJERO6i35u3Y8eOhpgrOJX46V8ct2wjIk+iv7CNjIw0xIiI3KGoqAjnzp2Txy1btjTEXcGpxE9/FazfxYOIqL7TxvX5+fkhJCREDRMRuVxiYqJhuzZ39DY4lfg1btxYlt0xAJGIqLZoLX6RkZEwmUxqmIjI5fStfXDD4s1wNvEjIvJU+sSPiKgmnDlzRpYbNWqEmJgYQ9wVnEr89M2RRESeROvqjYqKUkNUz504cQKffvopRowYgZEjR+LDDz9UqxDViiNHjshy586dDTFXcSrxO3r0qCynpqYaYkRE9Rlb/DzP5cuXcf3116NVq1Z48skn8eOPP+Lbb7/F+PHj8cILL6jViWrc9u3bZVm/SYYrOZX4lZSUyHJhYaEhRkRUXxUXFyMvLw8A4O/vr4apHvrss8/QsGFDrFq1Sg0BAN59910sXLhQvZuoRu3bt0+9y+WcSvz02WhCQoIhRkRUXyUnJ8vyiRMnDDGqfy5fvoyJEyfKxorw8HCMGTMGCxcuxOOPPy7rrVmzRvcoopqVkZFhaFDr2rWrIe4qTiV++tWliYg8xaVLl2S5U6dOhhjVP08//bRswe3YsSPOnj2LTz/9FKNGjcJ///tfuRfzxo0blUcS1Zy9e/cajkeMGGE4dhWnEj9vkpubiz179mD//v1qiIg8zIULF2S5T58+hhg5Ji0tDatXr8aOHTtw4MAB7NixA4cPH8bRo0exbds2ZGRkQAihPsxlJk2ahEWLFgGlW+9t3rwZYWFhMu7j4yPXoU1OTkZKSoqMEdUkfTdvgwYNDEvmuZJTiZ9+Qod2NeWJtm/fjpiYGHTv3h1du3ZFQkJCmcyciDyH/tzmrpOvN1i6dCni4uIwdOhQ9O3bF126dEHfvn3RoUMHtGvXDldeeSWio6NhNpvh6+uL+Ph4TJ8+HZs3b0ZxcbH6dA4rLi7Gxx9/LI8/+eQTNGjQwFAHALp16ybLBQUFhhhRTdG3OLurmxfOJn7nz5+XZU8dBzNjxgz069cPFotF3nfq1CnceuuthnqepLi42DCziMjbMPFzjccee8zu1jyr1YqUlBRMmTIF11xzDQIDA9GjRw9s2rRJrWq3b775RjZKdOjQAbfddptaBVD2Q9Wf64lqkn7ikY+PjyHmSk4lfvrm8iuvvNIQ8wRnzpzBm2++CZQu6fDHH3/g3nvvBQCcPXsWp06dUh5R/23duhWRkZF2zSwSQuDy5cu4fPkyLl68KMtJSUlyDTQyysnJseu9pdqlv6it64lfUVEROnfujEGDBqmhWpWfn4+srCx53KpVK1x11VXo3r07rr/+etx4443o2rUrhg0bhj59+iA4ONiwQ4rNZsPu3bsxcOBAdO7cGc8++6yhC74qQgi8/vrr8njOnDmGuF52drYs68d3EtWk/Px8WW7Xrp0h5lLCCY0bNxYABACRlJSkhuu1oqIi0blzZwFANGjQQJw4cUIIIURubq4ICwsTAMSoUaPUh9Vr58+fF8HBwSIyMlJkZ2erYSGEEIWFhWL69Oli+PDhIjAwUP79y7uZzWbh4+MjevbsKQ4ePKg+VZ128uRJ0bx5cxEZGSk+/vhjNVxt1113nQAgVq5cqYaoDhk2bJj8HGdkZKjhOmXfvn3ytWZlZanhWvPyyy/L1zVgwAA1XK60tDTx7bffiltuuUX4+/uXOaf4+/uLDz/8UFgsFvWhZUybNk0+rnv37mrY4OGHH5Z1v/76azVcbYMGDRJms1mYTCbRq1evCs+rROfOnTN81tevX69WcRmnEr+AgAD5ItPS0tRwvfb444/L32358uWG2JVXXikAiICAAMP99ZnNZhNt27YVAMRzzz2nhoUQQkycOFH4+voaPpy+vr4iIiJCmEwmw/3qzWw2i6FDh9aLhMdqtYrY2FjD6z9w4IBarVoaNGggAIh//OMfaojqkJ49e8rvuM1mU8N1yp49e+Tn9PLly2rYYf/+978FANGjRw815JArrrhCvq6FCxeq4SoVFxeLn376Sdx4441lzi8tW7YUM2bMEFarVX2Y1KdPH1l/+vTpatjgP//5j6y7efNmNVwtxcXFhtes3YYOHSq2bdumVicvt2bNGsPn5MKFC2oVl6l24pebmytfoMlkEsXFxWqVeis7O1tER0cLAOLKK69Uw2L+/Pnydz927JgarjF79+4V99xzj7jvvvucbpXYunWr/J201k2V1tLZp08fcffdd4tXXnlFrSKEECI/P1+cPXtW7NmzR0yfPl106tTJ8Fl58skn3fqhdtaCBQsMX0AAYsqUKWq1aunWrZsAIBo3biyEECInJ0cUFBSo1Zyyfv16sW3bNpGYmCgSExPFxo0bxZo1a+Tx5s2bxZEjR9SHkY7Wm9GiRQs1VOe4OvFr1KiRfL7qtlAdOnRIPkeDBg3UsMMSExPFoEGDylx4duzYUWRmZqrVRVFRkYiMjBQobSXMy8tTqxh8/PHH8jldlfgJIUS/fv0Mr1d/q+gCm7zTlClT5GcjPDxcDbtUtRM//cnGbDar4XpNu+INCQkRKSkpalhkZmYKHx8fAUDMnTtXDdeYoKAg+TewtyulIuPGjROo4h+dv7+/MJlMQgghvvjiiyq7TzRWq1V8/vnnhtfr7+8vRo4cqVatE9q1aycAiIYNG4rmzZsLACIiIkKtVi2PPvqofA8SExNFQECAiImJUas5zGazieXLl8tWW3tuvXv3Fu+9916964Z3N6vVKhOM8i786hpXJ37aBR4AsWvXLjVsl0mTJsnnuPXWW9VwtR06dEjcfvvths9xu3btyrTI61tPbrnlFkOsPB988IGs78rETwgh8vLyxPjx48u0WgIQnTp1qjIpdaWsrCwRFBQk2rZtq4aolvXq1Ut+LqKjo9WwS1U78Vu3bp18kWFhYWq43jp8+LBM6l599VU1LHXp0kUAENdcc40aqhFfffWV4QTSpEkTtYpDQkNDBapIILVuysuXL4vExETh7+9v11gbTVFRkfjggw9EeHi4fN3PPvtsnepK++OPP+Rre/vtt8WIESPk8bp169TqDlu8eLF8vg8//FC0adNGoDQJrI6ioiLx6aefiu7duxs+D47eZsyYoT611zp69Kh8X7p06aKG6xxXJ3767+eaNWvUcJXy8vLkMCBfX1+3tO5//vnnhtfp4+Nj+Aw/+OCDMvbf//7X8NjyPPTQQ7L+V199pYZdIj8/v9zv6cSJE9WqbnP48GGB0kYNqlt69+4tPxPuvuCsduKn7w4bOnSoGq63HnvsMXkiqWyg9FVXXSVQemKrDdo4w4iICPl3qO64EZvNJvz8/Ko8CWmtSV988YUoLCwUvr6+Yu/evWq1KqWlpYmOHTvK1z169GhRUlKiVjPIz88XBw4cEMePH5e3Xbt2yfLRo0fF0aNH1Yc57N577xUovZgpKCgQR44ckVfqjz32mFrdYXl5ebI1qUOHDuKnn34SAMRDDz2kVq3SkSNH5JAE7daiRQsxefJksWXLFtm1u3btWvH777/L43Xr1ol3331XDBs2TJjNZgFABAUFlWk18VYrVqyQ72e3bt3UcJ3j6sRPu/AFID766CM1XCX9pAp3vn8pKSnyPIzSc7Z2DtBPPDt9+rT60DL0LZTuHFRvtVrlOUa7hYSEiKKiIrWqW5w8eVKgip4dqh363hp3X4hXO/HTf7mffPJJNVwvFRYWiri4OAFAPP3002rYYPbs2fL3r+lxfufOnZOJ2jvvvCNfx/PPP69WtcuJEyfkc7z++utqWHrppZcEAHHbbbcJIYTo1KlTtQZti9KBz/qr8nbt2pU7UHvr1q1i3Lhxhn9Gld3atGkjZs2aVa0k5sCBAzIR+s9//iPvv/766wVKu6cvXbpkeEx1aMm6n5+fsFqtomXLliIgIECcP39erVqhr776ytAl16hRIzF//nyH/4Hs379fjoUKCgqqU62vteWHH36Q7+sLL7yghuucJUuWyNfr7LmouLhYfgcAiDlz5qhVKpWRkSF7D0wmk1i7dq1axaUsFouciIPS8cfp6enyODg4WH1Iud544w35mN27d6thl9OP5wIgHnjggRr57jHxq5tKSkrk/3QA4ptvvlGruFS1Ez/9OIuZM2eq4Xrpiy++ECj9B5+amqqGDY4fPy5/f1dO/7eHdsUYEREhbDabvOpt1apVtU4e69evl7/LO++8o4alnJwcERQUJEwmk9i8ebMYOXKkeOmll9RqdrNareIf//iH/Nlaa2Nubq644447RLNmzWSsOreqknfV4MGDBUoTspycHHn/+++/L5/TFa1++u/OhQsXxKxZswSqSLo1eXl5cpgBSlucn3rqKacmV+lnNFbWyu0t9AP9P/zwQzVc5/z222/y9R4+fFgNO0S/NAwAccMNN6hVKnXrrbfKxw4bNkwNu0VBQYFhBrF+Nu+IESPU6uXSJ2I1sTRZSkqK4X0GIAYNGqRWczkmfnXTrl27DJ+F6vbe2avaCzjrV1P3lJXOp06dCgC47777EBcXp4YNWrVqhUaNGgEAtm3bpobd6sCBA0Dp6zSZTBgzZgxQus/k/PnzldpV0++60rJlS0NMLzQ0FB07doQQAu+++y4CAgLw9ddfq9XsZjabsWrVKtx4440AgPfeew8jR45Ep06d8OOPP+LMmTNA6eLZo0aNwscff4xVq1Zh1apV+PXXX/H+++9jxYoVWLVqFX788UdMmDABV199tVwE9osvvjAsIFuZ/Px87Nq1CwBw8803IzQ0VMYeffRRBAQEAAB+/PFH5OTkyFh1dOnSRZbXrVuHxx9/HCEhIZg9e3al21QJITBixAi5X3R8fDw2btyI2bNnw9fXV61ut969e8uyM8/jKfSLN1d1HqgL/Pz81LuqTfvOaaxWq+G4Mhs3bsTy5csBACaTCdOmTVOruEVgYCC++eYbudPBjh07ZKxHjx66mhXTnwP9/f0NMXfIzMxU78KGDRswc+ZM9W7yAto5XdOkSRPDscupmaC9tOZ8AOL3339Xw/XON998I3+f7du3q+Fy9e3bV8BFyxXY6+DBgwKlM6nPnj0rRGn3ijYO7aqrrlIfUqU333xT/u6LFy9WwwYHDx4UZrNZ+Pn5ibvvvlsAcGiCR3nUK3bt1rx5c7F48WKHlzvRd33Z2+rw6aefCpS29mnvq56+FWjatGlq2CGvvvqqfC5tmIS2bmRlLUyvvfaafFxcXJy4ePGiWqVa9BOFHH2vPZE2zheA2LRpkxquc7799lv5ep3tply4cKF8Lji43mRMTIx83I033igef/xxERcXJzp27Ciuu+460b59e9GwYUNx9dVXi+uuu060bt1aNGnSRNxxxx1i7NixYtiwYeLJJ5+s9lJDI0eONLx2AOKXX35Rq5VLP7De2VZTe+i/c9qkOZS24K9YsUKt7jJai1+zZs3UENWiefPmyc9ATawPXK3ELysrS75Ik8nkEd1D2srtjnwhbrzxRvke1NSU/OHDhwuUk+BpJz0fHx+RnJxsiFVl7ty58u/522+/qeEyrr32WoHStejggu7B4uJiuUuKdvKr7thBjTbjb8iQIWqoXNo4t4q6hiwWi+x6NpvN1f7nJJSLDC3RW716tQAgQkNDyx3rqC0xhNIufVcumP6///1PoAbWjqov9Lt2ODtmriZoQwUAiD/++EMNO0Q/ycGRz4TaRezsLSwsTPTu3Vvk5uaqP6pCaWlphk0FAIhDhw6p1cp1zTXXCOjG3bqbfnbvzz//bJhVHBgY6LaxkatWrRIo/T9R1YQ6qjn6OROdO3dWwy5Xra7epKQkWY6Pj0d4eLghXt/k5eXhhx9+AAC8+uqrarhCWherEAK7d+9Ww+XKy8uze9Nylc1mw7p16wAA/fr1M8QmT54Mk8kEq9WKV155xRCrysmTJ2X54sWLhlh57rvvPkDXJVZQUKDUsF9xcTGuv/562X0NACUlJTh+/LihnqO07i+ti7YyR48elV0vd911lxoGSrt/tN/bZrPhqaeeUqvYTds0HgByc3MBAIMHD0ZMTAxyc3OxevVqXe3/9/l6//33gdKu2GXLliE2NtZQxxnLli0DSr/LBKSmpspyfejqTUhIkOXIyEhDzFG//fab4biyoQd6EyZMUO+SAgICEBUVBX9/f5jNZoSFhSEqKgp+fn6GvXn1cnJykJiYiFtuuQU2m00Nlys2NhadO3c23NesWTPDcUW0Lu62bdvCbK7Wv0W7bd++HXv27JHHQ4YMwWeffYZrrrkGAFBYWIjhw4fLc4MracNUrFarW56fqmfz5s2yXBP5VLU+4X/99Zcs60869dXXX3+NnJwcBAYG4t5771XDFerbt68sJyYmGmI2mw3btm3Dv//9b0RHRyM8PBzBwcEIDQ1FaGgohg0bZhhLZI+1a9ciJycHoaGheO211wyxzp07o0WLFgCAJUuWOPTc2tgYAOjevbshVp4nnngCgwYNkgms/iTmqBEjRshk9pZbbpGfpxkzZlQ7oczOzsbly5cBXWJVGS3xiYmJwciRI9Ww9MYbb6BVq1YAgNWrV+P7779Xq9jl8OHDsqxdRPn4+OCZZ54BALz00ksyDgDr16+XJ+yxY8eiU6dOhrgzsrKysHLlSgCQY1a9nZb4hYWFISQkRA17NG2TeC0hKygoMGwcX5EOHTrIctOmTTFx4kTs3r0bFosFhYWFyMjIgMVigdVqRXZ2NjIyMlBUVASbzYa8vDykpKRgy5Yt+OSTT3DnnXfKc9L69esxdOhQ3U+qnHrhFhgYaDguT1FREU6fPg0AaN26tRp2qcLCQowePVqeO2+44QaEhobC398fP/zwg7xgzc3NxdixY5VHO49jeOumffv2ybK+YcBt1CZAewwaNEg2S/bt21cN1zva2BR7uwX1tO7OBx98UFitVrF+/Xpxww03GKZma7ewsDARFRUlunTpIl577TWHu4fvv/9+AUCMHTtWDQmhrD7/6KOPquEK3XbbbfJx9i6D8tdff8nHPPHEE2rYLrm5ufJ9atSokSgsLDSMV3r33XfVh9jl3Xfflc9hzxitHj162P17JCUlyTXCwsLCxKlTp9QqVdK6VgGIt956S96/d+9eef++ffvk/dosXl9fX5d28QohxOjRowVKV4p3xRpw9Z1+14527dqp4Trp7bfflp+bX3/9VQ3bTb/GpLasFQCxdetWtWq5Vq1a5fAwk4ps377dsMakvXbu3Clft7bLUFU2btwoH+PONWmtVqthxnGHDh1Efn6+oc7atWsN/zs++eQTQ9xZv/zyi3zu8ra6o9qRkJAg/y6O/O+urmolfldffbV8kePHj1fD9UpKSoqcGDF79mw1XCXti+zr6ytiY2Pl+wJAJCQkiOeff16sWLHC4SRPdebMGXkirOxEfPPNNwuUjkPbsGGDGi7XkCFD5GMcGfehTfBJSEhQQ3bRn4SaN28uhgwZIl5++WXRsmVL+XqmTJkiFixYIDIyMgxLrFQkNzdXju+zd0cZ7e8/a9YsNVSumTNnytcdHx/v8BjHTz75RD5+6tSphpi2k8eECRPkfVqi6eolGBYtWiRfh6PrtXmq1NRU+Z706tVLDddJ+slZziytpZ/Yod9f29XJh72084u932NRmrxqrxt2tmvot3e7//771bBLFBUVlZl8UtGuKPoLeJPJJJYtW6ZWqbapU6fK53bFgvfkGvoLrZr4vtn3zVBo/5wAuG0Qak358MMPBQARExPj0FpoVqtV/Prrr4aZbCi9ips+fbrYs2eP+hCnaIM/q1qQNCkpSSaIkZGRdi3oq+3+EBgYqIYqNXToUHlyqs5kB21Cg703Hx8fcfLkSfVpDLQWLFTSMqrS9uN97bXX1FC5iouLDdtF9evXz6HWsueff14+9oEHHjDEtM9jQECAfM4mTZoI6GYoV7R13KpVq8Tdd98tVq9eXeWg+I8++kguit2qVasaGdBeH+gXb67uBU1Nu3Dhgrx4UT9PjtBvT6j1LqCKrSvdpaSkRH4+qzrnqbTXbW+L3/bt2+VjpkyZooadlpeXJy/ItddV2XqgNpvNMMvYlfvqaqsXABDff/+9GqZaYLVaDYum//DDD2oVl3M48SsoKDDsouDIbgN1UdeuXQUc2H0kLS1NvPnmm7JVSn9z5mq7Ktqs18oWWNboW2Sr2s0jMzNTfugc7erWZsIBENdee60atsvIkSNFjx49RFxcnIiKihI9evQQPXv2lN0dPj4+4sYbbxTffPON+O233ypdoFqbmQ1AjBw5Ug1X6OWXXxZwsJvn9OnThi12mjVrZvcyEPquXrWV8cKFCzL273//WwghRFBQkEDpfsyvv/66aNOmjeExmnbt2snH+vr6ij59+ogJEyaIpUuXyv1SDx48aPgn9MADDzh0wePpvv/+e/ne3HrrrWq4ztK2QIyPj1dDdtM+zyaTSRw7dkx+B2tilqFK3/160003qeFKaUmw2WxWQ+VyZ+J39OjRMsu12LMX8IkTJ4S/v798nKuSNP3C0c4svk+uc+rUKfk3QQ1tCOFw4vf777/LF+hoC1Fdk5ycLH+Xn376SQ0bJCYmijFjxsh/wiht3dMvs/Hee++pD3MJrSsiNDTUrnEZBQUFon379vJ1vf/++2oVSb9rwzPPPKOGK/XPf/5TPjYyMlINO2XDhg3yua+66qpKEz6bzSaTN5TufZmdna1Wq9Aff/whUNqyUFhYqIYrlJ6eLscHao9fvXq1Wq0M/U4gkyZNUsNyH+ZmzZoJm81m2JIKgLjiiivUhwhRmoxOnjxZ3HnnnYauA+0WGRkp/ymaTCZx7bXXsqVPoe+Gd3a9xpp0zz33yNe9efNmNVylv//+Wz5e2yBe2xLQbDZX2YLsSkVFRYblnextudfoP/P2WLt2raz/4IMPquFqsdls4pNPPhEhISHyuX18fMTPP/+sVpUKCgoMy8989NFH8rFNmjRx2Rqb2rJUnjA+3xPox3YDcHlvYXns+2bovPLKK/IFRkdHq+F6RetWCwkJqbDVIzU11ZDsBQQEiFGjRhlOrtrYPme6WSrToUMHAUA89NBDaqhCSUlJ8ordZDKJL7/8Uq0ihG7igNlsFmfOnFHDlXrvvffk++KOfV7127n17Nmz3DW5duzYYRiP1LhxY4e3u8nLy5NX1xs3blTDlcrIyJB772rv4/PPP1/potZPP/20rD9mzBg1bBj7+Pbbb4sLFy6UWZ+sRYsW4v777690a8HDhw+LefPmiUceeUS2BppMJjFu3LhqTUrxBvoLuc8++0wN11kTJkyQr3vUqFFquEraftQAxLPPPiuE0oJuTyuVq2jrhKL0fOvoMBL998Qe3333nazvSKt/RU6dOiWuu+46w+vw8/Or8vP03HPPidGjR8vj4uJiQyv+HXfcYahfXdpi+SaTya6GBHIvdciTI40W1WXfN0NH22EANTT7xJ369esnoNsjtjzalXBISIh48803y51VqU3wcHWrl1BOSo4uzqpvBUPpHpaffPKJ2LRpk/jxxx8NLU/VGUcyfvx4w/M7eoKuSlFRUZkxlNHR0aJ9+/Zi0KBBIioqyhDr3LlztXez0PY7rk4rT0ZGhrjjjjsMryUoKEjMmDFDnDt3Tq1uWCC4vESzpKREXmxo+y/rH6O/ffDBB+rDK7R//36Xzbr0VE888YR8b105qN7dcnJyRHBwsEDposuOTDjKz8+XrXvQjds+ceKEbCFu1aqV+jCXs1gshr1+/f39RWJiolqtStrQFXvH+P3555/yZzrT/ZmTkyOeeOIJw3gtAOLee++t8rx05513CpPJJP7++2/D/XPmzJHPExoa6lCPREW0TQBQQ+PJqHJffvml/HvUVC+qw4mfvgm+Pn9o9Jsi//XXX2rYICMjo9IuMf3yNo4M8q/K2bNn5cSLqsbqVWTlypVyVmhFN7PZXGVXd3m++OILw/NUNtu4urKysgyr2pd3CwgIED179nTon51q8uTJAtVMgDWLFi0qs4yPyWQS0dHR4qqrrhIdOnQQgwYNkv9MUcnnRd+NHhgYKJ83JiZG/PHHH+K1114Tzz77bLkXIlR9t9xyi3zfq5N01CZ9q9/LL7+shiuk794eOHCgIdaoUSMZW7BggSHmSpcuXRKDBw82fHeqcxEmqtHit3LlSln/vvvuU8NVys3NFW+//XaZVR0aNGgglixZolYvQ9vCsUGDBuWu/tC6dWv5nF988YUadtjmzZvl85XX40A1Sz+RypGli5xh3zejVHp6uuGD7WjXYF2ideloE1Wqs5SLRr8shj1bntnDarXKZVb69Olj1+zciqxevVrExsaWuRLVbo50IeutX7/e8Dz6tedc7a+//hLvvPOO6NGjh0hISBA9e/YUTZs2FW+88YZLxh99/vnn8vdwxqZNm0Tbtm3lemiV3SpbLqS87l0A4ttvv1WrkgvpZ1OWt2dzXXbs2DH52v39/atsZRKl3YlaSyHK6VXQhsOgtNfj4MGDhrgrLFmyxPBZDw4OFvPmzVOr2U3/fbGHvlclKiqqzNp6FTlz5ox46qmnyiR8KG0htWfiY3JysjwvVzTGWv//pWHDhk4PqSkpKZENCq54PnKOvgW2QYMGatgt7PtmlFqwYIF8gb6+vmq4XomPjxcobZEBIObOnatWsVt6erp8nsmTJ6vhatHWigsNDXVZF2pWVpZ48803xezZs8Urr7wi3njjDacmpGzdutVwsqvPS/sUFxeLrl27irvvvlsNVcv58+fFiy++KIKCggyz4LVby5Ytq1wzMSMjQ3Tq1EkEBweL8PBwMXjwYJ6k3Uw7L5jNZqcutmqLfiFYe9ak01q6tXNNeZ8v/ZCRoKAgu2evV2Xnzp1lWvnCwsKcbmnVP5+99K1q3bt3F9988404ffq0yMjIkLeUlBTx008/ifHjx4tu3boZfo52u/XWWx16/aNGjRIobdXXZt6r1OWjXNHyqg1zAiC+++47NUw16O6775Z/i9tvv10Nu4X93wylK8HRpT/qkk2bNhm+rPYskVIV7cTRs2dPNeSwnTt3yskGNTmo2lH6XQ5QD7vGalJubq7Yvn27OH78uNixY4capjrAarXKLvWGDRuq4XrhzJkzhiShsi7f7du3G4YmfPzxx2oVIUoTD/0s8fDwcLF06VK1mt32798vOnXqZBjygNKlaHbt2qVWd5j+Oe114MCBMq/HkdvNN98stm/frj5tpZYtWyZ/ZlXd2volmNQloKpj3Lhx8vnuueceNUw1SJ+Ev/jii2rYLez/ZihXRRXNEq0P9NP3qzMDrjzakhsmk6nSGZ1Vyc3NlUux3HXXXWq4ztEPCq9oYWGi+kC/hmK3bt3UcL2hH7YAQDz++ONlxo7t3bvX0L06btw4Q1y1f/9+0bRpU8Pzdu7cWXzzzTdlnrsimzZtErfeemuZBKtjx45i+fLlavVqc3Ryh2bEiBFlXltFN5PJJNq2bSv69etn1zi+8mjdrQEBAVXuSvTVV1/Jn+3IGqUVyczMlGO/Q0JCnBofTc7Rj8GfMWOGGnYLuxO/AwcOGD745c1WrC+WLl0qAIiIiAi7x3NURb/MjTNdntpuGM2aNRMZGRlquM658847BUrH5VS0JA5RfaAf5F8Ts1jdqVWrVobzta+vr+jUqZO4+eabxc0332xo6QsJCbFrnKzFYjEsRaTd/Pz8RHx8vBgyZIi47rrrROvWrUWjRo3ENddcI6677joxYMAAERkZWeZxPj4+4pVXXnH5eWPy5MmiQYMG1Wo9ycvLE7/99pu46aabRGRkpGjbtq3o1auXaN++vYiKihKDBw8Wixcvtmv8XlW0i+aOHTuqoTL046ldtYzagw8+KJ+zvm+9Wl8VFBQYvhOuXkC8InYnfvqN7x3dQqcuWrRokUvXMtPv+at1rzg69f7jjz+W7/GmTZvUcJ31888/V3nFSlTXzZs3T37/amO3Cley2Wxi5syZVbZghYaGih9//FF9eKVefPFFuY9udW6tW7cWn3zyicsuuusrrcXVnl2Pjh49Kt+/Zs2aqeFq0W9PGBwc7LIFosl+e/bsMXw3XDHUwR5m2Gnjxo2y/OCDDxpi9dF9992H5s2bq3dXW+PGjdG6dWsAwLx58/DNN9+ga9euarVKDR06FH5+fujVqxeuvvpqNVxnDR8+HKGhoerdRPVKQUGBLN98882GWH1jMpkwadIkfPHFF4iLi4Ovr69aBb169cLZs2dx++23q6FKzZo1Czk5OUhMTMSYMWPKfe7yREZGYvHixTh8+DDGjRuHoKAgtYrXyMnJgcViAQAcOXJEDVfKx8dHvatabr/9dkRFRQEA8vPz8dZbbwEAUlJS8Nhjj2Hnzp3KI8jVDh8+LMs+Pj7o2LGjIe4udiV+ubm5+PXXX+XxqFGjDHH6f5o0aQIASE9Px6xZs3D06FGHvtTt2rVDUVEREhMT1RARudnZs2dlOSEhwRCrrx555BGkpqYiLy8PX375Jb788kssWrQI8+fPR2JiIiIiItSH2K1Xr1749NNPUVxcjNLeo0pvly9fxr333uuyxKU+y8nJkeWwsDBDrDy7d++W5ezsbEOsusxmMxYsWCCPp0+fjpSUFHz88ceYN28eXn31VUN9cr1Dhw7JcqtWrRAQEGCIu4tdid9PP/0Eq9UKlGal/fv3V6sQgDfeeEOWtT/o6tWrdTWIqK7SJ35NmzY1xOo7f39/jB49GqNHj8Z9992Hhx56SK1CNaikpKTccnkyMzMxadIkeXzHHXcY4s649dZbER0dDQCw2Wy4//778dNPPwEANm3apNQmV/v+++9lOTw83BBzJ7sSv9TUVFnu3Lkzr9gqcNVVV6Fhw4YAIJvx9d1HRFR3eXLiR3WLvsXv9OnTsmFFr6SkBO+//z5atGiB48ePy/tdPdTqyy+/lOUNGzbIRouCggLYbDZdTXI1/TnH39/fEHMnuxK/P//8U5bvuusuQ4yMXnzxRcMxk2Si+oGJH9WUTp06yS7eoqIiDBgwAK+//jrGjRuHyZMnY8CAAYiOjsbEiRNl167JZMKtt96KgQMHKs/mnJtvvrncXrzAwECYzXalCFRN+sR6+PDhhpg7mcT/W/CyUoGBgbIF66effsJtt92mViGdRYsW4e2330bXrl0xf/58fnmI6oGQkBDk5+cjICAABQUFMJlMahUil7nmmmuwefNm9e5y+fr64o8//sA//vEPNeQSFosFw4cPx6pVqyCEgNlsxi+//IJhw4apVclFMjMz5eQaAFixYgWuv/56Qx13qTLxu3TpEmJiYuRxcnIyWrZsaahDRFSf6c9zrVq1MnStEbnD/v37MWjQIGRkZKghKTo6GjfccAOmTp2Ktm3bqmGXy8zMREpKClq0aIGQkBA1TC60c+dO9O7dWx4fPXoUbdq0MdRxlyoTvxUrVuDGG28EAMTFxRnG+xEReYI9e/age/fuAICBAwdiw4YNahUit3j77bfx5ZdfIiYmBunp6ejduzciIyPRtGlTTJgwgcOFPNSCBQvw8MMPA6UzrAsKCmpsnF+VfZBr166V5fq0thwRkb3+/vtvWa6pJRWIUDoufN++fVi3bh3279+P+fPn44MPPsALL7zApM+D/fDDD7IcEBBQY0kf7En8vv32W1nmIr1E5In0E9hyc3MNMSIiVyssLJRl/Vi/mlBl4pefny/LvXr1MsSIiDyB/sR73XXXGWJERK6mT/xqehJNpYmfzWYzrDekjfUjIvIkaWlpstypUydDjIjI1Y4dOybL7dq1M8TcrdLE7+TJkzIr9ff395htjIiI9M6dOyfL8fHxhhgRkSvl5eXh/Pnz8rimZvNqKk38fvvtN1kODg62ezNuIqL6RJ/4aXtuExG5w7Fjx6BfUKVOJX4nT56UZU7sICJPxcSPiGrKsmXLDMetW7c2HLtbpYmfn5+fLA8dOtQQIyLyBLm5uXIsc4MGDRAUFKRWISJymRMnTsiyr69vjZ9zKk38zpw5I8s1sWo4EVFN4/g+IqpJ+ka1zp07G2I1odLE76+//pLlxo0bG2JERJ6A3bxEVJP0LX5du3Y1xGpCpYmfvsWvuLjYECMi8gS///67LGdlZRliRESupk/8WrVqZYjVhAoTv+LiYpSUlMhjLmpKRJ7o7NmzssxJbETkTjabDadPn5bHLVu2NMRrQoWJ38mTJ2Gz2YDSfeRatGihViEiqvfM5v87Dd55552GGBGRK6WkpMBiscjjOpX4HT9+XJYTEhIMJ0ciIk+RnJwsy5zERkTutGLFCsNx06ZNDcc1ocJs7pdffpFlLtxMRJ5Kf5FbG+NtiMh7ZGRkGI6bN29uOK4JFSZ++n3kAgMDDTEiIk+Qm5uL9PR0oPQCt1mzZmoVIiKX0dYMBYBmzZoZlnapKRUmfvoFBe+44w5DjIjIE+hb+1q0aMHeDSJyK/3Qkvbt2xtiNaXCxO/UqVOyXBsLDBIRuZv+JMxuXiJyt7pwzqkw8Tt69Kgs19aLIyJyJ/1JuKb3yyQi76M/59TGjF5UlPidOHEC+fn58ri2XhwRkTutWbNGluPi4gwxIiJXys3NxYULF+RxbeVW5SZ+J0+elGVfX1+EhYUZ4kREnuDvv/+W5cLCQkOMiMiVtmzZYjj29/c3HNeUchM//YDnPn36GGJERJ5CCCHLN9xwgyFGRORK+t3QAKBXr16G45pSbuJ3+PBhWe7WrZshRkTkCSwWCy5evCiPa2OzdCLyHtrSUSjdMahJkyaGeE0pN/HbunWrLNfWdGMiIndKTk6W21JGRkYiOjparUJE5DKpqamy3LBhw1pbPqrcxC8xMVGWQ0JCDDEiIk+gH9LCGb1E5G76xK82J5OVSfwsFguKiorkcW31QRMRuZN+d6I2bdoYYkRErqZfH7lOJX7Hjh2TA579/PzQvXt3tQoRUb3HFj8iqkn6Wb1ZWVmGWE0qk/glJSXJcvv27eHj42OIExF5AiZ+RFST8vLyZFm/LW5NK5P4bd68WZa5YwcReapt27bJMrt6icidhBCG5VyGDx9uiNekMonfb7/9JssWi8UQIyLyBAUFBcjIyJDHDRo0MMSJiFwpLS3NMH+iNhvWyiR+xcXFsjxgwABDjIjIE+j3IjebzVy2iojc6uzZs4bjpk2bGo5rkiHxE0IYFhi85ZZb9GEiIo9w5MgRWW7bti38/PwMcSIiV9JvhYu6lPidOnUKubm5/y/Aq2Ai8lD6xK9du3aGGBGRq/3666+ybDKZEBMTY4jXJEPit2bNGlmOiori4s1E5JH0Xb1M/IjI3fRzJgICAmAymQzxmmRI/NatWyfL7PogIk+ldvUSEblTQECALHfr1s0Qq2mGxE//wq699lp9iIjIY7Crl4hqUkpKiiy3bNnSEKtphsTvxIkTsjxw4EB9iIjII1y+fBkXL16Ux0z8iMjdDh06JMuxsbGGWE0zJH47duyQZZ4MicgTrVy5UpZ9fHzQpEkTQ5yIyNXOnTsny/oLz9ogE7/c3Fw5oxe1PNWYiMhdDh48KMu1PciaiDxfYWEhbDabPO7QoYMhXtNk4qfvfzabzdzCiIg8kn6R+r59+xpiRESudv78ecPx1VdfbTiuaTLx068q3bRpU5jNZTb1ICKq944fPy7LV1xxhSFGRORqZ86cMRzHxcUZjmuazO70a/jpNxImIvIk+sSvdevWhhgRkautXr3acBwdHW04rmky8dMPNvT19ZVlIiJPkpycLMsc0kJE7qYf32cymdCoUSNDvKbJxE+/PVt8fLwsExF5ioyMDFy+fFkes8WPiNwtLS1Nllu0aFHrE8pk4rd3715556lTp2SZiMhT6Lt5zWYzWrRoYYgTEbmafgkpq9VqiNUGmfiFhob+352c2EFEHmj9+vWyHBkZaditiIjIHQoKCmQ5KirKEKsN5c7qPX/+PO6++27MmDED+/fvl/cTEdVnmzZtkuXa7m4hIu+QlZUly7179zbEaoNM/PRZaElJCb7//nv861//QteuXREYGIhhw4YhIyND1iEiqm/Cw8NluXv37oYYEZGrZWRkoLCwUB7XhQtOmfi99dZbhu5ePYvFgt9++w0xMTG48847kZ6erlYhIqrzLl26JMt14cqbiDzbvHnzDMePPfaY4bg2yMSvYcOGuHTpEu69917Ex8cjPDy8zLIuQggsXboUjRs3xrRp0+rEIEUiInupC9UTEbnT3LlzZdlsNqNfv36GeG0wzOLw9/fH4sWLcfbsWWRlZaG4uBjHjx/HzTffbJjwYbVaMXXqVERFReHDDz80rFFDRFRX6VfQb9asmSFGRORKGzduxJEjR+RxmzZt6sTk2SpfQatWrbB8+XKkp6fjrrvuMrzonJwcjB8/Hk2aNMHs2bMhhDA8loiorsjJyTEMsmaLHxG5y2effYYhQ4YY7hs/frzhuLaYhIPZ2vnz53HzzTdj165daghhYWEYPHgwJk6ciMGDB6thIqJac+jQIXTq1Ekenz9/vtZX0Cciz7Jo0SK8+uqrOHnypOH+Fi1alLmvtjic+GkOHDiA4cOHG7Y/0gsKCkL79u3RtWtXNG7cGIMHD4bFYkHjxo3h4+ODCxcuoGHDhkDpqtaNGjWCyWRCeno6wsPDERAQAIvFgqKiIjRv3hwAEBISAqvViqCgIMPPys/PR3BwMMLCwsqMSyQiAoCFCxdi9OjRAAAfHx8UFxfXiRl2RFS/ZWdnY/z48fjhhx+Qk5OjhhEZGYnDhw/LnKe2VTvx0+zZswd33HEHTp48Wae6en18fCCEQEhIiEwGhRDIy8uD1WpFcHAw/Pz8ZLKYm5uL7OxsxMbGyj+Ov78/fH19cfz4cQQHB+OKK65ASEgIAgMDERISgvT0dGRkZKB///5o1KgRIiMjERYWhpCQEKC0BVRbPiI4ONiwWGx4eDh8fHzkMRG51zPPPIOPP/4YAODn54eioiK1ChGR3VauXInJkydj586dFc516NOnD9auXVvhqim1wenET3PhwgW88sorWLZsGS5evFinksC6LCIiAmazGZGRkcjLy0NeXh5iYmIQExMjk0ObzYbk5GSYzWZ06dIFcXFx8PHxQXh4ODIzM5GSkoL+/fujadOmCAsLQ1hYGCIjI1FUVISYmBgEBAQgLCxM/szAwMAyraZ1UU5ODkpKSmC1WpGdnY3s7GxAWYtNr6SkBBcvXkRcXJwaki5cuACbzYbAwEA1BJT+zPDwcERGRsr7tPcaAIqLixEaGorg4GDdo6g+mDx5Ml5//XUAQNu2bQ2DromI7JGVlYV77rkHGzZsgMViUcNS7969MXv2bPTt21cN1TqXJX56586dw3/+8x9kZ2dj7dq1yMvLg81mQ1paGvz8/GA2m2GxWODv7w8AKCoqQkBAAHx8fJCfnw8fHx+EhoYiLy8PJSUlMJvNKCkpUX8MuYjW6pmfn4+SkhIEBgbKvw10LaU2mw3BwcFlutOLi4tRUFAAHx8f2dqpV1JSgvz8fJjNZoSEhJTbvab9rf38/Cr9MtUVISEhiImJQWxsLKKjoxEdHQ0/Pz+cP38evXv3RpcuXdCwYUOZxMfExBjeU6p5Y8aMkUsr3Hnnnfj+++/VKkRuV1xcjNzcXGRmZsqL/ZycHCQnJyMpKQktW7YESocwWSwW5ObmYtu2bcjPz0fXrl3h5+cnn+v06dNITU1Fu3btDJswnDhxAunp6ejQoYO8aL18+TKOHDmCVq1aoV27dkDpRe2hQ4cQHx+P/v37Izo6Wj5Px44dDQ0G3qykpAQvvvgi5s6di7y8PDUshYSEYNSoUZg2bVqlDRC1zS2Jn7vYbDbDrDyVEAKZmZlA6Zfm/PnzZfbFs1gsyMnJQUxMDFCadObl5aG4uBhJSUlo0qSJYeby5cuXsWvXLkRERCAqKkq2PhUXF2Pv3r04e/YsmjdvLl+b9oVOS0uDzWZjyydJJpMJ4eHh6NSpk0wGGzZsiPDwcKSlpaF79+5o2rQpoqKiEBoaKm8RERHqU9UrWVlZsNlsyMvLw/nz5+Hn54eSkhLD9zk7OxuZmZnYvXs3EhISyu0WycrKwvHjx9G+fftyLzAuXLiA1NRUdO7c2fDPEaX/bGfNmoXTp08DAIYMGYJ7770XKF2eateuXYiJiUFCQkKZx+3evRtxcXFlln+5dOkSjhw5gi5duqB58+Ywm82yBd/HxwcFBQVo164dTCaTbEFWz0dUPwkhcOnSJXnLyMjApUuXcPHiRaxevRqXL19Gs2bNkJubi6ysLGRmZsr/C/Vp/Vt/f39ERESgsLAQwcHB6N+/P+Lj43Hx4kX4+vri6quvhtlsRkFBAdLT09GrVy+EhYXBYrEgOztbLl9itVpx/PhxJCQkyAvg8+fPw2QyyQlWubm5SEtLQ6tWreTPT0lJga+vr2FsXHJysuwRQ+nf4tixY2jSpIk8LxQVFeHkyZNo2bKlPBecOXMGQUFB8n//yZMn5f/11NRUmM1mNGrUSD5/ZmYmjh49iqVLlyIxMbHSv1tCQgJefvlljB07ttyGjbqmXiV+9V1eXh6KiopgsVhgtVphsVhQUFCAwsJC5OfnIysrC3v27EGzZs1kV2xmZiaEEDh8+DAyMzPRtm1bmahmZ2cjOTkZx44dQ1xcHMxmM3JycpCdnY20tDTk5eUx8fQwISEh8Pf3h9VqRV5eHkwmE0JCQsqss5mfnw8ACA0NNZyI9K23QUFBZRKkqlpntVbhgIAAw5hVlF6YaZ+5wMDASq+MvZ3ZbEZQUJD8JxgUFITAwEBkZ2cjJycHwcHBaNmypeH99/f3x9mzZ1FUVIQ2bdogKCjIkEjm5OTg1KlTaNSokaFFR/sHmZqailOnTqFXr16Gf6S+vr4ICwvD8ePHkZOTg2uuuQa+vr5yXLK/v78c09y4cWNDK5D2WJQmyernSSOEkC36dSn5zcvLQ1ZWluF28eJFrF27Fr6+vggNDS2T3J06dcqwBRd5J7PZjLvuugv/+te/0KVLFzVcpzHx8xLZ2dnyisVisSAzM9PQ1Z6XlweLxYJz586V+YejPT47O7vCtc9OnDiBhg0bltsSg9IuiYiIiApbr/Ly8nDhwgW0bNlSjnmEMh4xMjKyzOtyB33LsUZ7j3JycpCfn4/CwkJcunQJ6enp8h/D/v37ceDAAYSEhKC4uBgXL15k8kNUBV9fX9hsNgQEBJQZe1tYWAiLxQJfX98y5xaLxYLCwkI5xER/bigpKZEXRqGhoYYLIyEEcnNz6/TwIW34jZa0Z2VlQQiBZs2aGS64UlJSkJOTIycXovT3S0lJQV5eHuLi4gxdvWlpaQgPD0dQUBCEEMjPz0d6ejqEEBVOTiCj4OBg3HPPPfj000/r7fAdJn5EblRQUIBLly7h/Pnz2LBhA8LDw+XJNi0tDenp6Th48CBOnz4tW0vKWw7AU2ndo5q8vDyEhYWVe4GQmZmJ3NxchIeHl5ngI4TAxYsXYbFY0KBBgzKTb7QLC03jxo3lBUVhYSEuXrwIPz8/xMbGGpKE/Px8XLp0CSaTCcHBwYbkoqCgAMXFxfD390dRUVGlXUHkHUJCQiCEgI+PDzp16oT4+HhERkYiIiJCJmYXL15E79690aRJE7kKREhICCIjI2WLfm3Iy8tDRkYGzp07h8TERERGRiIrKwtnz57FmjVrYLVaERERgZSUFCQnJ8Nms3nFZ95kMiEqKgr33HMP3nvvvXoxMbIqTPyI6iAtyUlJSUFaWhoaN24sWx01SUlJKC4uLrcV9vjx4wgKCkKTJk3UkGylbN++fZkWVCEEjh49ioiIiHIXN87JycHp06fRrl27crv1UlJSAACdO3c2dDNqY9/MZjNCQ0MRFBRUpgXHnf7++2/06tVLHm/YsAEDBw401HEFrWU9PT0dubm5cnyTNkM9NzcXJ06cwNmzZ9GmTRu5pJM24P/y5cs4cOAAWrduXab1KycnB3v27EFBQQG6du0KHx8fw0WC9tjQ0FC0aNECKG0V07r9U1NTkZWVhZCQEMMYysLCQuSVTjIQQrD1p/Sfva+vL1q2bGmYwNWgQQP4+/sjLS0NV155Jdq0aSNj0dHRZYY/eIv8/Hz5ec/OzkZJSQmSk5MRGxsLlJ5XUlNT0ahRI/mZz8zMhNlslucIrSdKf97JyMgwtHyidGxgRESEIQFLTU1FdHS0TJptNhvOnTuH+Ph4eSF36dIl+Pv7y6EJaWlpcoWGy5cvy4vQCxcuICIiAvn5+WjevDnat28vf46nYOJHRB5v586d6N27tzw+c+ZMuQkz/R9t/LGWlKanp6O4uNjwD7ewsBAFBQWwWCw4cuSIHHuoSk1NRX5+Pho1aoTi4mJ5v8ViwZkzZ3D8+HF06tSpzKSe/Px87Nu3Dy1btiyz+K3FYsHu3bvRrFmzMhc4NpsNe/bsQUhIiBzvqHfq1CmkpaVh8ODBiI2NlcNQtJvaYkzkSZj4EZHHW79+Pa699lp5nJubW6MtjkREdcX/DWYhIvJQ2uLfKJ1MwBYdIvJWTPyIyOPp1/8MDw8vM7aRiMhbMPEjIo+nb/FTZwQTEXkTJn5E5PF2794ty1x8l4i8GRM/IvJ4R44ckeX8/Hx06tQJiYmJhjpERN6AiR8Rebz4+HhZzs/Px6FDh/DGG28Y6hAReQMmfkTk8YqKimRZ26qrU6dOuhpERN6BiR8RebzLly+rd+HJJ59U7yIi8nhM/IjI46WnpxuOw8LCuHMHEXklJn5E5PGOHTtmOH7wwQcNx0RE3oKJHxF5PP3+sAA8cuN1IiJ7cK9eIvJ4QUFBhvX70tLSEBsba6hDROQN2OJHRB5P3+KXkJDApI+IvBYTPyLyaEIIWK1WeRwVFWWIExF5EyZ+ROTR1C3auFcvEXkzJn5E5NHUYcxcuJmIvBkTPyLyKpGRkepdREReg4kfEXk0dSkXdTFnIiJvwsSPiDyafmIHAPj7+xuOiYi8CRM/IvJoJpPJcKxO9iAi8iZM/IjIoxUVFRmOCwoKDMdERN6EiR8RebTY2FiYzf93qnvkkUcMcSIib8LEj4g8mtlsxtKlS9G7d29MnToVQ4cOVasQEXkN7tVLRERE5CXY4kdERETkJZj4EREREXkJJn5EREREXoKJHxEREZGXYOJHRERE5CWY+BERERF5CSZ+RERERF6CiR8RERGRl2DiR0REROQlmPgREREReQkmfkRERERegokfERERkZdg4kdERETkJZj4EREREXkJJn5EREREXoKJHxEREZGXYOJHRERE5CWY+BERERF5CSZ+RERERF6CiR8RERGRl2DiR0REROQlmPgREREReQkmfkRERERegokfERERkZdg4kdERETkJZj4EREREXkJJn5EREREXoKJHxEREZGXYOJHRERE5CWY+BERERF5CSZ+RERERF6CiR8RERGRl2DiR0REROQlmPgREREReQkmfkRERERegokfERERkZdg4kdERETkJZj4EREREXkJJn5EREREXoKJHxEREZGXYOJHRERE5CWY+BERERF5CSZ+RERERF6CiR8RERGRl2DiR0REROQlmPgREREReQkmfkRERERegokfERERkZdg4kdERETkJZj4EREREXkJJn5EREREXoKJHxEREZGXYOJHRERE5CWY+BERERF5CSZ+RERERF6CiR8RERGRl2DiR0REROQlmPgREREReQkmfkRERERegokfERERkZdg4kdERETkJZj4EREREXkJJn5EREREXoKJHxEREZGXYOJHRERE5CWY+BERkcHZs2dRVFSk3m1w5swZxMbGYvPmzWqIiOowkxBCqHcSEZH38vHxgclkQkJCAtq3b48OHTqgffv2aNOmDcxmMy5fvox//vOfOHHiBM6ePYvY2Fj1KYiojmLiR0REBseOHcOxY8dw+PBh7NixA6mpqThy5AjOnj0r6/j4+GDUqFFYsGCB4bFEVLcx8SMiIrtcunQJGzZsQE5ODvr374927dqpVYiojmPiR0REROQlOLmDiMhJ4eHhMJvNmDp1qhoiIqpT2OJHROSk6OhoZGRkIDAwEAUFBWqYiKjOYIsfEZGTvvjiCwCAyWRSQ0REdQpb/IiInGS1WjFo0CD06NEDH330kRomIqozmPgREREReQl29RIRERF5CSZ+RERERF6CiR8RERGRl2DiR0REROQlmPgREREReQkmfkRERERegokfEdUJhw8fxrRp09S7iYjIhZj4EVGt27NnD2666SZceeWVaoiIiFyIiR8R1aoZM2ZgyJAhmD9/Pm644QY1TERELsTEj4hqzaxZszBlyhS8+OKLGDhwoBomIiIX45ZtRFTjDh8+jEGDBiE9PR0LFizAAw88oFYhIiI3YOJHRDVqz549uP7665GWloarr74amzZtUqsQEZGbsKuXiGrMl19+iZ49eyItLQ1Dhw7FH3/8oVYhIiI3YuJHVEMyMjKwcuVKqI3sQghs377dcJ+n+vnnn2Gz2RAfH49ly5YhJCRErUJERG7Erl6iGuLv74/i4mKEhIRg0KBB6N+/Pxo3box///vf8PHxwenTp9WHeKSFCxdi5MiR8PX1VUNERORmTPyIakhkZCSysrLUu4HS2a0vvviiejcREZFLMfEjqkHnzp3D1q1bsWXLFvz555/YsWMH2rdvj0OHDqlViYiIXI6JH1EtstlsMJs51JaIiGoGEz8iIiIiL8GmBiIiIiIvwcSPiIiIyEsw8SMiIiLyEkz8iIiIiLwEEz8iIiIiL8HEj4iIiMhLMPEjIiIi8hJM/IiIiIi8BBM/IiIiIi/BxI+IiIjISzDxIyIiIvISTPyIiIiIvAQTPyIiIiIvwcSPiIiIyEsw8SMiIiLyEkz8iIiIiLwEEz8iIiIiL8HEj4iIiMhLMPEjIiIi8hJM/IiIiIi8BBM/IiIiIi/BxI+IiIjISzDxIyIiIvISTPyIiIiIvAQTPyIiIiIvwcSPiIiIyEsw8SMiIiLyEkz8iIiIiLzE/w8UtZVRv4N52gAAAABJRU5ErkJggg==;" vertex="1" parent="1">
          <mxGeometry x="1250" y="389.99999999999994" width="548" height="450.08" as="geometry" />
        </mxCell>
      </root>
    </mxGraphModel>
  </diagram>
</mxfile>
